<svg xmlns="http://www.w3.org/2000/svg" width="32" height="32" fill="none" viewBox="0 0 32 32"><circle cx="16" cy="16" r="16" fill="#3B99FC"/><path fill="#fff" fill-rule="evenodd" d="M22.2995 11.9384C18.8205 8.46495 13.1799 8.46495 9.70087 11.9384L9.24131 12.3972C9.06736 12.5709 9.06736 12.8525 9.24131 13.0262L10.6736 14.4562C10.7606 14.543 10.9016 14.543 10.9886 14.4562L11.6056 13.8401C14.0327 11.417 17.9677 11.417 20.3947 13.8401L20.9709 14.4154C21.0579 14.5022 21.1989 14.5022 21.2859 14.4154L22.7182 12.9854C22.8921 12.8117 22.8921 12.5301 22.7182 12.3565L22.2995 11.9384ZM26.5364 16.1686L25.2616 14.8959C25.0877 14.7222 24.8056 14.7222 24.6317 14.8959L20.5521 18.9689C20.5087 19.0123 20.4382 19.0123 20.3947 18.9689L16.3151 14.8958L16.3151 14.8958C16.1411 14.7221 15.8591 14.7221 15.6851 14.8958L11.6057 18.9689C11.5622 19.0123 11.4917 19.0123 11.4482 18.9689L7.36864 14.8958C7.19469 14.7221 6.91266 14.7221 6.73871 14.8958L5.46396 16.1685C5.29001 16.3422 5.29001 16.6238 5.46396 16.7974L11.2121 22.5364C11.386 22.7101 11.6681 22.7101 11.842 22.5364L15.9215 18.4633C15.9649 18.4199 16.0355 18.4199 16.0789 18.4633L20.1585 22.5364C20.3324 22.7101 20.6145 22.7101 20.7884 22.5364L26.5364 16.7975C26.7103 16.6238 26.7103 16.3423 26.5364 16.1686Z" clip-rule="evenodd"/></svg>