<svg xmlns="http://www.w3.org/2000/svg" width="32" height="32" fill="none" viewBox="0 0 32 32"><circle cx="16" cy="16" r="16" fill="#F7F9FB"/><path fill="#E17726" stroke="#E17726" stroke-linecap="round" stroke-linejoin="round" stroke-width=".25" d="M25.6117 6L17.2778 12.25L18.8276 8.56667L25.6117 6Z"/><path fill="#E27625" stroke="#E27625" stroke-linecap="round" stroke-linejoin="round" stroke-width=".25" d="M6.38867 6L14.6483 12.3083L13.1728 8.56666L6.38867 6Z"/><path fill="#E27625" stroke="#E27625" stroke-linecap="round" stroke-linejoin="round" stroke-width=".25" d="M22.611 20.4916L20.3936 23.9249L25.1416 25.2499L26.5018 20.5666L22.611 20.4916Z"/><path fill="#E27625" stroke="#E27625" stroke-linecap="round" stroke-linejoin="round" stroke-width=".25" d="M5.50635 20.5666L6.85822 25.2499L11.5981 23.9249L9.38888 20.4916L5.50635 20.5666Z"/><path fill="#E27625" stroke="#E27625" stroke-linecap="round" stroke-linejoin="round" stroke-width=".25" d="M11.3428 14.6916L10.0239 16.7083L14.7225 16.925L14.5659 11.8L11.3428 14.6916Z"/><path fill="#E27625" stroke="#E27625" stroke-linecap="round" stroke-linejoin="round" stroke-width=".25" d="M20.6575 14.6917L17.385 11.7417L17.2778 16.925L21.9764 16.7084L20.6575 14.6917Z"/><path fill="#E27625" stroke="#E27625" stroke-linecap="round" stroke-linejoin="round" stroke-width=".25" d="M11.5981 23.9249L14.442 22.5333L11.9938 20.6L11.5981 23.9249Z"/><path fill="#E27625" stroke="#E27625" stroke-linecap="round" stroke-linejoin="round" stroke-width=".25" d="M17.5581 22.5333L20.3937 23.9249L20.0063 20.6L17.5581 22.5333Z" opacity=".8"/><path fill="#D5BFB2" stroke="#D5BFB2" stroke-linecap="round" stroke-linejoin="round" stroke-width=".25" d="M20.3937 23.925L17.5581 22.5334L17.7889 24.4L17.7641 25.1917L20.3937 23.925Z"/><path fill="#D5BFB2" stroke="#D5BFB2" stroke-linecap="round" stroke-linejoin="round" stroke-width=".25" d="M11.5981 23.925L14.236 25.1917L14.2195 24.4L14.442 22.5334L11.5981 23.925Z"/><path fill="#233447" stroke="#233447" stroke-linecap="round" stroke-linejoin="round" stroke-width=".25" d="M14.2853 19.3666L11.9277 18.6667L13.5928 17.8917L14.2853 19.3666Z"/><path fill="#233447" stroke="#233447" stroke-linecap="round" stroke-linejoin="round" stroke-width=".25" d="M17.7148 19.3666L18.4073 17.8917L20.0807 18.6667L17.7148 19.3666Z"/><path fill="#CC6228" stroke="#CC6228" stroke-linecap="round" stroke-linejoin="round" stroke-width=".25" d="M11.5983 23.9249L12.0105 20.4916L9.38916 20.5666L11.5983 23.9249Z"/><path fill="#CC6228" stroke="#CC6228" stroke-linecap="round" stroke-linejoin="round" stroke-width=".25" d="M19.9897 20.4916L20.3937 23.9249L22.6111 20.5666L19.9897 20.4916Z"/><path fill="#CC6228" stroke="#CC6228" stroke-linecap="round" stroke-linejoin="round" stroke-width=".25" d="M21.9764 16.7083L17.2778 16.9249L17.7147 19.3666L18.4072 17.8916L20.0805 18.6666L21.9764 16.7083Z"/><path fill="#CC6228" stroke="#CC6228" stroke-linecap="round" stroke-linejoin="round" stroke-width=".25" d="M11.9281 18.6666L13.5932 17.8916L14.2857 19.3666L14.7225 16.9249L10.0239 16.7083L11.9281 18.6666Z"/><path fill="#E27525" stroke="#E27525" stroke-linecap="round" stroke-linejoin="round" stroke-width=".25" d="M10.0239 16.7083L11.9941 20.5999L11.9281 18.6666L10.0239 16.7083Z"/><path fill="#E27525" stroke="#E27525" stroke-linecap="round" stroke-linejoin="round" stroke-width=".25" d="M20.0805 18.6666L20.0063 20.5999L21.9765 16.7083L20.0805 18.6666Z"/><path fill="#E27525" stroke="#E27525" stroke-linecap="round" stroke-linejoin="round" stroke-width=".25" d="M14.7226 16.9249L14.2856 19.3666L14.8379 22.2499L14.9616 18.4499L14.7226 16.9249Z"/><path fill="#E27525" stroke="#E27525" stroke-linecap="round" stroke-linejoin="round" stroke-width=".25" d="M17.2777 16.9249L17.0469 18.4417L17.1623 22.2499L17.7146 19.3666L17.2777 16.9249Z"/><path fill="#F5841F" stroke="#F5841F" stroke-linecap="round" stroke-linejoin="round" stroke-width=".25" d="M17.7149 19.3667L17.1626 22.25L17.5583 22.5334L20.0065 20.6L20.0807 18.6667L17.7149 19.3667Z"/><path fill="#F5841F" stroke="#F5841F" stroke-linecap="round" stroke-linejoin="round" stroke-width=".25" d="M11.9277 18.6667L11.9937 20.6L14.4419 22.5334L14.8376 22.25L14.2853 19.3667L11.9277 18.6667Z"/><path fill="#C0AC9D" stroke="#C0AC9D" stroke-linecap="round" stroke-linejoin="round" stroke-width=".25" d="M17.7641 25.1917L17.7887 24.4L17.5745 24.2166H14.4256L14.2195 24.4L14.236 25.1917L11.5981 23.925L12.5214 24.6916L14.3926 26H17.5991L19.4786 24.6916L20.3936 23.925L17.7641 25.1917Z"/><path fill="#161616" stroke="#161616" stroke-linecap="round" stroke-linejoin="round" stroke-width=".25" d="M17.5582 22.5333L17.1625 22.25H14.8379L14.4423 22.5333L14.2197 24.4L14.4258 24.2166H17.5747L17.789 24.4L17.5582 22.5333Z"/><path fill="#763E1A" stroke="#763E1A" stroke-linecap="round" stroke-linejoin="round" stroke-width=".25" d="M25.9661 12.6583L26.6668 9.20833L25.6117 6L17.5581 12.0417L20.6575 14.6916L25.0346 15.9833L25.9991 14.8417L25.5787 14.5333L26.2464 13.9167L25.7353 13.5167L26.403 13L25.9661 12.6583Z"/><path fill="#763E1A" stroke="#763E1A" stroke-linecap="round" stroke-linejoin="round" stroke-width=".25" d="M5.3335 9.20833L6.04241 12.6583L5.58904 13L6.26497 13.5167L5.7539 13.9167L6.42159 14.5333L6.00119 14.8417L6.96565 15.9833L11.3428 14.6916L14.4422 12.0417L6.38862 6L5.3335 9.20833Z"/><path fill="#F5841F" stroke="#F5841F" stroke-linecap="round" stroke-linejoin="round" stroke-width=".25" d="M25.0347 15.9833L20.6576 14.6917L21.9765 16.7083L20.0063 20.6L22.6112 20.5666H26.502L25.0347 15.9833Z"/><path fill="#F5841F" stroke="#F5841F" stroke-linecap="round" stroke-linejoin="round" stroke-width=".25" d="M11.3425 14.6917L6.96539 15.9833L5.50635 20.5666H9.38888L11.9937 20.6L10.0236 16.7083L11.3425 14.6917Z"/><path fill="#F5841F" stroke="#F5841F" stroke-linecap="round" stroke-linejoin="round" stroke-width=".25" d="M17.278 16.925L17.5582 12.0416L18.8276 8.56665H13.1729L14.4423 12.0416L14.7225 16.925L14.8297 18.4583L14.838 22.25H17.1625L17.1708 18.4583L17.278 16.925Z"/></svg>