<svg width="24" height="24" viewBox="0 0 24 24" fill="none" xmlns="http://www.w3.org/2000/svg">
    <g clip-path="url(#tonhub_svg__clip0_32350_56169)">
        <g filter="url(#tonhub_svg__filter0_d_32350_56169)">
            <mask id="tonhub_svg__mask0_32350_56169" maskUnits="userSpaceOnUse" x="2" y="3" width="20" height="18"
                  style="mask-type: alpha;">
                <path d="M8.81603 3.02441C8.85103 3.00833 8.88913 3 8.92763 3H15.0654C15.1039 3 15.142 3.00833 15.1771 3.02441L19.8701 4.9308C19.9186 4.9531 19.9596 4.989 19.9879 5.0343L21.7855 8.7644C21.8499 8.8671 21.8422 8.9994 21.7662 9.094L12.2068 20.8988C12.1557 20.9628 12.0784 21 11.9966 21C11.9147 21 11.8374 20.9628 11.7863 20.8988L2.22683 9.094C2.15083 8.9995 2.14313 8.8671 2.20763 8.7644L4.00523 5.0251C4.03363 4.9799 4.07453 4.944 4.12293 4.9216L8.81603 3.02441Z"
                      fill="white"></path>
            </mask>
            <g mask="url(#tonhub_svg__mask0_32350_56169)">
                <path d="M21.8247 7.34442H11.9922V20.9289H21.8247V7.34442Z" fill="#2A92F2"></path>
                <path d="M11.9966 7.34442H2.16406V20.9289H11.9966V7.34442Z" fill="#4795F1"></path>
                <path d="M21.8287 3H2.16406V8.1718H21.8287V3Z" fill="#86C5FF"></path>
                <path d="M11.9934 6.57208L15.7481 11.1463H8.28906L11.9934 6.57208Z" fill="#8BC0FF"></path>
                <path d="M11.9931 23.6182L15.7481 11.1465H8.28906L11.9931 23.6182Z" fill="#ADD3FF"></path>
                <path d="M11.9951 6.57212L4.69531 5.72382L8.29081 11.1464L11.9951 6.57212Z" fill="#D3E0FF"></path>
                <path d="M2.16406 8.86132L4.69696 5.72382L8.29236 11.1464L2.16406 8.86132Z" fill="#9FBAFF"></path>
                <path d="M2.16406 8.86129L4.69696 5.72369L4.08056 4.93079C3.66096 4.98449 2.92886 7.04449 2.16406 8.86129Z"
                      fill="#7498F8"></path>
                <path d="M12 6.57212L19.1729 5.72382L15.7547 11.1464L12 6.57212Z" fill="#4C99F3"></path>
                <path d="M21.8273 8.86148L19.1684 5.72388L15.75 11.1465L21.8273 8.86148Z" fill="#96C7FF"></path>
                <path d="M21.8308 8.86129L19.1719 5.72369L19.872 4.93079C20.4617 5.31159 21.2483 7.22669 21.8308 8.86129Z"
                      fill="#4481FD"></path>
                <path d="M6.99694 9.30951C6.97844 9.26381 7.04764 9.21601 7.08224 9.25061C7.41554 9.58321 8.09483 10.2008 8.58283 10.2437C9.06183 10.2858 9.88304 9.82061 10.3126 9.55171C10.3549 9.52521 10.4151 9.59321 10.3853 9.63361C10.1284 9.98261 9.71924 10.6156 9.67154 11.1631C9.62034 11.7513 9.95693 12.5802 10.1418 12.9838C10.1621 13.0281 10.0991 13.0759 10.0632 13.0437C9.70423 12.7221 8.92833 12.0781 8.42703 12.034C7.92163 11.9895 7.10903 12.503 6.73973 12.7583C6.70073 12.7852 6.64594 12.7331 6.66994 12.6918C6.88314 12.325 7.30114 11.5414 7.35184 10.9592C7.39964 10.4101 7.15104 9.69221 6.99694 9.30951Z"
                      fill="white"></path>
            </g>
        </g>
    </g>
    <defs>
        <filter id="tonhub_svg__filter0_d_32350_56169" x="-137.836" y="-134" width="299.664" height="298"
                filterUnits="userSpaceOnUse" color-interpolation-filters="sRGB">
            <feFlood flood-opacity="0" result="BackgroundImageFix"></feFlood>
            <feColorMatrix in="SourceAlpha" type="matrix" values="0 0 0 0 0 0 0 0 0 0 0 0 0 0 0 0 0 0 127 0"
                           result="hardAlpha"></feColorMatrix>
            <feOffset dy="3"></feOffset>
            <feGaussianBlur stdDeviation="70"></feGaussianBlur>
            <feColorMatrix type="matrix" values="0 0 0 0 0 0 0 0 0 0 0 0 0 0 0 0 0 0 0.5 0"></feColorMatrix>
            <feBlend mode="normal" in2="BackgroundImageFix" result="effect1_dropShadow_32350_56169"></feBlend>
            <feBlend mode="normal" in="SourceGraphic" in2="effect1_dropShadow_32350_56169" result="shape"></feBlend>
        </filter>
        <clipPath id="tonhub_svg__clip0_32350_56169">
            <rect width="24" height="24" fill="white"></rect>
        </clipPath>
    </defs>
</svg>
