<svg width="24" height="24" viewBox="0 0 24 24" fill="none" xmlns="http://www.w3.org/2000/svg">
    <mask id="wallet_svg__mask0_30006_14924" maskUnits="userSpaceOnUse" x="1" y="3" width="22" height="18"
          style="mask-type: alpha;">
        <path d="M13.7156 19.353C12.9191 20.2918 12.5208 20.7611 12 20.7611C11.4792 20.7611 11.0809 20.2918 10.2844 19.353L2.57295 10.2645C2.0558 9.65504 1.79722 9.35029 1.77193 8.98136C1.74664 8.61242 1.96121 8.27524 2.39035 7.60087L3.61858 5.67081C3.8698 5.27603 3.99541 5.07864 4.17161 4.9304C4.34781 4.78216 4.56378 4.69218 4.99572 4.5122L7.65577 3.40385C8.1388 3.20258 8.38032 3.10195 8.6352 3.05098C8.89007 3 9.15172 3 9.675 3H14.325C14.8483 3 15.1099 3 15.3648 3.05098C15.6197 3.10195 15.8612 3.20258 16.3442 3.40385L19.0043 4.5122C19.4362 4.69218 19.6522 4.78216 19.8284 4.9304C20.0046 5.07864 20.1302 5.27603 20.3814 5.67081L21.6096 7.60087C22.0388 8.27524 22.2534 8.61242 22.2281 8.98136C22.2028 9.35029 21.9442 9.65504 21.4271 10.2645L13.7156 19.353Z"
              fill="#C4C4C4"></path>
    </mask>
    <g mask="url(#wallet_svg__mask0_30006_14924)">
        <path d="M12 12.0124L15.7525 12L12 23.3613V12.0124Z" fill="#8DCCFC"></path>
        <path d="M12 12.0124L8.25247 12L12 23.3613V12.0124Z" fill="#8DCCFC"></path>
        <path d="M15.7525 12L12.0025 7.125L12 12.0124L15.7525 12Z" fill="#75C1FF"></path>
        <path d="M8.25 12L12 7.125L11.9975 12.0123L8.25 12Z" fill="#75C1FF"></path>
        <path d="M15.75 12L18.75 6L12 7.125L15.75 12Z" fill="#4BAEF7"></path>
        <path d="M8.25 12L5.25 6L12 7.125L8.25 12Z" fill="#BFE2F7"></path>
        <path d="M22.5 9L18.75 6L15.75 12L22.5 9Z" fill="#6EBEFF"></path>
        <path d="M1.5 9L5.25 6L8.25 12L1.5 9Z" fill="#87CBFF"></path>
        <path d="M15.75 12L12 23.25L22.5 9L15.75 12Z" fill="#47A9F1"></path>
        <path d="M8.25 12L12 23.25L1.5 9L8.25 12Z" fill="#47A9F1"></path>
        <path d="M19.875 4.875L18.75 6L22.5 9L19.875 4.875Z" fill="#389BE3"></path>
        <path d="M4.125 4.875L5.25 6L1.5 9L4.125 4.875Z" fill="#389BE3"></path>
        <path d="M15.3775 3H12V7.125L18.7525 6L19.8775 4.875L15.3775 3Z" fill="#7EC7FF"></path>
        <path d="M8.62747 3H12V7.125L5.25247 6L4.12747 4.875L8.62747 3Z" fill="#7EC7FF"></path>
    </g>
</svg>
