<svg width="640" height="640" viewBox="0 0 640 640" fill="none" xmlns="http://www.w3.org/2000/svg">
<path d="M587.679 393.961C587.274 340.927 575.264 290.862 549.354 244.44C548.005 242.011 545.846 239.987 547.06 236.478C557.046 208.004 564.333 178.721 572.16 149.707C596.316 181.824 611.97 217.99 621.551 256.855C630.323 292.751 632.482 329.186 628.028 365.757C621.416 420.411 601.984 470.476 568.787 514.604C524.929 572.901 467.711 611.9 396.999 630.118C265.156 663.99 127.375 608.932 55.5834 493.417C28.4591 449.829 13.0751 402.058 9.70145 350.508C5.11325 278.986 23.0612 213.942 62.7356 154.565C63.1405 153.89 63.8152 153.486 64.355 152.946C70.0227 179.935 76.5002 206.52 87.0261 232.025C89.1852 237.153 88.9153 241.336 86.4863 246.464C65.4345 289.512 52.4796 334.989 48.971 382.895C48.7011 386.404 48.971 389.778 49.106 393.286C48.2963 399.494 48.5662 405.566 49.6458 411.639C54.2339 436.064 66.919 456.441 82.8427 474.794C128.59 527.289 185.942 562.375 251.122 585.181C283.914 596.651 317.381 601.509 352.062 595.302C394.705 587.745 433.975 571.686 470.815 549.555C510.22 525.939 544.631 496.791 568.787 456.846C580.257 437.414 587.544 416.902 587.679 393.961Z" fill="#EF0601"/>
<path d="M467.179 56.5887C452.874 72.1076 438.57 87.4915 426.02 104.63C423.186 108.543 420.082 107.869 416.169 106.519C386.211 96.2631 355.038 91.0002 323.46 90.7303C289.993 90.4604 256.797 93.4292 225.084 105.44C218.067 108.138 213.883 107.329 208.755 101.391C195.8 86.412 181.901 72.3775 168.406 58.0731C197.69 41.0698 228.997 30.1391 262.329 24.2014C333.177 11.6514 400.515 21.6374 464.48 54.9693C465.559 55.3742 466.369 55.914 467.179 56.5887Z" fill="#EF0601"/>
<path d="M63.9824 152.78C58.3146 121.202 53.8614 89.6246 54.6711 57.3723C55.0759 44.8223 55.8856 32.1372 60.0689 20.2619C68.5706 -3.8936 72.4841 -2.27424 92.996 3.93332C113.508 10.2758 129.971 23.7705 146.03 37.6701C153.722 44.2825 161.144 51.1648 168.566 58.0471C182.061 72.4864 196.096 86.5209 208.915 101.365C214.043 107.303 218.227 108.112 225.244 105.413C256.957 93.2682 290.154 90.2994 323.62 90.7042C355.198 90.9741 386.236 96.237 416.329 106.493C420.242 107.842 423.346 108.517 426.18 104.604C438.595 87.6005 452.9 72.0815 467.339 56.5626C483.398 42.5281 499.051 28.2238 517.944 17.563C531.034 10.1409 544.933 5.28279 559.643 2.04406C566.12 0.559642 570.573 2.17901 573.542 8.79141C579.48 21.8813 582.449 35.5109 583.123 49.6803C584.608 81.3929 579.615 112.296 572.867 143.064C572.463 145.088 572.328 147.247 572.058 149.271C564.231 178.285 556.944 207.568 546.958 236.042C545.743 239.551 547.902 241.575 549.252 244.004C575.162 290.426 587.172 340.491 587.577 393.525C585.957 393.39 584.338 393.255 582.853 392.985C530.629 384.889 484.207 396.764 444.533 432.525C441.294 435.494 438.055 438.328 434.412 441.566C430.229 428.746 425.235 417.276 419.433 406.075C397.166 363.702 349.8 340.221 302.569 347.778C263.299 354.121 236.715 377.467 217.282 410.529C211.614 420.245 206.756 430.501 201.223 441.027C190.428 430.501 179.767 420.784 167.622 412.958C130.916 389.207 90.8369 385.698 48.8684 392.581C48.8684 389.072 48.4635 385.563 48.7334 382.19C52.377 334.284 65.1969 288.806 86.2487 245.758C88.6777 240.765 88.9476 236.447 86.7885 231.319C76.2626 206.354 69.6502 179.634 63.9824 152.78V152.78ZM555.594 62.9051C555.054 55.0782 553.84 46.1717 547.902 41.7185C543.179 38.0749 536.972 44.9572 531.169 46.7115C530.224 46.9814 529.145 47.3863 528.2 47.926C497.837 64.7944 471.927 87.3305 447.772 111.891C444.398 115.4 444.803 117.154 448.851 119.718C456.813 124.981 464.37 131.053 472.062 136.721C494.463 156.154 513.626 178.42 529.684 203.115C531.979 202.44 531.709 200.821 532.113 199.741C543.719 166.814 553.165 133.347 556.809 98.6661C558.158 86.9257 558.833 74.7805 555.594 62.9051V62.9051ZM159.12 136.856C166.677 131.458 174.234 125.925 181.926 120.662C186.379 117.694 186.784 115.4 182.871 111.351C167.352 95.4274 151.158 80.4483 133.48 67.0885C120.255 57.1024 106.086 48.7357 90.7019 42.3932C85.439 40.2341 81.9304 39.9642 80.176 46.8465C78.6916 52.2443 76.2626 57.2374 75.8577 62.9051C73.8335 76.1299 74.2384 89.2198 75.5878 102.58C78.9615 135.372 89.2175 166.275 98.5288 197.582C99.0686 199.202 99.3385 201.496 101.633 201.766C103.927 202.035 104.332 199.606 105.411 198.257C117.961 180.309 131.321 163.171 147.11 148.057C150.888 144.143 156.421 142.119 159.12 136.856V136.856ZM151.968 302.976C150.079 311.477 156.151 317.955 164.923 323.488C181.926 334.149 200.684 339.951 220.116 344C230.642 346.294 241.168 347.913 251.964 346.969C259.386 346.294 260.87 343.595 258.036 336.847C255.337 330.505 251.154 325.377 245.621 321.329C224.299 305.675 201.898 291.37 176.798 282.464C154.397 274.637 153.182 276.661 151.968 302.976V302.976ZM488.256 301.491V294.609C487.716 277.741 484.207 274.637 468.284 280.305C440.619 290.021 415.924 305.405 393.118 323.893C389.879 326.457 387.315 330.235 385.156 333.879C379.623 343.46 381.648 347.373 392.578 347.103C422.806 346.294 451.01 338.467 476.785 322.138C484.882 317.01 490.01 310.533 488.256 301.491V301.491ZM442.239 263.436C444.668 263.301 448.716 263.166 452.63 262.627C467.204 260.737 473.816 249.942 468.958 235.772C464.37 222.278 448.176 211.347 434.817 212.561C420.377 213.911 404.319 229.025 402.429 242.789C401.215 252.371 404.993 258.038 414.44 260.333C423.076 262.492 431.848 263.166 442.239 263.436V263.436ZM191.102 263.436C201.223 263.166 210.265 262.492 219.171 260.333C228.483 258.038 232.261 252.236 231.047 242.655C229.292 229.43 213.369 214.451 199.199 212.696C186.109 211.077 169.376 221.873 164.653 235.232C159.525 249.537 166.272 260.872 180.981 262.762C184.76 263.166 188.404 263.301 191.102 263.436Z" fill="#FEA309"/>
<path d="M587.82 393.699C587.82 416.505 580.398 437.152 568.792 456.449C544.637 496.393 510.225 525.542 470.821 549.158C433.98 571.289 394.711 587.213 352.067 594.905C317.386 601.112 283.919 596.254 251.127 584.784C185.948 561.843 128.595 526.891 82.8482 474.397C66.9244 456.044 54.2394 435.802 49.6512 411.242C48.5716 405.169 48.3017 399.097 49.1114 392.889C91.0799 385.872 131.159 389.515 167.865 413.266C180.01 421.093 190.671 430.809 201.467 441.335C206.999 430.809 211.723 420.553 217.525 410.837C236.958 377.775 263.542 354.429 302.812 348.087C350.043 340.395 397.544 364.01 419.676 406.384C425.479 417.584 430.607 429.055 434.655 441.875C438.298 438.636 441.537 435.667 444.776 432.833C484.45 397.207 530.872 385.332 583.097 393.294C584.581 393.429 586.2 393.564 587.82 393.699V393.699ZM375.683 525.272C382.161 517.31 379.597 504.355 392.012 501.386C392.282 501.386 392.282 500.442 392.417 499.902C393.766 494.774 395.115 489.646 396.6 484.518C397.14 482.629 397.005 481.414 394.711 481.414C388.233 481.414 380.676 479.39 375.683 482.089C365.967 487.352 356.386 483.034 346.939 484.653C345.455 484.923 344.51 483.843 343.566 482.899C335.199 474.667 333.715 470.618 334.524 458.473C334.659 455.774 335.334 454.155 338.033 453.075C359.894 444.304 367.586 427.705 365.427 405.169C364.617 396.128 358.545 388.841 349.233 388.706C332.905 388.436 316.576 388.571 300.248 388.706C293.5 388.706 289.047 392.349 286.888 398.422C281.49 413.806 287.158 432.024 300.518 442.145C304.701 445.383 309.289 448.352 314.282 450.241C321.569 452.94 324.943 457.259 323.324 465.086C322.919 466.84 323.863 469.134 323.189 470.618C320.49 476.286 316.711 483.438 311.583 484.383C302.002 486.137 291.341 486.137 282.165 483.573C273.123 481.009 264.757 482.764 255.31 482.494C261.923 486.812 262.598 493.155 263.542 499.362C263.677 500.577 263.677 502.871 265.162 502.601C272.314 501.791 271.099 507.594 272.719 511.372C274.608 516.23 275.957 521.493 279.601 525.677C282.57 523.518 283.514 520.684 283.379 517.175C283.109 511.507 283.649 505.84 282.975 500.307C282.165 493.829 284.324 492.75 290.397 493.694C314.552 497.473 338.978 497.473 363.133 493.694C370.285 492.615 372.849 493.559 372.444 501.521C371.635 509.348 368.936 517.985 375.683 525.272V525.272ZM349.908 504.895C349.908 502.466 348.559 501.656 346.4 501.656C331.42 501.656 316.576 501.521 301.597 501.386C298.089 501.386 297.549 503.545 298.224 506.109C299.168 509.753 307.4 511.912 309.829 509.078C314.012 504.355 316.171 506.649 318.87 510.563C324.538 519.064 325.618 519.064 332.365 511.777C334.794 509.213 336.548 505.705 341.002 510.023C343.836 513.127 350.043 508.943 349.908 504.895V504.895Z" fill="#FDFDFC"/>
<path d="M158.876 136.785C156.177 142.048 150.644 144.207 146.596 147.986C130.807 163.235 117.312 180.238 104.897 198.186C103.818 199.671 103.413 201.965 101.119 201.695C98.9597 201.425 98.5548 199.131 98.015 197.512C88.7037 166.204 78.4477 135.301 75.074 102.509C73.7246 89.1491 73.3197 76.0593 75.3439 62.8345C78.3128 62.8345 81.1467 63.1044 83.9805 63.7791C103.683 67.9625 118.662 79.0281 131.482 94.0072C142.682 106.962 153.073 120.457 158.876 136.785V136.785ZM555.35 62.8345C558.589 74.7098 557.779 86.855 556.565 98.5954C552.921 133.277 543.475 166.744 531.87 199.671C531.465 200.75 531.735 202.37 529.441 203.044C513.382 178.349 494.219 156.083 471.818 136.65C481.804 113.979 496.109 94.4121 515.406 78.7582C527.146 69.4469 540.236 63.5092 555.35 62.8345V62.8345Z" fill="#FE8300"/>
<path d="M555.636 63.0889C540.522 63.6287 527.297 69.7013 515.827 79.0127C496.53 94.6665 482.225 114.234 472.239 136.905C464.547 131.237 456.99 125.165 449.028 119.902C444.98 117.203 444.575 115.583 447.949 112.075C472.104 87.3794 498.014 64.9782 528.377 48.1098C529.322 47.57 530.266 47.3001 531.346 46.8953C537.014 45.141 543.221 38.3936 548.079 41.9022C553.882 46.4904 555.231 55.262 555.636 63.0889ZM159.162 137.04C153.359 120.711 142.968 107.352 131.768 94.2617C118.948 79.2826 103.969 68.2169 84.2665 64.0335C81.2977 63.3588 78.4638 63.0889 75.6299 63.0889C76.0347 57.4211 78.5987 52.4281 79.9482 47.0302C81.8375 40.1479 85.3461 40.4178 90.4741 42.577C105.858 49.0544 120.027 57.2862 133.252 67.2723C150.93 80.632 167.259 95.6111 182.643 111.535C186.556 115.583 186.151 117.877 181.698 120.846C174.276 125.974 166.719 131.642 159.162 137.04Z" fill="#FE9200"/>
<path d="M441.928 263.374C431.537 263.104 422.766 262.429 414.264 260.405C404.818 258.246 401.039 252.443 402.254 242.862C404.008 228.962 420.202 213.983 434.641 212.634C448.001 211.419 464.194 222.35 468.782 235.845C473.506 250.014 467.028 260.81 452.454 262.699C448.271 263.104 444.357 263.239 441.928 263.374Z" fill="#FEFDFA"/>
<path d="M191.363 263.441C188.799 263.306 185.02 263.171 181.377 262.766C166.667 260.877 159.92 249.542 165.048 235.237C169.771 222.012 186.505 211.082 199.595 212.701C213.764 214.455 229.688 229.569 231.442 242.659C232.657 252.241 228.878 258.043 219.567 260.337C210.525 262.631 201.484 263.171 191.363 263.441Z" fill="#FEFDFA"/>
<path d="M151.923 302.889C153.137 276.574 154.352 274.55 176.753 282.647C201.718 291.553 224.119 305.858 245.576 321.512C250.974 325.56 255.292 330.688 257.991 337.031C260.825 343.643 259.34 346.342 251.918 347.152C241.123 348.096 230.597 346.477 220.071 344.183C200.639 339.999 181.881 334.332 164.878 323.671C156.106 317.868 149.898 311.391 151.923 302.889ZM488.211 301.404C490.1 310.311 484.837 316.788 476.74 321.916C451.1 338.11 422.761 346.072 392.533 346.882C381.467 347.152 379.443 343.238 385.111 333.657C387.27 330.013 389.834 326.235 393.073 323.671C415.744 305.183 440.439 289.799 468.238 280.083C484.162 274.415 487.671 277.519 488.211 294.387V301.404Z" fill="#1D1D1D"/>
<path d="M375.212 525.673C368.6 518.386 371.164 509.749 371.569 501.787C371.973 493.826 369.274 492.746 362.257 493.96C338.102 497.739 313.676 497.739 289.521 493.96C283.448 493.016 281.289 494.23 282.099 500.573C282.773 506.106 282.369 511.773 282.504 517.441C282.638 520.95 281.694 523.649 278.725 525.943C275.081 521.76 273.732 516.632 271.843 511.639C270.358 507.86 271.573 502.057 264.286 502.867C262.801 503.002 262.936 500.843 262.666 499.628C261.722 493.286 261.047 486.943 254.435 482.76C263.881 482.895 272.248 481.275 281.289 483.839C290.465 486.538 301.126 486.403 310.707 484.649C315.835 483.705 319.749 476.552 322.313 470.885C322.988 469.4 322.043 467.106 322.448 465.352C324.067 457.525 320.694 453.207 313.406 450.508C308.548 448.618 303.96 445.515 299.642 442.411C286.282 432.29 280.614 414.072 286.012 398.688C288.171 392.615 292.625 388.972 299.372 388.972C315.701 388.837 332.029 388.702 348.358 388.972C357.669 389.107 363.742 396.259 364.551 405.435C366.71 427.971 359.019 444.705 337.157 453.341C334.458 454.421 333.783 456.04 333.648 458.739C332.839 470.885 334.323 474.933 342.69 483.165C343.635 484.109 344.714 485.189 346.064 484.919C355.51 483.3 365.091 487.618 374.807 482.355C379.8 479.656 387.357 481.815 393.835 481.68C396.129 481.68 396.264 482.895 395.724 484.784C394.24 489.912 392.89 495.04 391.541 500.168C391.406 500.708 391.406 501.652 391.136 501.652C378.991 504.756 381.555 517.711 375.212 525.673Z" fill="#1D1D1D"/>
<path d="M349.521 505.073C349.656 509.121 343.448 513.17 340.479 510.471C336.026 506.152 334.272 509.526 331.843 512.225C325.095 519.377 324.016 519.377 318.348 511.01C315.649 507.097 313.49 504.668 309.306 509.526C306.742 512.36 298.646 510.201 297.701 506.557C297.026 503.858 297.566 501.834 301.075 501.834C316.054 501.969 330.898 501.969 345.877 502.104C348.306 501.834 349.521 502.779 349.521 505.073Z" fill="#1D1D1D"/>
</svg>
