<svg width="48" height="48" viewBox="0 0 48 48" fill="none" xmlns="http://www.w3.org/2000/svg">
<circle cx="24" cy="24" r="24" fill="#F3F5FA"/>
<path d="M14.6148 26.5305L15.4599 20.1904L8.11768 15.113L14.8261 17.3755L16.4107 14.9552L22.1947 11.3773L34.9512 18.3751L35.6115 29.0561L29.933 36.922L25.4433 37.606L27.7674 33.3705V29.2929L26.0771 26.1096L24.3604 24.9784L21.7193 27.6881V30.5556L19.6593 32.4762L17.0446 32.7918L15.8825 33.4495L13.9809 32.8443L13.1886 30.0031L14.6148 28.0038V26.5305Z" fill="white"/>
<path d="M26.3414 15.0604C24.9416 14.771 23.4098 14.8499 23.4098 14.8499C23.4098 14.8499 22.908 17.165 19.7915 17.7701C19.8179 17.7701 23.9116 19.1644 26.3414 15.0604Z" fill="#94A6C3"/>
<path d="M27.6088 36.0539C29.2991 34.7386 30.5669 32.9233 31.1479 30.8713C31.1742 30.7925 31.412 30.6609 31.5704 30.5556C31.8346 30.3978 32.0987 30.2662 32.1515 30.0558C32.2572 29.4507 32.3099 28.8193 32.3099 28.1879C32.3099 27.9512 32.0721 27.7144 31.8346 27.4776C31.6495 27.3198 31.4647 27.1356 31.4647 27.0041C31.2006 24.6101 30.0913 22.3739 28.3219 20.7429L28.137 20.927C29.8538 22.5318 30.9631 24.7153 31.2006 27.0304C31.227 27.2409 31.4384 27.4513 31.6495 27.6618C31.8346 27.8196 32.0458 28.0564 32.0458 28.1616C32.0458 28.7667 31.993 29.3718 31.8873 29.9769C31.8609 30.0821 31.6232 30.1873 31.4384 30.2926C31.1742 30.4241 30.9365 30.5556 30.8837 30.7662C30.2498 33.0021 28.7972 34.9489 26.8692 36.2117C27.2126 35.4751 28.2954 33.0812 28.8766 31.8709L28.7709 27.9775L25.4166 24.7416L23.5151 25.0047L21.4286 28.3721C21.4286 28.3721 22.4058 29.6086 21.0324 31.0556C19.6855 32.4761 18.629 32.7918 18.629 32.7918L17.6518 32.2656C17.9424 31.8974 18.5234 31.3449 18.9724 30.9765C19.7383 30.3452 20.5042 30.2926 20.5042 29.6086C20.5306 28.1879 18.9988 28.5826 18.9988 28.5826L18.4441 29.1087L18.2064 31.0556L17.0444 32.5024L16.9123 32.4761L15.0107 32.0552C15.0107 32.0552 16.1728 31.45 16.3577 30.7662C16.5426 30.1084 15.9879 27.9249 15.9615 27.7933C15.9879 27.8196 16.5161 28.2668 16.7538 29.0035C17.1764 27.8459 17.7311 26.741 17.8895 26.6358C18.048 26.5305 20.1873 25.3993 20.1873 25.3993L19.4742 27.2672L20.0024 26.9778L21.2701 23.8735C21.2701 23.8735 22.5114 23.2684 23.4358 23.2684C25.0997 23.2421 27.5559 21.2164 26.4467 17.5859C26.7636 17.7175 32.2572 20.4535 33.2078 25.8202C33.9209 29.9505 31.5704 33.8177 27.6088 36.0539Z" fill="#94A6C3"/>
<path d="M21.3234 15.6391C21.9308 14.9288 21.6931 13.8765 21.6931 13.8765L19.9236 16.481C19.8972 16.481 20.5575 16.5073 21.3234 15.6391Z" fill="#1B314F"/>
<path d="M15.3809 29.8717L15.5922 28.8194C15.5922 28.8194 14.7207 30.3452 14.6414 30.5557C14.5622 30.7925 14.6943 31.2134 15.0376 31.1871C15.3809 31.1609 15.8035 30.6609 15.8035 30.2926C15.8035 29.8191 15.3809 29.8717 15.3809 29.8717Z" fill="#1B314F"/>
<path fill-rule="evenodd" clip-rule="evenodd" d="M31.0687 13.14C31.0687 13.14 32.3894 13.1926 33.7629 13.3504C30.6728 10.9301 27.7411 10.2198 25.3641 10.2198C22.1122 10.2198 19.9019 11.5427 19.7416 11.6386L19.7385 11.6404L20.7686 10.0093C20.7686 10.0093 16.6484 9.61473 15.1958 13.9555C14.8261 13.0347 14.4827 11.693 14.4827 11.693C14.4827 11.693 12.3435 13.5609 13.3471 16.6652C10.8909 15.7707 7.3782 14.5343 7.24615 14.5079C7.06127 14.4816 7.00845 14.5606 7.00845 14.5606C7.00845 14.5606 6.95563 14.6395 7.1141 14.771C7.40462 15.0078 12.9509 19.0855 14.1658 19.8747C13.9017 20.8218 13.9017 21.269 14.1658 21.7163C14.5356 22.3213 14.562 22.637 14.5092 23.0843C14.4563 23.5315 13.9809 27.3987 13.8753 27.8723C13.8327 28.0634 13.6265 28.4517 13.3992 28.8798C13.0635 29.5121 12.6817 30.2312 12.7132 30.5293C12.766 31.0291 13.4527 33.1602 14.0602 33.3968C14.5092 33.5546 15.6184 33.8967 16.3579 33.8967C16.622 33.8967 16.8597 33.8442 16.9654 33.7389C17.4144 33.3443 17.5464 33.2652 17.8633 33.2652H17.9426C18.0031 33.2652 18.0691 33.2708 18.1406 33.2768H18.1406H18.1407H18.1407C18.2254 33.2839 18.3178 33.2917 18.418 33.2917C18.8406 33.2917 19.3952 33.2127 19.7913 32.8443C20.0651 32.5716 20.4328 32.2522 20.7781 31.9521L20.7782 31.9521L20.7782 31.9521C21.1658 31.6153 21.5254 31.3029 21.6929 31.1081C22.0891 30.6081 22.3004 29.9243 22.1948 29.2402C22.1155 28.6089 22.4589 28.0564 22.855 27.504C23.3568 26.8463 24.2812 25.6624 24.2812 25.6624C26.1036 27.0304 27.2392 29.1087 27.2392 31.4237C27.2392 35.5279 23.6474 38.8425 19.2103 38.8425C18.5236 38.8425 17.8633 38.7637 17.2031 38.6057C19.2367 39.3162 20.9534 39.5528 22.3532 39.5528C25.3377 39.5528 26.9223 38.4744 26.9223 38.4744C26.9223 38.4744 26.3677 39.1846 25.4697 40H25.4961C30.435 39.3162 32.8384 35.2648 32.8384 35.2648C32.8384 35.2648 32.6536 36.5801 32.4158 37.4745C38.8244 32.6805 37.9345 26.7124 37.8605 26.2162C37.8586 26.2032 37.8572 26.1939 37.8565 26.1886C37.8891 26.2373 38.1532 26.5567 38.4313 26.893L38.4315 26.8932L38.4316 26.8934L38.4318 26.8937L38.4335 26.8957C38.6052 27.1033 38.7821 27.3172 38.9129 27.4776C39.9694 16.6389 31.0687 13.14 31.0687 13.14ZM20.9534 30.4504C20.8721 30.5517 20.5872 30.8089 20.3157 31.054L20.3156 31.0541L20.3151 31.0546C20.2342 31.1276 20.1546 31.1995 20.0819 31.2659C19.9718 31.3664 19.8586 31.4668 19.7466 31.5662C19.5361 31.753 19.3299 31.936 19.1575 32.1078C19.0518 32.213 18.8406 32.2656 18.5236 32.2656H18.2331H18.0747H17.969H17.7313C18.1275 31.7396 19.2896 30.5293 19.6857 30.2662C20.1611 29.9506 20.3988 29.6349 20.1083 29.0824C19.8178 28.53 19.0518 28.6615 19.0518 28.6615C19.0518 28.6615 19.5008 28.4773 19.897 28.4773C19.3952 28.3458 18.7613 28.4773 18.4708 28.7667C18.2595 28.9596 18.2126 29.4799 18.1656 30.0002C18.1421 30.2604 18.1187 30.5205 18.0747 30.7397C17.9564 31.3524 17.5837 31.6908 17.0138 32.2084L17.0138 32.2084C16.9475 32.2687 16.8785 32.3313 16.8069 32.3971C16.4372 32.7392 16.1731 32.8443 15.9618 32.8443C15.5128 32.7655 14.9846 32.634 14.6148 32.5024C14.3507 32.1605 13.9545 31.0291 13.8489 30.5556C13.9059 30.3663 14.086 30.0273 14.2415 29.7343L14.2416 29.7342C14.3022 29.6201 14.3591 29.5129 14.4035 29.4244L14.4476 29.3403C14.7376 28.7871 14.9078 28.4624 14.9581 28.1616C15.0638 27.7144 15.4071 24.9521 15.5392 23.7946C15.8825 24.2418 16.3579 24.9784 16.2523 25.4519C17.0182 24.3733 16.4636 23.321 16.1995 22.9001C15.9618 22.4792 15.6448 21.6373 15.9089 20.7429C16.1731 19.8484 17.1238 17.3755 17.1238 17.3755C17.1238 17.3755 17.4408 17.9279 17.8898 17.8227C18.3387 17.7175 21.957 12.2981 21.957 12.2981C21.957 12.2981 22.9343 14.429 21.9042 15.9812C20.8478 17.5333 19.8178 17.8227 19.8178 17.8227C19.8178 17.8227 21.2704 18.0858 22.6173 17.1124C23.1719 18.4015 23.7002 19.7432 23.7266 19.9273C23.7132 19.9586 23.6717 20.057 23.6115 20.1998C23.3166 20.8995 22.573 22.6638 22.4853 22.7949C22.4325 22.8475 22.0627 22.9527 21.7986 23.0053C21.3496 23.1369 21.0855 23.2158 20.9799 23.2947C20.795 23.4526 19.9498 25.7676 19.5536 26.8989C19.0783 27.0304 18.6029 27.2935 18.2595 27.8196C18.4444 27.6881 19.0254 27.6092 19.448 27.5566C19.8178 27.5302 20.9534 28.1353 21.244 29.2666V29.3192C21.2968 29.7401 21.1647 30.1347 20.9534 30.4504ZM18.6958 29.8264C18.6814 30.0811 18.6579 30.497 18.4708 30.7662C18.4889 30.7481 18.544 30.6901 18.6162 30.6142C18.755 30.4681 18.9566 30.2559 19.0783 30.1347C19.1605 30.061 19.253 30.0026 19.3414 29.9467C19.5368 29.8233 19.7121 29.7125 19.7121 29.477C19.7121 29.1087 19.2103 29.0298 18.999 29.0824C18.7877 29.135 18.7349 29.477 18.7085 29.6612C18.7029 29.7004 18.6996 29.7575 18.6958 29.8264V29.8264V29.8264ZM29.0088 25.7413C29.273 24.3996 29.2993 23.2421 29.22 22.295C30.2502 23.663 30.8839 25.3204 31.0687 27.0304C31.0953 27.2409 31.3065 27.4513 31.5179 27.6618C31.7027 27.8196 31.9139 28.0301 31.9139 28.1616C31.9139 28.7667 31.8612 29.3718 31.7555 29.9769C31.7305 30.0516 31.5159 30.1736 31.3362 30.2757L31.3362 30.2757L31.3065 30.2926C31.0424 30.4241 30.8048 30.5556 30.7519 30.7662C30.1709 32.7918 28.9295 34.5808 27.2657 35.8435C29.7219 33.2917 30.9103 29.0824 29.0088 25.7413ZM30.9633 30.845C30.3823 32.9233 29.0616 34.7648 27.3449 36.0801C30.9896 34.3439 33.4987 30.6346 33.4987 26.3727C33.4987 20.8218 29.273 16.2443 23.8586 15.6655C23.6738 15.9549 23.4889 16.2179 23.304 16.4284C23.7002 17.4018 24.7302 19.9536 24.7302 20.0852C24.7302 20.243 24.2284 21.5321 24.1756 21.5847C24.1228 21.611 23.5153 21.6636 23.2776 21.6636C23.0135 22.295 22.7494 22.9001 22.6966 22.979C22.6173 23.0843 22.3796 23.1632 21.8778 23.2947C21.8242 23.3107 21.7652 23.3278 21.7046 23.3454C21.467 23.4142 21.2068 23.4896 21.1647 23.5315C21.0327 23.6893 20.3196 25.5572 19.8442 26.8725C20.478 26.7673 21.0327 26.8989 21.1647 26.9515C22.1947 25.0047 23.0135 23.9524 23.2248 23.9524C23.2472 23.9496 23.2956 23.9513 23.3653 23.9537C23.9518 23.9738 26.0489 24.0457 26.9223 21.953C27.8588 19.6727 26.5405 17.7242 26.4502 17.5908C26.4488 17.5888 26.4477 17.5871 26.4469 17.586C26.4478 17.5864 26.4492 17.5871 26.4511 17.588C26.5678 17.6444 28.6212 18.6368 29.1409 21.7426C30.3293 23.2421 31.0953 25.0573 31.3065 26.9778C31.3065 27.0761 31.4246 27.2038 31.5394 27.328C31.5782 27.3699 31.6166 27.4115 31.65 27.4513L31.6506 27.452C31.888 27.6885 32.1253 27.9251 32.1253 28.1616C32.1253 28.793 32.0726 29.4244 31.9669 30.0295C31.9139 30.24 31.65 30.3978 31.3858 30.5293C31.3497 30.5533 31.3095 30.5787 31.2686 30.6045C31.13 30.6919 30.9836 30.7841 30.9633 30.845Z" fill="#1B314F"/>
<path d="M20.3194 21.8741C20.8212 21.2953 20.5571 20.2167 19.6327 20.0326C19.8704 19.4801 20.2137 18.3752 20.2137 18.3752C20.2137 18.3752 17.5198 22.5844 17.2821 22.6633C17.0444 22.7423 16.8067 21.8215 16.8067 21.8215C16.3049 23.7419 17.6519 24.005 17.8103 23.3999C18.5498 23.2158 19.8176 22.4265 20.3194 21.8741Z" fill="#1B314F"/>
<path d="M18.022 22.9002L19.3953 20.5588C19.3953 20.5588 20.1877 20.9534 19.7915 21.5848C19.2897 22.3214 18.022 22.9002 18.022 22.9002Z" fill="#FFD923"/>
<path d="M35.0038 33.7389C34.6076 34.2651 34.1586 34.8176 33.6304 35.3436C37.0376 28.8193 33.789 22.8475 33.657 22.6107C33.8945 22.8475 34.1323 23.1106 34.3437 23.3473C36.9582 26.2412 37.2751 30.5819 35.0038 33.7389Z" fill="#D82122"/>
<path d="M38.1732 25.3467C36.9846 22.1635 35.2943 19.4538 31.5704 17.0072C27.9785 14.6395 24.1225 14.8237 23.9112 14.85C23.8848 14.85 23.8584 14.85 23.8584 14.85C23.9904 14.7974 24.1225 14.771 24.2546 14.7447C25.0733 14.4817 26.1297 14.2712 27.1862 14.1397C29.9858 13.745 32.8118 14.6921 34.7396 16.7178C34.7662 16.7441 34.7662 16.7441 34.7926 16.7704C36.9846 19.0855 38.1202 21.9794 38.1732 25.3467Z" fill="#D82122"/>
<path d="M30.7253 12.3245C26.7901 11.5879 24.2546 11.9562 22.4323 12.6402C22.3794 12.4297 22.1946 12.0088 22.0361 11.6668C21.4815 12.3245 20.9004 13.1137 20.5307 13.6135C19.5271 14.2975 19.1045 14.9552 19.1045 14.9552C19.6855 12.9822 21.3758 11.5089 23.4359 11.1406C24.0169 11.0354 24.6508 10.9828 25.3375 10.9828C27.1598 11.0091 28.9821 11.4563 30.7253 12.3245Z" fill="#D82122"/>
<path d="M16.1732 17.3756C13.0831 17.2704 14.1131 13.6925 14.1659 13.4821C14.1659 13.5084 14.3772 16.297 16.1732 17.3756Z" fill="#D82122"/>
<path d="M19.2103 10.9302C16.8333 12.3508 17.3087 15.7445 17.3087 15.7445C15.0374 12.2982 19.0254 11.0091 19.2103 10.9302Z" fill="#D82122"/>
<path d="M15.3016 18.3225C15.46 18.4541 15.6185 18.6909 15.4336 19.0329C15.328 19.217 15.1695 19.1907 14.9318 19.0855C14.6149 18.9276 12.7133 17.8227 10.9966 16.6915C12.951 17.3755 14.9318 18.1121 15.2487 18.2699C15.2487 18.2699 15.2752 18.2962 15.3016 18.3225Z" fill="white"/>
</svg>
