<svg enable-background="new 0 0 200 200" viewBox="0 0 200 200" xmlns="http://www.w3.org/2000/svg"><path d="m195 100c0-52.4-42.6-95-95-95-52.5 0-95 42.6-95 95s42.6 95 95 95 95-42.5 95-95z" fill="#0054f9"/><g fill="#fff"><path d="m73.9 59.9c-.7 2-1.5 4.8-3.7 8.5-.3.5-.6 1-.8 1.4-1.3 2.1-1.7 2.8-1.6 3.6.2.9 2 1.7 3 1.7-.4-2.1-.3-4 .3-5.8.4-1 .8-1.7 1.4-2.6.5-.8 1.1-1.8 2-3.3.5-.9 1.4-3.3 2.3-5.5.4-.9.7-1.8 1-2.5-.6.1-1.2.3-1.7.7-1.1.7-1.5 1.6-2.2 3.8z"/><path d="m55.9 118.9s-.1 0-.1-.1c-.1-.1-.2-.1-.4-.1h-.1s0 0-.1 0c-.2 0-.5 0-.6 0-.5.1-.9.2-1.3.5-.1 0-.1.1-.2.1-1.1.7-1.8 1.8-2.4 2.9-.4.6-.7 1.2-1 1.8-.2.3-.3.7-.5 1 .1.1.2.2.3.4.1.1.2.1.3.1.5.2.9.3 1.4.5.6.2 1.1.3 1.7.5.2-.4.5-.7.7-.9.4-.5.8-1.1 1.1-1.6.7-1 1.4-2.1 2.1-3.1 0 0 0-.1.1-.1-.1-.6-.2-.9-.5-1.4 0 0-.4-.4-.2-.2-.1-.1-.1-.2-.3-.3z"/><path d="m49.8 117.5c-.5 0-.9-.1-1.3.2s-.7.6-.9.9c-.7.9-1.4 1.8-2 2.8-.5.7-.9 1.4-1.3 2.1.2.1.4.2.5.3.4.2.8.3 1.2.5.4.1.8.2 1.1.3 0-.1.1-.2.1-.2.4-.8.8-1.7 1.2-2.5.8-1.4 1.7-2.9 3-4-.1-.1-.2-.1-.2-.2-.4-.2-.9-.2-1.4-.2z"/><path d="m45 127.2c-.3 2.3-.2 4.5.2 6.8.1.5.2 1 .4 1.4.2.2.5.3.8.3h1.8c.3 0 .7-.1.9-.1h.1l.2-.2c-.1-.4-.2-.8-.4-1.3-.3-.9-.7-3.9-.5-5.9-1.1-.3-2.3-.6-3.5-1z"/><path d="m41.9 122.9c.3-.6.7-1.2 1-1.7.8-1.4 1.8-2.7 2.8-4-.5-.6-1.1-.9-1.9-1-.2-.1-.7-.1-1 0s-.5.5-.8.8c-.6.8-1.1 1.6-1.6 2.4-.3.5-.5.9-.7 1.4-.1.2-.3.5-.4.8 0 0 .1 0 .1.1.1.1.3.2.4.3.3.2.6.4.8.6.6 0 .9.1 1.3.3z"/><path d="m39 123.6c-.4-.3-.8-.7-1-1h-.1c-.4 1.2.4 4.8.8 6.9 0 .1.2.1.2 0 0-1.8.3-3.7.7-5.5 0 0 0 0 0-.1-.2 0-.4-.2-.6-.3z"/><path d="m41.7 125.9c-.4-.2-.6-.3-.8-.4-.3 1.5-.4 3.1-.4 4.7 0 .8.1 1.7.5 2.4.2.2.4.5.6.7l.4.2h.1s.1 0 .1 0h.6c-.1-.8-.2-1.7-.2-2.5-.1-1.5 0-3 .2-4.6-.3-.2-.7-.3-1.1-.5z"/><path d="m164.3 61.9c-.4-.8-.6-1-1.9-2.1-.9-.8-2.2-1.8-4.1-3.6-3.7-3.4-5.5-5.1-6.6-7.3-1.5-3.1-7.5-6.5-10.5-7.4-6.5-2.2-12.5-1.5-19.6-.7-1.1.1-2.2.2-3.4.4-3.5.4-7.1 2.4-9.9 4-1.1.6-2.1 1.2-3 1.6 4.8 0 9.9.7 13.8 3.1 6.6 4 7.9 12.2 8.4 19.8.1 2.2 0 4.7-.2 7.3-.3 6-.8 12.7 2.4 13.6 2.7.8 10.4 4.1 19.4 8.7.2.1.8.1 1.1.1 3.2-.4 5.5-3.5 7-5.4 1.8-2.3 2.5-4.5 2.9-5.8.6-1.6.7-2.4.8-3.8v-.1-.1c.1-.8.2-1.8.5-3 .6-3.2 1.3-4.8 1.9-6.2.6-1.3 1-2.4 1.4-4.8.5-3.4.9-6-.4-8.3z"/><path d="m110.7 121c0 1.7 0 3-.1 4 0 .5.4.8.8.7.2-.1.3-.1.4-.2.5-.2 1.1-.5 2.4-.7 7.4-1.1 8.5-1.3 9.5-2.1 1.2-.8 1.4-1.8 1.5-3.9.1-2 .2-4.5 2-7.5.5-.8 1.1-1.9 1.7-3.1 1.3-2.4 2.4-4.4 3.4-5.9.3-.4.1-.9-.3-1-1.4-.5-2.7-.9-3.8-1.1-3.8-.7-6.7 1.6-7.7 2.4-.9.7-.9.8-1 1.1-.2.8-.5 1.7-1.6 3.3-2.2 3.1-3.8 4-4.9 4.7-.8.5-1.3.8-1.9 1.8-.5.8-.5 1.6-.4 3.5 0 .9.1 2.1.1 3.6v.4z"/><path d="m100.2 135.1c.4.5.9.6 1.7.6.3 0 .5-.1.6-.3.7-.9.6-3.3.4-5l-3.1.8c-.2 1.2-.3 3 .4 3.9z"/><path d="m102.8 124.1c0-.2.1-.6.1-.8-.5-.1-1.4.1-2 .2-.3.1-.6.2-.9.2-.2.3-.2 1.3-.2 1.9v.8.7c0 .3-.1.8 0 1.1 1.1 0 1.9 0 2.9-.3.1-.4 0-1.2 0-1.7 0-.2 0-.4 0-.6 0-.5 0-1 .1-1.5z"/><path d="m93.7 138c.2.2.5.4 1.2.3 1.5-.3 2-2.3 2.2-3.9.1-1.1.1-2.2 0-2.9-.5.1-1.1.3-1.8.4-1 .2-1.9.4-2.6.4-.2 2 0 4.8 1 5.7z"/><path d="m96.2 124.1-2.1.1h-.1s0 0-.1 0c-.2 0-.2 0-.2.1-.1.1-.3.3-.4 1.2-.1 1.2-.3 3.1-.5 4.4l3.4-1.2c.1-1.3.1-3.6 0-4.6z"/><path d="m90 124.9c-.6-.5-1.5-.5-1.9-.2-.4.2-.8 1-1.1 2.1-.4 1.1-.7 2.4-.9 3.7l4.2.1c.2-1 .4-2.4.6-3 .3-1 .1-1.9-.9-2.7z"/><path d="m87 141c.3.3.6.4 1.1.3s.8-.3 1.1-.8c1.3-1.8 1.3-5.9 1.1-7.6-.9.1-2.8.4-4.6.8.1 2.1 0 6.1 1.3 7.3z"/><path d="m83.7 130.4c.6-1.5 1.8-4.9 1.2-5.6-.5-.5-2.5-.4-4.3.1l-1.1 6.7c1.5.4 3 .5 3.6.3.2-.5.4-1 .6-1.5z"/><path d="m76.2 142.3c.2.4.6.8 1.8.8 1.7 0 3-.5 3.8-1.5 1-1.3 1.2-3.3 1.1-4.9 0-.5-.1-1-.1-1.4l-5.7-.4c-.9 2.3-1.9 5.9-.9 7.4z"/><path d="m145 99.5c-6.9-3.7-13.5-5.7-15.6-6.3-5.2-1.5-4.7-9-4.3-16.3.2-2.6.3-5 .2-7.1-.4-6.8-1.5-14.3-7.1-17.7-5.9-3.6-15.6-2.8-21.6-2.1-2.2.7-4.2 1.1-5.8 1-3.5-.2-6.3-1.7-8.7-3-1.9-1-3.5-1.9-5.1-1.9-.1 0-.2 0-.3 0-4.6.3-6.8 1.4-8.7 3.2-.5.5-1.1 1.7-3 7.3-1 2.8-1.1 4.4-1.3 5.9-.2 1.4-.3 2.8-1.1 4.9-.5 1.4-.9 2.7-1.2 3.9-.9 3.2-1.7 5.7-4 8.8-.3.4-.6.9-1 1.5-.5.8-1.1 1.8-2 3-.6.8-2 3.9-1.9 4.9.1 1.5.6 2.4 1.1 3.5.6 1.1 1.2 2.3 1.3 4v.3c.2 2.7-.2 4-5.2 8.5-3.2 2.9-5.5 5.6-7.1 7.7-.2.2 0 .4.2.4h.2.3.3.3c1.2.2 2.4.7 3.3 1.5.2.2.4.2.6.1.8-.4 1.7-.3 2.6-.2 1.1.1 2.1.4 2.8 1.1.2.2.5.3.8.2.8-.2 1.7-.2 2.5.1.7.2 1.2.6 1.6 1.1.3.3.8.4 1.2.2.2-.2.5-.3.8-.4 1.1-.4 2.3-.2 3.4.2.5.2 1.1.4 1.5.7.8.6 1.4 1.4 1.7 2.4.2.5.9.7 1.3.4.8-.7 1.4-.8 2-.5.3.2.5.3.7.6.3.4.8.8 1.3.7 1.7-.5 3.8-.2 5.4.6.5.3 1.1.7 1.4 1.4l.1-.3c0-.1.1-.2.2-.3l.4-.1c.8-.3 5.1-1.5 6.8.3.1.1.2.1.3 0l.5-.5c1.1-.7 2.9-.7 4.2.4.2.2.7.1.8-.2.1-.2.2-.3.4-.5.5-.4 1-.6 1.6-.5l2.4-.1c.6 0 2.4-.2 3-.3h.2c.2 0 .5-.1.8-.2 1.1-.2 2.4-.5 3.5 0 1 .5.9 1.6.8 2.7-.1.4-.1.8-.1 1.3v.6c0 .9 0 1.7-.2 2.4l.1.5v.1c.1.5.6.7.9.5.8-.5 1.7-1.1 2-1.5 0 0 0-.1.1-.1 0-.1.1-.3.2-.7.2-.9.3-2.6.3-6.2 0-.2 0-.3 0-.4 0-1.3 0-2.4-.1-3.3-.1-2-.2-3.5.8-5.1.9-1.5 1.9-2.1 2.7-2.7 1-.7 2.2-1.4 4.1-4 .9-1.3 1.1-1.8 1.1-2.3.2-1 .5-1.6 2-2.7 1.2-.9 4.9-3.7 9.8-2.8 1.6.3 4.2 1.1 6.8 2.2.1 0 .2.1.3.1 0 0 .1 0 .1.1 2.3.9 4.6 2 6 2.8.3.2.8.1 1-.2.5-.6 1-1 1.5-1.3.2-.1.4-.2.5-.4.1 0 .1-.1.2-.1.6-.8.5-1.6.1-1.8zm-64.8-4.7c-1.6 7-12.5 14.7-17.4 14.7h-.1c-.1 0-.2 0-.3 0s-.2 0-.3-.1c-.1 0-.1 0-.2-.1-.9-.3-2.1-1-3.1-1.9-.7-.6-1.1-1.4-1.3-2.2 0-.2-.1-.3-.1-.4-.4-1.2-.8-2.7.3-5.1.2-.3.3-.6.4-.9 0-.1.1-.2.1-.3.1-.3.2-.5.3-.7.2-.4.3-.7.4-.9 0-.1.1-.2.1-.3.3-.8.3-1.1.4-1.5 0-.3.1-.6.2-1 .3-1.3.5-2.4.6-3.4.3-1.8.5-3.3 1.4-4.7.2-.2.4-.5.6-.7.1-.1.2-.1.2-.2.1-.1.2-.1.2-.2.2-.2.5-.3.8-.5.1 0 .2-.1.3-.1.2-.1.4-.1.6-.2.9-.2 1.9-.2 3.1-.1 1.3.1 2.5.4 3.6.7.9.2 1.7.5 2.4.8.1 0 .2.1.2.1.1.1.3.1.4.2.2.1.4.2.5.2.2.1.4.2.6.3l.2.1c.8.4 1.4.7 2 1.1.3.2.5.4.8.6.1.1.2.2.2.2s.2.2.2.2c2.1 2.2 2 4.7 1.7 6.3zm4.8-26.6-.2 1.3c-.5 2.9-1.6 6.8-5.7 7.8-4 1-4.9 1.2-7.7 1.3-.1 0-.1 0-.2 0-2.1 0-6-1.3-6.7-4.5-.5-2.1.5-3.6 2-6.1.3-.4.5-.8.8-1.4 2-3.4 2.8-5.8 3.4-7.8.6-1.9 1.1-3.5 2.4-4.8.3-.3.7-.6 1-.8s.5-.3.8-.5c.4-.2.8-.4 1.2-.5.9-.3 1.9-.5 2.9-.5 1.9 0 3.9.6 5.2 1.7.6.5 1.5 1.5 2 4.4.3 1.5-.1 4.3-1.2 10.4zm29.5 8.1c-1.4 2.4-2.2 3.8-3.4 4.8-2.4 2-5.3 2.5-7.6 2.5-1.7 0-3.1-.3-4-.4-2.4-.5-6.9-1.3-8.4-4.8-.3-.7-.3-1.1-.3-1.7s0-1.5-.3-3.7v-.1c-.2-1-.3-2.2 0-3.6v-.2c.8-4.3 1.1-5 1.3-5.3.5-.8 1.5-1.2 2.4-.8.8.4 1.1 1.4.8 2.3-.1.2-.3 1.1-1 4.5v.2c-.2.9-.1 1.7 0 2.5v.2c.3 2.4.3 3.5.3 4.1v.3.1c.3.7.9 1.2 1.7 1.6.5.2 1-.2.8-.8-.8-3.8-.7-8.2.7-10.9.5-.9 1.4-2.4 2.2-3.8.1-.2.2-.3.3-.4s.2-.2.2-.4c.4-.6.7-1.2 1-1.6 0-.1.1-.1.1-.2s.1-.1.1-.1c.1-.1.1-.2.2-.3 0 0 0-.1.1-.1 0-.1.1-.1.1-.1 0-.1.1-.1.1-.2.3-.4.6-.8.8-1.2.4-.5-.1-1.2-.7-.9-1.4.6-2.4 1.3-2.6 1.4-.8.6-1.8.5-2.4-.3s-.5-1.8.3-2.4c.9-.7 5.6-4.1 11.2-2.5 4 1.1 6.2 4.3 7 5.4.7.9 2.6 3.8 2.6 7.8 0 2.9-1.3 5.1-3.6 9.1z"/><path d="m76.5 124.2c-.8-.5-1.7-.6-2.6-.6-1.1 0-2.2.4-2.5.9-.6.8-.8 2-1 3.1v.3c-.4 3.8 1 8.6 1.7 10.6.9-1.1 2.4-3.3 3.6-5.8 1.1-2.3 1.9-4.7 1.8-6.5 0-1.3-.6-1.7-1-2z"/><path d="m135.8 102.7c-.3-.2-.7-.1-.9.2-1.1 1.5-2.7 4.4-3.8 6.4-.7 1.2-1.2 2.3-1.7 3.2-1.4 2.4-1.5 4.5-1.6 6.3-.1 2.2-.2 4.4-2.7 6-1.6 1.1-3.1 1.3-10.6 2.5-.9.2-1.3.3-1.7.5-.5.2-1.1.5-2.4.7-.3.1-.5.3-.7.5 0 .1 0 .1-.1.1-.6 1-2.6 2.5-4.3 3.2-.3.2-.5.5-.6.8-.1 1.2-.3 2.4-.9 3.2-.5.7-1.2 1-2.1 1.1-.1 0-.2 0-.2 0-1.6 0-2.5-.7-3-1.3-.1-.1-.1 0-.2 0-.5 1.8-1.4 3.4-3.4 3.8-.3.1-.5.1-.8.1-1 0-1.7-.5-2.1-.8-.2-.2-.5-.1-.6.2-.2.8-.5 1.5-.9 2.1-.7.9-1.5 1.4-2.5 1.5-.2 0-.3 0-.4 0-.8 0-1.6-.3-2.2-.8-.5-.5-1.8-.5-2.2.1-.1.1-.1.2-.2.3-1.2 1.4-2.9 2.2-5.2 2.2h-.2c-2 0-3-.9-3.4-1.7-.2-.3-.4-.7-.5-1.1-.2-.8-1.5-1-2.3-1-.1 0-.2 0-.2 0-.6-.1-.8-.6-.9-.9 0-.1-.2-.1-.2 0 .1.7.2 1.3.3 1.9.1.4.1 1.2-1.1 1.8-.8.4-2.3.6-3.8.6-2.9 0-6.3-.7-7.8-2.2-.4-.3-.8-.6-1.1-1.1-.4-.5-1.2-.7-1.7-.4-.7.5-1.1.6-1.4.6-.1 0-.2 0-.3 0-1.4-.2-2.3-1.5-3-3.3-.2-.4-.6-.6-1-.6-.8.1-1.6.2-2.4.2s-1.6 0-2.3-.4-1.1-1-1.4-1.7c0-.1-.1-.1-.2-.1-.1 0-.2.1-.2.1-.4.1-.8.1-1.2 0-.2 0-.4-.1-.6-.2s-.4-.2-.6-.3c-.1-.1-.3.1-.2.2v.1c4.2 9.5 6.7 15.2 12.6 18.4 2.6 1.2 6.4 1.6 14 2.5 5.5.7 9.7.6 16.6.6 6.7 0 8.7-.3 10-.6 2.2-.5 3.3-.9 4.6-1.4 1.3-.6 2.7-1.1 5.4-1.6 2.5-.5 5.5-.6 11.4-.8 3.2-.1 4.9-.1 5.9-.1 1.1 0 1.2 0 1.6-.1 4.5-1.3 7.2-5.5 9.9-9.6 2.1-3.3 3.8-5.8 4.5-9.7.4-1.9.3-3.1.1-5.1-.2-2.1-.3-4.9-.2-9.9.2-4.2.5-5.9 1.4-7.7.7-1.3 1.3-2.1 2-2.8.5-.6.9-1.1 1.3-1.8.1-.1 0-.2-.1-.3-.4-.2-2.5-1.3-5.3-2.6z"/><path d="m68.9 124.5c.1-.6.2-1.2.2-1.7-.3.3-.8.8-1.5 1.8-.5.6-1 1.4-1.6 2.3-.8 1.3-1.4 2.1-1.9 2.7-.1.1-.2.2-.2.3-.8 1.1-1.5 2-3.2 4.9-.6 1-1.1 1.7-1.6 2.4-.3.4-.5.6-.7.9-.3.5-.5.8-.4 1.1.1.9.5 1.3 1.1 1.8l.1.1c.8.8 3.4 1.5 6.1 1.6 1.9 0 3-.2 3.3-.5-.2-1.3-.4-2.7-.5-4-.4-4.5-.2-8 .1-10.6.4-1.1.5-2.2.7-3.1z"/><path d="m67.1 87.4c-.5-.1-.8-.1-1.1-.1-.8 0-1.3.2-1.5.4-.5.8-.7 1.8-.9 3.3-.2 1-.3 2.3-.7 3.7-.1.3-.1.5-.1.7-.1 1-.3 1.9-1.9 5.6-.6 1.4-.5 2.1-.3 3 .1.2.1.3.1.5.1.4 1.1 1 1.7 1.3-.5-3.1.5-5.4 1.3-7.1.3-.6.5-1 .6-1.4.2-.6.2-1.2.2-1.9 0-1.3 0-2.9 1.3-5.8.5-1.1.9-1.6 1.2-2.1 0 0 0 0 .1-.1 0 .1 0 .1 0 0z"/><path d="m64.5 121.4s-.1-.3-.2-.3c-.1-.1-.1-.2-.2-.3 0 0-.1-.1-.1-.1-.1-.1-.1-.1-.2-.2s-.1-.1-.1-.1-.1-.1-.2-.1c0 0-.1 0-.1-.1-.5-.2-1-.4-1.6-.5-.1 0-.2 0-.2 0-.1 0-.2 0-.2 0h-.1c-.1 0-.3.1-.4.1s-.1.1-.2.1-.1.1-.2.1c-.1.1-.1.1-.2.2 0 0-.1.1-.1.2v.1c-.2.3-.4.7-.6.9-.5.8-1 1.5-1.5 2.3-.5.7-.9 1.4-1.4 2.1-.2.4-.5.8-.7 1.1-.1.1-.1.1-.1.2.3.1.6.1.9.2.7.1 1.4.2 2.1.4 1.4.2 2.9.3 4.4.2h.2c.4-.5.8-1.1 1.3-1.9.3-.5.6-.8.8-1.2-.1-.2-.2-.4-.2-.7-.4-1-.6-1.9-.9-2.7z"/><path d="m59.1 129.9c-4.1 0-7-.3-8.6-1.2-.1 1.2 0 3.2.4 4.7.2.6.4 1.4.7 2.2.6 1.9 1.4 3.9 2.2 4 .2 0 1.2-.6 2.8-2.9 2-2.7 3.2-5.6 3.3-6.8-.3.1-.5 0-.8 0z"/></g></svg>