<svg width="48" height="48" viewBox="0 0 48 48" fill="none" xmlns="http://www.w3.org/2000/svg">
<path fill-rule="evenodd" clip-rule="evenodd" d="M48 24C48 37.2548 37.2548 48 24 48C10.7452 48 0 37.2548 0 24C0 10.7452 10.7452 0 24 0C37.2548 0 48 10.7452 48 24Z" fill="#E84142"/>
<path fill-rule="evenodd" clip-rule="evenodd" d="M17.1992 33.5503H12.5415C11.5628 33.5503 11.0793 33.5503 10.7845 33.3616C10.4662 33.1552 10.2716 32.8133 10.248 32.436C10.2303 32.0881 10.472 31.6636 10.9555 30.8146L22.456 10.5434C22.9453 9.68256 23.193 9.25219 23.5055 9.09298C23.8415 8.92205 24.2425 8.92205 24.5785 9.09298C24.891 9.25219 25.1387 9.68256 25.628 10.5434L27.9922 14.6705L28.0043 14.6915C28.5329 15.615 28.8009 16.0833 28.9179 16.5748C29.0476 17.1114 29.0476 17.6773 28.9179 18.2139C28.8 18.7092 28.5346 19.1808 27.9981 20.1183L21.9572 30.7969L21.9416 30.8243C21.4095 31.7554 21.1399 32.2272 20.7662 32.5834C20.3594 32.9725 19.8701 33.2555 19.3335 33.4147C18.8442 33.5503 18.2959 33.5503 17.1992 33.5503Z" fill="white"/>
<path fill-rule="evenodd" clip-rule="evenodd" d="M28.9614 33.5508H35.6356C36.6202 33.5508 37.1154 33.5508 37.4102 33.3563C37.7286 33.1499 37.929 32.802 37.9468 32.4247C37.9638 32.0883 37.7273 31.6802 37.2639 30.8806C37.2481 30.8533 37.232 30.8256 37.2156 30.7974L33.8727 25.0785L33.8346 25.0141C33.3649 24.2197 33.1276 23.8185 32.8232 23.6635C32.4872 23.4925 32.0922 23.4925 31.7561 23.6635C31.4495 23.8226 31.2018 24.2413 30.7125 25.0843L27.3814 30.8033L27.3699 30.823C26.8823 31.6648 26.6386 32.0854 26.6562 32.4306C26.6798 32.808 26.8743 33.1558 27.1927 33.3621C27.4816 33.5508 27.9768 33.5508 28.9614 33.5508Z" fill="white"/>
</svg>
