<svg fill="none" height="25" viewBox="0 0 24 25" width="24" xmlns="http://www.w3.org/2000/svg"><path d="m0 12c0 3.1826 1.26428 6.2348 3.51472 8.4853 2.25043 2.2504 5.30268 3.5147 8.48528 3.5147s6.2348-1.2643 8.4853-3.5147c2.2504-2.2505 3.5147-5.3027 3.5147-8.4853s-1.2643-6.23485-3.5147-8.48528c-2.2505-2.25044-5.3027-3.51472-8.4853-3.51472s-6.23485 1.26428-8.48528 3.51472c-2.25044 2.25043-3.51472 5.30268-3.51472 8.48528z" fill="#f0b90b"/><path d="m8.77806 10.6684-1.85969-1.83294 5.00123-4.91709 4.9707 4.88648-1.7793 1.83295-3.1646-3.1378zm0 2.7474-1.85969 1.8329 5.00123 4.9171 4.9707-4.8903-1.7793-1.8329-3.1646 3.1416zm-4.9857-1.4214 1.78309-1.7831 1.78309 1.7831-1.78309 1.7831zm12.72714.0005 1.7831-1.7831 1.7831 1.7831-1.7831 1.7831z" fill="#fff"/><path d="m10.1671 11.9939 1.7831-1.7831 1.7831 1.7831-1.7831 1.7831z" fill="#fff"/><path d="m12 24.0375c6.6274 0 12-5.3726 12-12 0-6.62742-5.3726-12.0000015-12-12.0000015-6.62742 0-12 5.3725815-12 12.0000015 0 6.6274 5.37258 12 12 12z" fill="#f0b90b"/><path d="m7.7252 6.51393 4.227-2.46051 4.227 2.46051-1.554.90897-2.673-1.55152-2.67295 1.55152zm8.454 3.10305-1.554-.90898-2.673 1.5515-2.67295-1.5515-1.55405.90898v1.81792l2.673 1.5516v3.103l1.554.909 1.5541-.909v-3.103l2.6729-1.5516zm0 4.92102v-1.818l-1.554.909v1.8179zm1.1034.6425-2.6729 1.5515v1.818l4.227-2.4605v-4.921l-1.5541.909zm-1.554-7.11505 1.554.90897v1.81798l1.5541-.909v-1.81795l-1.5541-.90897zm-5.3304 9.32485v1.8179l1.554.909 1.5541-.909v-1.8179l-1.5541.9089zm-2.673-2.8523 1.55405.9089v-1.8179l-1.55405-.909zm2.673-6.47255 1.554.90897 1.5541-.90897-1.5541-.90897zm-3.7764.90897 1.55405-.90897-1.55405-.90897-1.55405.90897v1.81795l1.55405.909zm0 3.10308-1.55405-.909v4.921l4.22703 2.4605v-1.818l-2.67298-1.5515z" fill="#fff"/></svg>