<svg width="640" height="640" viewBox="0 0 640 640" fill="none" xmlns="http://www.w3.org/2000/svg">
<path d="M630.42 397.412C587.676 568.84 414.028 673.168 242.56 630.42C71.162 587.68 -33.1789 414.04 9.58564 242.624C52.31 71.1752 225.959 -33.1637 397.377 9.57587C568.836 52.3156 673.168 225.974 630.42 397.412Z" fill="#F7931A"/>
<path fill-rule="evenodd" clip-rule="evenodd" d="M390.216 193.807L404.614 135.792L369.46 126.991L355.442 183.477C346.2 181.164 336.708 178.981 327.276 176.819L341.396 119.961L306.261 111.16L291.852 169.154C268.112 163.724 244.562 157.525 220.964 151.513L211.612 189.23C211.612 189.23 237.694 195.235 237.144 195.607C251.382 199.177 253.954 208.642 253.524 216.145L214.075 375.071C212.333 379.416 207.917 385.934 197.964 383.459C198.316 383.973 172.411 377.053 172.411 377.053L154.96 417.476C178.582 423.391 202.186 429.358 225.768 435.429L211.222 494.107L246.335 502.908L260.743 444.853C270.335 447.468 279.648 449.882 288.759 452.155L274.402 509.939L309.556 518.74L324.102 460.171C384.048 471.567 429.126 466.971 448.099 412.507C463.388 368.654 447.339 343.359 415.798 326.863C438.767 321.543 456.069 306.365 460.685 275.015C467.064 232.187 434.602 209.165 390.216 193.807ZM272.167 402.359L291.472 324.621C322.783 332.476 391.993 341.316 380.364 388.157C369.365 432.55 301.813 409.751 272.167 402.359ZM300.304 289.035L317.806 218.529C345.34 225.425 401.249 234.033 391.239 274.381C381.511 313.524 326.942 295.702 300.304 289.035Z" fill="white"/>
</svg>
