<svg width="48" height="48" viewBox="0 0 48 48" fill="none" xmlns="http://www.w3.org/2000/svg">
<circle cx="24" cy="24" r="24" fill="#0033AD"/>
<path d="M16.7681 23.8871C16.6998 25.0941 17.6081 26.129 18.7977 26.1995H18.9154C20.0888 26.1982 21.0454 25.2443 21.067 24.054C21.0886 22.8636 20.1673 21.8746 18.9947 21.8295C17.8221 21.7844 16.8295 22.6997 16.7622 23.8883L16.7681 23.8871Z" fill="white"/>
<path d="M8.73465 23.3329C8.35114 23.3111 8.02279 23.6088 8.00113 23.9979C7.97947 24.387 8.2727 24.7203 8.65619 24.7425C9.03969 24.7647 9.36833 24.4673 9.39038 24.0782C9.4013 23.8911 9.33826 23.7072 9.21519 23.5673C9.09212 23.4274 8.91919 23.3431 8.73465 23.3329Z" fill="white"/>
<path d="M16.6317 11.2011C16.9732 11.0232 17.1085 10.5985 16.9344 10.2514C16.7603 9.90424 16.3423 9.76534 15.9995 9.94073C15.6567 10.1161 15.5183 10.5397 15.6899 10.8882C15.7733 11.0569 15.9197 11.1848 16.0965 11.2436C16.2734 11.3024 16.466 11.2871 16.6317 11.2011Z" fill="white"/>
<path d="M18.8177 15.0687C19.3482 14.7972 19.5614 14.1408 19.2939 13.6025C19.0264 13.0642 18.3795 12.8478 17.8489 13.119C17.3183 13.3902 17.1048 14.0465 17.372 14.5849C17.5004 14.8437 17.7249 15.04 17.9961 15.1307C18.2672 15.2215 18.5628 15.1991 18.8177 15.0687Z" fill="white"/>
<path d="M11.461 17.7286C11.7607 17.9286 12.1496 17.9256 12.4462 17.7211C12.7429 17.5166 12.8889 17.1509 12.8161 16.7946C12.7433 16.4383 12.4661 16.1616 12.1137 16.0936C11.7614 16.0256 11.4034 16.1797 11.2067 16.4841C10.9386 16.8991 11.0524 17.456 11.461 17.7286Z" fill="white"/>
<path d="M12.7714 22.9352C12.1783 22.9012 11.6702 23.3614 11.6365 23.9633C11.6028 24.5651 12.0563 25.0807 12.6494 25.1151C13.2426 25.1495 13.7509 24.6896 13.785 24.0878C13.8185 23.4856 13.3649 22.9698 12.7714 22.9352Z" fill="white"/>
<path d="M11.5791 30.2749C11.1422 30.499 10.967 31.0398 11.1877 31.4831C11.4083 31.9264 11.9413 32.1044 12.3783 31.8806C12.8153 31.6569 12.9909 31.1161 12.7705 30.6727C12.6646 30.4596 12.4795 30.2979 12.256 30.2233C12.0326 30.1487 11.789 30.1673 11.5791 30.2749Z" fill="white"/>
<path d="M15.7618 20.6789C16.3469 21.0679 17.1321 20.9021 17.5156 20.3085C17.8991 19.7149 17.7357 18.9183 17.1507 18.5292C16.5657 18.14 15.7805 18.3057 15.3969 18.8992C15.2123 19.1842 15.147 19.532 15.2155 19.8658C15.284 20.1997 15.4805 20.4922 15.7618 20.6789Z" fill="white"/>
<path d="M29.0316 14.9827C29.5298 15.3124 30.197 15.17 30.5221 14.6647C30.8473 14.1594 30.7072 13.4823 30.2092 13.1523C29.7112 12.8223 29.0439 12.9642 28.7185 13.4693C28.5617 13.712 28.5067 14.008 28.5654 14.292C28.6242 14.5759 28.7919 14.8244 29.0316 14.9827Z" fill="white"/>
<path d="M31.2402 11.1271C31.4761 11.2839 31.7818 11.2811 32.0148 11.12C32.2478 10.9589 32.3622 10.6712 32.3045 10.3912C32.2469 10.1111 32.0286 9.8939 31.7516 9.84085C31.4745 9.78779 31.1932 9.90936 31.0389 10.1488C30.8285 10.4754 30.9186 10.9132 31.2402 11.1271Z" fill="white"/>
<path d="M29.201 21.8064C28.0128 21.7372 26.9942 22.6583 26.926 23.8638C26.8577 25.0694 27.7656 26.1028 28.9538 26.1721C28.995 26.1721 29.0374 26.1721 29.0786 26.1721C29.9277 26.1716 30.6973 25.6652 31.0441 24.8789C31.3908 24.0925 31.2499 23.1728 30.6843 22.5303C30.3056 22.0969 29.7711 21.8361 29.201 21.8064Z" fill="white"/>
<path d="M19.5251 20.5272C19.8899 21.2667 20.6361 21.7326 21.4511 21.73C22.2002 21.7302 22.8956 21.3358 23.2879 20.6883C23.6802 20.0409 23.7131 19.2333 23.3747 18.5552C23.0074 17.8192 22.2619 17.3568 21.4488 17.3608C20.7021 17.3621 20.0092 17.7553 19.6174 18.4002C19.2257 19.0451 19.1907 19.8498 19.5251 20.5272Z" fill="white"/>
<path d="M36.4189 17.7263C36.8558 17.5026 37.0314 16.9619 36.8111 16.5185C36.5908 16.0751 36.058 15.8967 35.6209 16.12C35.1837 16.3432 35.0076 16.8837 35.2275 17.3273C35.4481 17.771 35.9813 17.9496 36.4189 17.7263Z" fill="white"/>
<path d="M30.955 18.4226C30.3302 18.7419 30.0788 19.5146 30.3935 20.1486C30.7082 20.7825 31.4698 21.0376 32.0946 20.7183C32.7194 20.399 32.9708 19.6263 32.6561 18.9924C32.5053 18.6877 32.2412 18.4564 31.922 18.3496C31.6029 18.2427 31.255 18.269 30.955 18.4226Z" fill="white"/>
<path d="M23.9176 10.7974C24.2757 10.8181 24.6107 10.6179 24.7665 10.2902C24.9223 9.96244 24.8681 9.57178 24.6293 9.30039C24.3904 9.029 24.0139 8.93035 23.6754 9.05045C23.3369 9.17055 23.1031 9.48575 23.083 9.84901C23.0555 10.3447 23.4291 10.7692 23.9176 10.7974Z" fill="white"/>
<path d="M23.9082 16.4578C24.6065 16.4975 25.2043 15.9555 25.2438 15.2471C25.2833 14.5387 24.7494 13.9318 24.0511 13.8915C23.3529 13.8511 22.7546 14.3925 22.7145 15.1009C22.675 15.81 23.2093 16.4174 23.9082 16.4578Z" fill="white"/>
<path d="M17.045 29.5774C17.5025 29.3434 17.776 28.8527 17.738 28.3343C17.6999 27.8159 17.3577 27.3718 16.8711 27.2091C16.3844 27.0465 15.8491 27.1973 15.5148 27.5913C15.1805 27.9852 15.113 28.5447 15.3439 29.0088C15.659 29.6423 16.4205 29.8968 17.045 29.5774Z" fill="white"/>
<path d="M24.7265 18.333C24.186 19.1699 24.2745 20.2723 24.9414 21.0093C25.6084 21.7463 26.6834 21.9298 27.5513 21.4548C28.4192 20.9797 28.8584 19.9675 28.6175 18.9972C28.3767 18.027 27.5173 17.3465 26.5312 17.3452C25.8039 17.3447 25.1254 17.7161 24.7265 18.333Z" fill="white"/>
<path d="M28.4722 27.474C27.9945 26.513 26.8984 26.0478 25.8886 26.3775C24.8787 26.7073 24.2558 27.7338 24.4203 28.7971C24.5848 29.8605 25.4877 30.644 26.5486 30.644C26.8858 30.6417 27.2179 30.5599 27.5186 30.4051C28.5778 29.8612 29.0041 28.5508 28.4722 27.474Z" fill="white"/>
<path d="M32.2374 27.3211C31.6526 26.9316 30.8672 27.0968 30.4833 27.6902C30.0994 28.2835 30.2623 29.0803 30.8471 29.4699C31.4319 29.8594 32.2173 29.6942 32.6012 29.1008C32.9837 28.5072 32.8211 27.7114 32.2374 27.3211Z" fill="white"/>
<path d="M36.3623 24.0376C36.3957 23.4358 35.9421 22.9203 35.3489 22.8862C34.7558 22.852 34.2476 23.312 34.2137 23.9138C34.1798 24.5156 34.6331 25.0314 35.2262 25.066C35.8197 25.1 36.3281 24.6397 36.3623 24.0376Z" fill="white"/>
<path d="M39.343 23.2601C39.0615 23.2436 38.7981 23.4008 38.6754 23.6583C38.5527 23.9158 38.5951 24.2229 38.7826 24.4364C38.9702 24.65 39.266 24.7278 39.5322 24.6337C39.7984 24.5396 39.9825 24.2921 39.9987 24.0066C40.0201 23.617 39.7269 23.2831 39.343 23.2601Z" fill="white"/>
<path d="M36.5368 30.2714C36.1274 29.9992 35.578 30.1154 35.3097 30.5307C35.0414 30.9461 35.1557 31.5035 35.565 31.7759C35.9743 32.0482 36.5238 31.9324 36.7923 31.5171C36.9213 31.3176 36.9669 31.0742 36.919 30.8405C36.8711 30.6069 36.7336 30.4021 36.5368 30.2714Z" fill="white"/>
<path d="M16.7586 36.873C16.4368 36.6587 16.0048 36.7497 15.7936 37.0761C15.5824 37.4025 15.672 37.8409 15.9937 38.0552C16.3153 38.2695 16.7474 38.1787 16.9587 37.8524C17.0602 37.6956 17.0962 37.5043 17.0586 37.3206C17.0211 37.1369 16.9132 36.9759 16.7586 36.873Z" fill="white"/>
<path d="M31.3662 36.7989C31.1144 36.9277 30.9639 37.1976 30.9848 37.4828C31.0058 37.768 31.194 38.0124 31.4617 38.1019C31.7295 38.1914 32.024 38.1085 32.2079 37.8918C32.3919 37.6751 32.4291 37.3672 32.3021 37.1119C32.2191 36.9442 32.0737 36.817 31.8981 36.7583C31.7225 36.6996 31.5311 36.7142 31.3662 36.7989Z" fill="white"/>
<path d="M23.2715 29.6634C23.812 28.8264 23.7234 27.7239 23.0563 26.9869C22.3892 26.2499 21.314 26.0666 20.4461 26.5419C19.5783 27.0172 19.1393 28.0298 19.3806 29.0001C19.6219 29.9703 20.4817 30.6504 21.4679 30.6512C22.1954 30.6537 22.8744 30.2818 23.2715 29.6634Z" fill="white"/>
<path d="M18.966 33.0185C18.4688 32.6885 17.8021 32.8298 17.4767 33.3341C17.1512 33.8385 17.2903 34.515 17.7873 34.8453C18.2842 35.1756 18.951 35.0348 19.2768 34.5307C19.6021 34.026 19.463 33.3492 18.966 33.0185Z" fill="white"/>
<path d="M23.9896 37.2026C23.5008 37.1744 23.0821 37.5534 23.0542 38.0493C23.0263 38.5451 23.3998 38.9701 23.8885 38.9985C24.3772 39.0269 24.7961 38.648 24.8242 38.1522C24.8377 37.9139 24.7574 37.68 24.6008 37.5019C24.4443 37.3238 24.2244 37.2161 23.9896 37.2026Z" fill="white"/>
<path d="M23.9989 31.5434C23.487 31.5119 23.0069 31.7965 22.7827 32.2645C22.5586 32.7324 22.6346 33.2913 22.9753 33.6802C23.316 34.069 23.8542 34.2111 24.3385 34.04C24.8228 33.869 25.1576 33.4185 25.1867 32.8991C25.2269 32.1922 24.6955 31.5857 23.9989 31.5434Z" fill="white"/>
<path d="M29.1801 32.9314C28.7914 33.1315 28.5599 33.5496 28.5936 33.9905C28.6273 34.4315 28.9196 34.8083 29.3342 34.9452C29.7487 35.0821 30.2036 34.952 30.4867 34.6157C30.7698 34.2793 30.8251 33.8031 30.627 33.4091C30.4978 33.1509 30.2726 32.9554 30.0012 32.8658C29.7298 32.7762 29.4344 32.7998 29.1801 32.9314Z" fill="white"/>
</svg>
