<svg width="48" height="48" viewBox="0 0 48 48" fill="none" xmlns="http://www.w3.org/2000/svg">
<circle cx="24" cy="24" r="24" fill="#002D72"/>
<path fill-rule="evenodd" clip-rule="evenodd" d="M24.9999 8L11 15.9996V31.9994L24.9999 40L38.9998 31.9994V15.9996L24.9999 8ZM24.9999 9L12 16.9996V30.9994L24.9999 39L37.9998 30.9994V16.9996L24.9999 9ZM30.2161 15H19.7476L18.5331 20.3099H31.4782L30.2161 15ZM21.6222 21.112L22.7639 24.0776L22.4154 27.4027H24.9996L27.6079 27.3906L27.2834 24.0776L28.401 21.112H21.6222ZM26.0938 29.8546V30.9066L28.3529 32.976H30.2395L35 24.7238L31.5023 22.1048L28.4372 24.0895V27.6182L26.0938 29.8546ZM18.5089 22.1286L15 24.7238L19.7831 33H21.6946L23.9535 30.9066V29.8546L21.6101 27.6182V24.0895L18.5089 22.1286Z" fill="white"/>
</svg>
