<svg width="48" height="48" viewBox="0 0 48 48" fill="none" xmlns="http://www.w3.org/2000/svg">
<circle cx="24" cy="24" r="24" fill="#1969FF"/>
<path fill-rule="evenodd" clip-rule="evenodd" d="M22.5727 8.30653C23.3736 7.89782 24.5921 7.89782 25.393 8.30653L33.565 12.4771C34.0473 12.7232 34.3122 13.09 34.3596 13.4687H34.3674V34.4319C34.3568 34.8449 34.0894 35.2552 33.565 35.5229L25.393 39.6934C24.5921 40.1022 23.3736 40.1022 22.5727 39.6934L14.4007 35.5229C13.8785 35.2564 13.6279 34.8432 13.6154 34.4319C13.6142 34.3914 13.6141 34.3577 13.6152 34.3297L13.6152 13.6033C13.6144 13.5806 13.6143 13.5579 13.615 13.5354L13.6154 13.4687L13.6191 13.4686C13.6554 13.0858 13.9083 12.7284 14.4007 12.4771L22.5727 8.30653ZM33.0809 25.164L25.393 29.0875C24.5921 29.4962 23.3736 29.4962 22.5727 29.0875L14.9015 25.1727V34.3904L22.5727 38.2847C23.0059 38.5084 23.4555 38.7264 23.8951 38.7542L23.9829 38.7569C24.4133 38.7583 24.8319 38.56 25.2549 38.3596L25.3367 38.3209L33.0809 34.3569V25.164ZM12.5747 35.6792C12.3829 35.3072 12.2863 34.7792 12.2863 33.9762H11L11.0001 34.0319C11.0093 35.8662 11.4722 36.7477 12.7136 37.5564C12.8298 37.6322 12.9543 37.7089 13.1045 37.7987L13.1918 37.8504L13.7113 38.1537L14.3771 37.0902L13.9129 36.8194L13.7617 36.7299C13.6336 36.6534 13.5283 36.5882 13.4327 36.5259L13.4078 36.5097C12.9722 36.2229 12.7337 35.9874 12.5747 35.6792ZM23.3395 19.5452C23.28 19.5649 23.2243 19.5878 23.1734 19.6137L15.0015 23.7842C14.9929 23.7886 14.9847 23.7929 14.9769 23.7972L14.97 23.8011L14.9828 23.8082L15.0015 23.818L23.1734 27.9885C23.2243 28.0145 23.28 28.0373 23.3395 28.057V19.5452ZM24.6262 28.057V19.5452C24.6857 19.5649 24.7414 19.5878 24.7923 19.6137L32.9642 23.7842L32.9828 23.794L32.9957 23.8011L32.9888 23.805C32.981 23.8093 32.9728 23.8136 32.9642 23.818L24.7923 27.9885C24.7414 28.0145 24.6857 28.0373 24.6262 28.057ZM33.0809 14.9557L25.7502 18.697L33.0809 22.4382V14.9557ZM14.9015 22.4295V14.9645L22.2153 18.697L14.9015 22.4295ZM24.7923 9.40554C24.3673 9.18866 23.5984 9.18866 23.1734 9.40554L15.0015 13.5761C14.9929 13.5805 14.9847 13.5848 14.9769 13.5891L14.97 13.5929L14.9828 13.6L15.0015 13.6098L23.1734 17.7804C23.5984 17.9972 24.3673 17.9972 24.7923 17.7804L32.9642 13.6098C32.9728 13.6054 32.981 13.6011 32.9888 13.5968L32.9957 13.5929L32.9828 13.5858L32.9642 13.5761L24.7923 9.40554ZM34.8082 10.1661L34.2887 9.86288L33.6229 10.9263L34.0871 11.197L34.2383 11.2864C34.3664 11.3631 34.4717 11.4283 34.5673 11.4906L34.5922 11.5069C35.0278 11.7935 35.2663 12.0291 35.4253 12.3374C35.6171 12.7093 35.7137 13.2372 35.7137 14.0404H37L36.9997 13.9845C36.9907 12.1504 36.5278 11.2687 35.2864 10.4601C35.1702 10.3844 35.0457 10.3075 34.8955 10.2179L34.8082 10.1661Z" fill="white"/>
</svg>
