<svg width="48" height="48" viewBox="0 0 48 48" fill="none" xmlns="http://www.w3.org/2000/svg">
<circle cx="24" cy="24" r="24" fill="#F7F9FB"/>
<path d="M38.4173 9L25.9165 18.375L28.2411 12.85L38.4173 9Z" fill="#E17726" stroke="#E17726" stroke-width="0.25" stroke-linecap="round" stroke-linejoin="round"/>
<path d="M9.58252 9L21.972 18.4625L19.7588 12.85L9.58252 9Z" fill="#E27625" stroke="#E27625" stroke-width="0.25" stroke-linecap="round" stroke-linejoin="round"/>
<path d="M33.9164 30.7374L30.5903 35.8874L37.7124 37.8749L39.7527 30.8499L33.9164 30.7374Z" fill="#E27625" stroke="#E27625" stroke-width="0.25" stroke-linecap="round" stroke-linejoin="round"/>
<path d="M8.25977 30.8499L10.2876 37.8749L17.3974 35.8874L14.0836 30.7374L8.25977 30.8499Z" fill="#E27625" stroke="#E27625" stroke-width="0.25" stroke-linecap="round" stroke-linejoin="round"/>
<path d="M17.014 22.0375L15.0356 25.0625L22.0836 25.3875L21.8487 17.7L17.014 22.0375Z" fill="#E27625" stroke="#E27625" stroke-width="0.25" stroke-linecap="round" stroke-linejoin="round"/>
<path d="M30.986 22.0376L26.0773 17.6126L25.9165 25.3876L32.9644 25.0626L30.986 22.0376Z" fill="#E27625" stroke="#E27625" stroke-width="0.25" stroke-linecap="round" stroke-linejoin="round"/>
<path d="M17.3975 35.8874L21.6633 33.7999L17.991 30.8999L17.3975 35.8874Z" fill="#E27625" stroke="#E27625" stroke-width="0.25" stroke-linecap="round" stroke-linejoin="round"/>
<path opacity="0.8" d="M26.3369 33.7999L30.5903 35.8874L30.0092 30.8999L26.3369 33.7999Z" fill="#E27625" stroke="#E27625" stroke-width="0.25" stroke-linecap="round" stroke-linejoin="round"/>
<path d="M30.5903 35.8876L26.3369 33.8001L26.6831 36.6001L26.646 37.7876L30.5903 35.8876Z" fill="#D5BFB2" stroke="#D5BFB2" stroke-width="0.25" stroke-linecap="round" stroke-linejoin="round"/>
<path d="M17.3975 35.8876L21.3542 37.7876L21.3295 36.6001L21.6633 33.8001L17.3975 35.8876Z" fill="#D5BFB2" stroke="#D5BFB2" stroke-width="0.25" stroke-linecap="round" stroke-linejoin="round"/>
<path d="M21.428 29.0499L17.8916 28L20.3893 26.8375L21.428 29.0499Z" fill="#233447" stroke="#233447" stroke-width="0.25" stroke-linecap="round" stroke-linejoin="round"/>
<path d="M26.5718 29.0499L27.6105 26.8375L30.1205 28L26.5718 29.0499Z" fill="#233447" stroke="#233447" stroke-width="0.25" stroke-linecap="round" stroke-linejoin="round"/>
<path d="M17.3972 35.8874L18.0155 30.7374L14.0835 30.8499L17.3972 35.8874Z" fill="#CC6228" stroke="#CC6228" stroke-width="0.25" stroke-linecap="round" stroke-linejoin="round"/>
<path d="M29.9844 30.7374L30.5903 35.8874L33.9164 30.8499L29.9844 30.7374Z" fill="#CC6228" stroke="#CC6228" stroke-width="0.25" stroke-linecap="round" stroke-linejoin="round"/>
<path d="M32.9644 25.0624L25.9165 25.3874L26.5718 29.05L27.6105 26.8374L30.1205 27.9999L32.9644 25.0624Z" fill="#CC6228" stroke="#CC6228" stroke-width="0.25" stroke-linecap="round" stroke-linejoin="round"/>
<path d="M17.8919 27.9999L20.3896 26.8374L21.4282 29.05L22.0836 25.3874L15.0356 25.0624L17.8919 27.9999Z" fill="#CC6228" stroke="#CC6228" stroke-width="0.25" stroke-linecap="round" stroke-linejoin="round"/>
<path d="M15.0356 25.0624L17.9908 30.8999L17.8919 27.9999L15.0356 25.0624Z" fill="#E27525" stroke="#E27525" stroke-width="0.25" stroke-linecap="round" stroke-linejoin="round"/>
<path d="M30.1205 27.9999L30.0093 30.8999L32.9645 25.0624L30.1205 27.9999Z" fill="#E27525" stroke="#E27525" stroke-width="0.25" stroke-linecap="round" stroke-linejoin="round"/>
<path d="M22.0836 25.3874L21.4282 29.05L22.2567 33.3749L22.4422 27.6749L22.0836 25.3874Z" fill="#E27525" stroke="#E27525" stroke-width="0.25" stroke-linecap="round" stroke-linejoin="round"/>
<path d="M25.9166 25.3874L25.5703 27.6625L25.7434 33.3749L26.5719 29.05L25.9166 25.3874Z" fill="#E27525" stroke="#E27525" stroke-width="0.25" stroke-linecap="round" stroke-linejoin="round"/>
<path d="M26.5721 29.05L25.7437 33.375L26.3372 33.8L30.0095 30.9L30.1208 28L26.5721 29.05Z" fill="#F5841F" stroke="#F5841F" stroke-width="0.25" stroke-linecap="round" stroke-linejoin="round"/>
<path d="M17.8916 28L17.9906 30.9L21.6629 33.8L22.2564 33.375L21.428 29.05L17.8916 28Z" fill="#F5841F" stroke="#F5841F" stroke-width="0.25" stroke-linecap="round" stroke-linejoin="round"/>
<path d="M26.6463 37.7875L26.6833 36.6L26.3619 36.3249H21.6386L21.3295 36.6L21.3542 37.7875L17.3975 35.8875L18.7823 37.0374L21.5891 39H26.399L29.2181 37.0374L30.5906 35.8875L26.6463 37.7875Z" fill="#C0AC9D" stroke="#C0AC9D" stroke-width="0.25" stroke-linecap="round" stroke-linejoin="round"/>
<path d="M26.3368 33.7999L25.7433 33.375H22.2564L21.663 33.7999L21.3291 36.6L21.6382 36.325H26.3616L26.6831 36.6L26.3368 33.7999Z" fill="#161616" stroke="#161616" stroke-width="0.25" stroke-linecap="round" stroke-linejoin="round"/>
<path d="M38.9489 18.9875L40 13.8125L38.4172 9L26.3369 18.0625L30.986 22.0375L37.5517 23.975L38.9984 22.2625L38.3678 21.8L39.3693 20.875L38.6027 20.275L39.6043 19.5L38.9489 18.9875Z" fill="#763E1A" stroke="#763E1A" stroke-width="0.25" stroke-linecap="round" stroke-linejoin="round"/>
<path d="M8 13.8125L9.06337 18.9875L8.38331 19.5L9.39722 20.275L8.6306 20.875L9.63215 21.8L9.00154 22.2625L10.4482 23.975L17.014 22.0375L21.663 18.0625L9.58269 9L8 13.8125Z" fill="#763E1A" stroke="#763E1A" stroke-width="0.25" stroke-linecap="round" stroke-linejoin="round"/>
<path d="M37.5518 23.9749L30.9861 22.0375L32.9645 25.0625L30.0093 30.8999L33.9165 30.85H39.7527L37.5518 23.9749Z" fill="#F5841F" stroke="#F5841F" stroke-width="0.25" stroke-linecap="round" stroke-linejoin="round"/>
<path d="M17.014 22.0375L10.4483 23.9749L8.25977 30.85H14.0836L17.9908 30.8999L15.0357 25.0625L17.014 22.0375Z" fill="#F5841F" stroke="#F5841F" stroke-width="0.25" stroke-linecap="round" stroke-linejoin="round"/>
<path d="M25.9164 25.3875L26.3368 18.0624L28.241 12.85H19.7588L21.6629 18.0624L22.0833 25.3875L22.2441 27.6875L22.2565 33.375H25.7433L25.7557 27.6875L25.9164 25.3875Z" fill="#F5841F" stroke="#F5841F" stroke-width="0.25" stroke-linecap="round" stroke-linejoin="round"/>
</svg>
