<svg width="48" height="48" viewBox="0 0 48 48" fill="none" xmlns="http://www.w3.org/2000/svg">
<circle cx="24" cy="24" r="24" fill="#0657F9"/>
<path fill-rule="evenodd" clip-rule="evenodd" d="M21.5401 23.3978V20.9651C19.6919 20.0458 18.4194 18.1225 18.4194 15.8989C18.4194 12.7835 20.9181 10.257 24.0001 10.257C27.4605 10.257 29.9593 12.7835 29.9593 15.8989C29.9593 16.6843 29.7995 17.4322 29.4166 18.3209L28.4325 15.086L26.4599 15.7095L28.2092 22.4417L35 19.9156L34.1746 17.9466L31.642 18.8231C32.1003 17.8182 32.1904 17.0792 32.1904 15.8989C32.1904 11.5365 28.693 8 24.0001 8C19.6857 8 16.1882 11.5365 16.1882 15.8989C16.1882 19.3921 18.4314 22.3556 21.5401 23.3978ZM22.8475 13.8214H25.152V34.178H22.8475V13.8214ZM26.4599 27.0349V24.602C29.5684 25.6446 31.8118 28.6078 31.8118 32.1011C31.8118 36.4635 28.3142 40 23.9999 40C19.307 40 15.8095 36.4635 15.8095 32.1011C15.8095 30.9206 15.8996 30.1818 16.3579 29.177L13.8253 30.0533L13 28.0848L19.7908 25.5583L21.5399 32.2905L19.5674 32.914L18.5833 29.6791C18.2003 30.5678 18.0407 31.3157 18.0407 32.1011C18.0407 35.2165 20.5395 37.7431 23.9999 37.7431C27.0819 37.7431 29.5805 35.2165 29.5805 32.1011C29.5805 29.8775 28.3081 27.9546 26.4599 27.0349Z" fill="white"/>
</svg>
