<svg xmlns="http://www.w3.org/2000/svg" width="640" height="640" fill="none" viewBox="0 0 640 640"><path fill="#0033AD" d="M175.365 317.46C174.709 328.887 178.616 340.106 186.227 348.653C193.838 357.2 204.531 362.376 215.957 363.044H218.311C226.726 363.034 234.953 360.562 241.979 355.93C249.004 351.299 254.52 344.712 257.845 336.982C261.17 329.252 262.158 320.718 260.689 312.433C259.22 304.148 255.357 296.474 249.577 290.359C243.797 284.243 236.352 279.955 228.163 278.021C219.973 276.088 211.397 276.595 203.492 279.48C195.588 282.365 188.701 287.501 183.681 294.254C178.662 301.008 175.73 309.083 175.247 317.484L175.365 317.46Z"/><path fill="#0033AD" d="M14.6927 306.536C11.9458 306.382 9.21489 307.046 6.8452 308.444C4.47552 309.842 2.57339 311.911 1.37919 314.389C0.184996 316.868 -0.247659 319.645 0.135901 322.369C0.519462 325.093 1.70202 327.643 3.53414 329.695C5.36625 331.748 7.76568 333.211 10.4292 333.901C13.0927 334.59 15.9008 334.474 18.4985 333.568C21.0962 332.662 23.367 331.006 25.0239 328.809C26.6808 326.613 27.6494 323.975 27.8073 321.228C27.9154 319.401 27.6616 317.571 27.0603 315.842C26.459 314.114 25.5221 312.521 24.3034 311.156C23.0848 309.791 21.6084 308.68 19.9591 307.887C18.3098 307.094 16.52 306.635 14.6927 306.536Z"/><path fill="#0033AD" d="M172.634 67.3886C175.08 66.1322 177.1 64.1802 178.44 61.7781C179.779 59.3761 180.378 56.6315 180.162 53.8898C179.945 51.1481 178.921 48.5319 177.221 46.3704C175.52 44.2089 173.218 42.5989 170.605 41.7429C167.991 40.8869 165.182 40.8233 162.533 41.56C159.883 42.2967 157.51 43.8008 155.713 45.8831C153.917 47.9653 152.776 50.5325 152.435 53.2616C152.094 55.9906 152.568 58.7596 153.798 61.2198C154.624 62.8665 155.768 64.3334 157.164 65.5359C158.56 66.7385 160.18 67.6528 161.931 68.2262C163.682 68.7997 165.529 69.0209 167.366 68.8771C169.203 68.7334 170.993 68.2275 172.634 67.3886Z"/><path fill="#0033AD" d="M216.356 143.627C220.156 141.711 223.302 138.71 225.396 135.006C227.491 131.302 228.44 127.059 228.124 122.816C227.809 118.572 226.241 114.517 223.621 111.163C221.001 107.81 217.446 105.309 213.404 103.976C209.363 102.643 205.017 102.538 200.916 103.675C196.815 104.812 193.143 107.139 190.364 110.362C187.585 113.585 185.825 117.56 185.305 121.784C184.785 126.007 185.529 130.291 187.443 134.092C188.714 136.617 190.471 138.867 192.612 140.713C194.754 142.559 197.238 143.965 199.923 144.851C202.609 145.736 205.442 146.084 208.261 145.874C211.081 145.664 213.832 144.901 216.356 143.627Z"/><path fill="#0033AD" d="M69.2236 196.062C72.1543 197.989 75.5908 199.004 79.0983 198.978C82.6058 198.951 86.0267 197.885 88.9281 195.914C91.8295 193.943 94.081 191.155 95.3977 187.904C96.7145 184.653 97.0373 181.085 96.3253 177.65C95.6134 174.215 93.8986 171.069 91.398 168.609C88.8975 166.15 85.7234 164.487 82.2776 163.832C78.8318 163.176 75.269 163.558 72.04 164.928C68.811 166.298 66.061 168.595 64.1378 171.528C61.5622 175.457 60.6511 180.247 61.6046 184.847C62.5582 189.447 65.2984 193.481 69.2236 196.062Z"/><path fill="#0033AD" d="M95.4279 298.695C91.1793 298.455 86.9551 299.48 83.289 301.641C79.623 303.801 76.6798 307 74.8315 310.833C72.9831 314.666 72.3126 318.961 72.9046 323.175C73.4967 327.389 75.3248 331.333 78.1578 334.508C80.9908 337.683 84.7015 339.947 88.821 341.014C92.9404 342.081 97.2837 341.902 101.302 340.501C105.32 339.1 108.832 336.539 111.395 333.142C113.958 329.745 115.456 325.664 115.7 321.416C116.022 315.715 114.067 310.12 110.266 305.86C106.465 301.6 101.128 299.023 95.4279 298.695Z"/><path fill="#0033AD" d="M71.5772 443.379C68.4482 444.96 65.8583 447.434 64.1349 450.487C62.4115 453.54 61.6319 457.035 61.8947 460.531C62.1575 464.027 63.4509 467.367 65.6114 470.128C67.7719 472.889 70.7024 474.947 74.0326 476.043C77.3629 477.139 80.9432 477.223 84.3211 476.284C87.699 475.345 90.7227 473.426 93.0101 470.77C95.2975 468.113 96.7459 464.837 97.1721 461.357C97.5984 457.878 96.9833 454.349 95.4048 451.219C94.3558 449.139 92.9073 447.286 91.1418 445.766C89.3764 444.246 87.3287 443.089 85.1158 442.361C82.9029 441.633 80.5683 441.348 78.2452 441.522C75.9222 441.697 73.6563 442.328 71.5772 443.379Z"/><path fill="#0033AD" d="M155.233 254.218C159.424 256.964 164.335 258.406 169.345 258.362C174.355 258.317 179.24 256.788 183.381 253.968C187.522 251.147 190.734 247.162 192.611 242.517C194.487 237.871 194.944 232.773 193.923 227.868C192.903 222.963 190.451 218.47 186.877 214.958C183.303 211.446 178.768 209.073 173.846 208.139C168.924 207.204 163.834 207.75 159.222 209.707C154.61 211.665 150.682 214.946 147.934 219.136C146.107 221.917 144.845 225.032 144.223 228.302C143.601 231.572 143.629 234.932 144.307 238.191C144.985 241.449 146.299 244.542 148.174 247.292C150.049 250.043 152.448 252.396 155.233 254.218Z"/><path fill="#0033AD" d="M420.632 141.932C424.2 144.259 428.378 145.476 432.638 145.43C436.898 145.383 441.048 144.075 444.564 141.67C448.081 139.265 450.805 135.871 452.393 131.918C453.981 127.965 454.362 123.63 453.486 119.461C452.611 115.292 450.519 111.476 447.476 108.495C444.432 105.514 440.573 103.503 436.386 102.715C432.2 101.927 427.873 102.398 423.955 104.069C420.036 105.739 416.7 108.534 414.369 112.1C412.817 114.469 411.748 117.12 411.223 119.903C410.698 122.686 410.727 125.544 411.309 128.316C411.89 131.087 413.013 133.716 414.613 136.053C416.213 138.389 418.259 140.387 420.632 141.932Z"/><path fill="#0033AD" d="M464.802 65.9282C467.109 67.4399 469.812 68.2336 472.569 68.2088C475.327 68.1841 478.015 67.3419 480.294 65.7889C482.572 64.236 484.339 62.042 485.371 59.4846C486.402 56.9272 486.652 54.1213 486.088 51.4219C485.525 48.7225 484.173 46.251 482.204 44.32C480.236 42.389 477.739 41.0853 475.029 40.5739C472.319 40.0625 469.519 40.3663 466.982 41.447C464.444 42.5276 462.285 44.3365 460.776 46.6448C458.756 49.7366 458.044 53.504 458.799 57.1196C459.554 60.7352 461.713 63.9033 464.802 65.9282Z"/><path fill="#0033AD" d="M424.024 276.444C418.373 276.12 412.714 276.911 407.369 278.774C402.025 280.636 397.099 283.533 392.874 287.299C384.341 294.905 379.179 305.589 378.523 317.001C377.867 328.413 381.772 339.617 389.378 348.151C396.983 356.684 407.667 361.846 419.079 362.501C419.903 362.501 420.751 362.501 421.575 362.501C429.888 362.497 438.023 360.089 444.998 355.565C451.973 351.042 457.49 344.598 460.885 337.009C464.28 329.421 465.407 321.012 464.13 312.798C462.854 304.583 459.228 296.913 453.691 290.713C449.94 286.484 445.386 283.044 440.292 280.595C435.199 278.145 429.668 276.734 424.024 276.444Z"/><path fill="#0033AD" d="M230.508 251.228C234.085 258.374 239.585 264.38 246.391 268.568C253.196 272.757 261.036 274.963 269.027 274.938C276.395 274.939 283.64 273.053 290.071 269.458C296.502 265.863 301.905 260.681 305.763 254.404C309.622 248.128 311.807 240.967 312.111 233.606C312.415 226.245 310.828 218.928 307.5 212.355C303.898 205.241 298.387 199.271 291.583 195.113C284.78 190.954 276.954 188.772 268.98 188.81C261.635 188.823 254.415 190.711 248.005 194.297C241.595 197.883 236.208 203.048 232.354 209.3C228.5 215.553 226.308 222.686 225.984 230.024C225.661 237.362 227.218 244.661 230.508 251.228Z"/><path fill="#0033AD" d="M568.377 196.015C571.507 194.435 574.098 191.964 575.823 188.912C577.548 185.861 578.33 182.366 578.07 178.871C577.81 175.375 576.519 172.035 574.361 169.272C572.203 166.51 569.275 164.449 565.946 163.35C562.617 162.252 559.038 162.164 555.659 163.1C552.281 164.035 549.256 165.951 546.966 168.605C544.676 171.259 543.224 174.532 542.794 178.011C542.364 181.49 542.975 185.019 544.55 188.151C546.669 192.351 550.368 195.539 554.836 197.013C559.304 198.488 564.174 198.129 568.377 196.015Z"/><path fill="#0033AD" d="M459.105 209.742C454.63 211.996 450.924 215.526 448.455 219.886C445.986 224.246 444.866 229.241 445.236 234.238C445.606 239.235 447.449 244.01 450.532 247.96C453.616 251.909 457.802 254.855 462.56 256.426C467.318 257.997 472.435 258.121 477.264 256.784C482.093 255.446 486.417 252.707 489.688 248.912C492.96 245.117 495.034 240.437 495.646 235.464C496.258 230.491 495.382 225.448 493.128 220.973C491.634 217.999 489.568 215.349 487.049 213.175C484.529 211.001 481.606 209.345 478.446 208.302C475.286 207.258 471.951 206.849 468.632 207.096C465.314 207.343 462.076 208.242 459.105 209.742Z"/><path fill="#0033AD" d="M318.353 59.4301C321.855 59.6296 325.336 58.786 328.358 57.0062C331.38 55.2264 333.807 52.5903 335.33 49.4314C336.854 46.2724 337.406 42.7326 336.918 39.2597C336.429 35.7867 334.922 32.5367 332.586 29.9207C330.25 27.3047 327.19 25.4403 323.795 24.5633C320.399 23.6863 316.819 23.8361 313.509 24.9938C310.198 26.1515 307.305 28.265 305.196 31.0671C303.087 33.8691 301.856 37.2338 301.66 40.7354C301.396 45.4277 303.006 50.0326 306.137 53.5381C309.267 57.0437 313.661 59.1629 318.353 59.4301Z"/><path fill="#0033AD" d="M318.164 171.01C323.165 171.29 328.137 170.082 332.452 167.537C336.767 164.992 340.23 161.225 342.405 156.713C344.579 152.2 345.367 147.144 344.669 142.184C343.971 137.224 341.818 132.582 338.482 128.845C335.146 125.108 330.778 122.443 325.928 121.188C321.079 119.934 315.966 120.145 311.236 121.795C306.507 123.445 302.372 126.46 299.356 130.459C296.339 134.458 294.576 139.262 294.289 144.263C293.91 150.975 296.212 157.563 300.689 162.579C305.166 167.595 311.451 170.627 318.164 171.01Z"/><path fill="#0033AD" d="M180.898 429.628C185.373 427.372 189.078 423.84 191.545 419.478C194.011 415.116 195.129 410.121 194.757 405.124C194.385 400.126 192.539 395.352 189.453 391.404C186.366 387.456 182.179 384.512 177.419 382.944C172.66 381.376 167.542 381.255 162.714 382.596C157.885 383.937 153.563 386.679 150.293 390.477C147.024 394.274 144.954 398.956 144.346 403.93C143.737 408.904 144.618 413.947 146.875 418.421C149.902 424.418 155.186 428.967 161.566 431.069C167.946 433.171 174.9 432.652 180.898 429.628Z"/><path fill="#0033AD" d="M334.529 207.975C329.274 215.994 326.844 225.536 327.623 235.091C328.402 244.646 332.345 253.669 338.829 260.731C345.312 267.793 353.966 272.491 363.42 274.081C372.874 275.672 382.588 274.064 391.025 269.512C399.463 264.961 406.141 257.725 410.004 248.951C413.866 240.177 414.692 230.365 412.351 221.068C410.009 211.772 404.635 203.521 397.077 197.623C389.519 191.725 380.21 188.516 370.623 188.504C363.464 188.499 356.415 190.276 350.114 193.675C343.813 197.075 338.457 201.989 334.529 207.975Z"/><path fill="#0033AD" d="M409.45 388.166C405.998 381.321 400.781 375.52 394.34 371.363C387.898 367.206 380.463 364.844 372.804 364.519C365.144 364.194 357.536 365.918 350.765 369.515C343.994 373.111 338.306 378.449 334.286 384.978C330.267 391.506 328.062 398.989 327.9 406.654C327.737 414.319 329.623 421.888 333.362 428.581C337.101 435.274 342.558 440.849 349.17 444.729C355.783 448.609 363.31 450.655 370.977 450.655C377.721 450.608 384.363 448.996 390.378 445.946C400.553 440.795 408.272 431.824 411.847 420.995C415.421 410.165 414.559 398.361 409.45 388.166Z"/><path fill="#0033AD" d="M484.747 385.153C480.558 382.403 475.648 380.957 470.638 380.998C465.627 381.039 460.741 382.564 456.598 385.382C452.454 388.199 449.24 392.182 447.36 396.827C445.48 401.472 445.02 406.57 446.037 411.476C447.055 416.382 449.504 420.877 453.076 424.391C456.648 427.905 461.181 430.281 466.104 431.219C471.026 432.156 476.115 431.613 480.729 429.658C485.342 427.703 489.273 424.424 492.022 420.235C495.697 414.614 496.995 407.766 495.631 401.191C494.268 394.616 490.354 388.848 484.747 385.153Z"/><path fill="#0033AD" d="M567.246 320.426C567.486 316.178 566.461 311.954 564.3 308.288C562.14 304.622 558.941 301.678 555.108 299.83C551.275 297.982 546.98 297.311 542.766 297.903C538.552 298.495 534.609 300.323 531.433 303.156C528.258 305.989 525.994 309.7 524.927 313.819C523.861 317.939 524.039 322.282 525.44 326.3C526.842 330.318 529.403 333.831 532.8 336.393C536.197 338.956 540.277 340.454 544.526 340.699C550.226 341.02 555.821 339.066 560.081 335.264C564.341 331.463 566.919 326.126 567.246 320.426Z"/><path fill="#0033AD" d="M626.865 305.099C624.112 304.94 621.375 305.602 618.999 306.999C616.622 308.396 614.713 310.467 613.514 312.949C612.314 315.431 611.878 318.214 612.259 320.944C612.641 323.674 613.823 326.23 615.658 328.288C617.492 330.346 619.895 331.814 622.564 332.507C625.232 333.199 628.046 333.084 630.65 332.177C633.253 331.27 635.529 329.611 637.19 327.411C638.85 325.21 639.821 322.567 639.979 319.814C640.185 316.126 638.921 312.505 636.462 309.747C634.004 306.989 630.553 305.317 626.865 305.099Z"/><path fill="#0033AD" d="M570.732 443.308C567.799 441.387 564.362 440.379 560.856 440.411C557.351 440.443 553.933 441.513 551.035 443.487C548.138 445.461 545.891 448.25 544.578 451.501C543.265 454.752 542.946 458.319 543.66 461.751C544.374 465.183 546.09 468.327 548.59 470.785C551.091 473.242 554.263 474.903 557.708 475.557C561.152 476.212 564.713 475.831 567.941 474.461C571.168 473.092 573.917 470.797 575.841 467.866C577.119 465.918 578 463.738 578.435 461.449C578.87 459.161 578.85 456.809 578.375 454.528C577.901 452.248 576.981 450.083 575.67 448.158C574.358 446.233 572.68 444.585 570.732 443.308Z"/><path fill="#0033AD" d="M175.176 573.441C172.871 571.929 170.17 571.134 167.413 571.157C164.657 571.18 161.969 572.019 159.69 573.57C157.411 575.12 155.642 577.311 154.608 579.866C153.574 582.421 153.321 585.226 153.88 587.925C154.44 590.624 155.787 593.096 157.752 595.03C159.716 596.963 162.21 598.271 164.918 598.787C167.626 599.304 170.426 599.005 172.964 597.93C175.502 596.856 177.665 595.052 179.178 592.748C180.184 591.218 180.878 589.505 181.221 587.706C181.564 585.907 181.549 584.059 181.177 582.266C180.805 580.473 180.084 578.771 179.054 577.256C178.025 575.742 176.707 574.446 175.176 573.441Z"/><path fill="#0033AD" d="M467.322 571.983C464.86 573.224 462.821 575.167 461.464 577.566C460.106 579.966 459.491 582.714 459.695 585.464C459.9 588.213 460.915 590.84 462.613 593.012C464.311 595.185 466.614 596.805 469.233 597.668C471.851 598.531 474.667 598.598 477.324 597.861C479.98 597.123 482.358 595.615 484.158 593.525C485.957 591.436 487.096 588.861 487.431 586.124C487.766 583.387 487.282 580.613 486.04 578.151C485.219 576.515 484.082 575.058 482.696 573.862C481.309 572.666 479.701 571.755 477.962 571.182C476.223 570.609 474.388 570.385 472.562 570.522C470.736 570.659 468.956 571.156 467.322 571.983Z"/><path fill="#0033AD" d="M305.426 431.324C310.681 423.305 313.111 413.762 312.331 404.206C311.552 394.65 307.607 385.626 301.122 378.565C294.637 371.503 285.982 366.806 276.526 365.217C267.071 363.628 257.356 365.239 248.919 369.793C240.482 374.347 233.805 381.586 229.945 390.362C226.085 399.139 225.263 408.952 227.608 418.249C229.953 427.545 235.333 435.794 242.894 441.689C250.455 447.584 259.767 450.789 269.355 450.796C276.515 450.821 283.567 449.051 289.868 445.65C296.169 442.249 301.517 437.324 305.426 431.324Z"/><path fill="#0033AD" d="M219.323 497.462C215.762 495.133 211.59 493.911 207.335 493.952C203.08 493.993 198.933 495.295 195.417 497.692C191.901 500.09 189.175 503.476 187.584 507.422C185.992 511.369 185.606 515.699 186.475 519.864C187.344 524.03 189.428 527.845 192.464 530.826C195.501 533.808 199.353 535.822 203.534 536.615C207.714 537.408 212.036 536.943 215.953 535.28C219.87 533.616 223.206 530.829 225.539 527.27C228.664 522.492 229.765 516.669 228.6 511.08C227.434 505.491 224.098 500.593 219.323 497.462Z"/><path fill="#0033AD" d="M319.788 579.94C316.288 579.741 312.807 580.584 309.786 582.363C306.765 584.142 304.339 586.777 302.815 589.934C301.291 593.092 300.737 596.63 301.224 600.102C301.711 603.575 303.216 606.824 305.55 609.441C307.884 612.058 310.94 613.924 314.335 614.803C317.729 615.683 321.307 615.536 324.618 614.382C327.928 613.228 330.823 611.118 332.934 608.319C335.046 605.521 336.281 602.158 336.482 598.658C336.616 596.333 336.29 594.004 335.523 591.805C334.756 589.605 333.564 587.578 332.014 585.84C330.463 584.102 328.586 582.686 326.488 581.674C324.39 580.661 322.114 580.072 319.788 579.94Z"/><path fill="#0033AD" d="M319.977 468.383C314.971 468.079 309.988 469.267 305.658 471.798C301.328 474.328 297.847 478.086 295.654 482.597C293.462 487.107 292.658 492.167 293.344 497.135C294.029 502.103 296.174 506.755 299.506 510.503C302.838 514.252 307.207 516.926 312.061 518.189C316.914 519.452 322.033 519.246 326.769 517.597C331.506 515.949 335.646 512.931 338.666 508.928C341.686 504.924 343.45 500.114 343.734 495.107C344.12 488.415 341.836 481.842 337.382 476.832C332.928 471.822 326.669 468.784 319.977 468.383Z"/><path fill="#0033AD" d="M423.599 495.744C419.797 497.673 416.653 500.686 414.565 504.403C412.477 508.12 411.538 512.372 411.868 516.623C412.198 520.873 413.781 524.93 416.418 528.28C419.055 531.63 422.626 534.122 426.68 535.442C430.734 536.761 435.088 536.848 439.191 535.692C443.294 534.535 446.962 532.188 449.731 528.946C452.499 525.704 454.243 521.713 454.743 517.479C455.242 513.246 454.474 508.959 452.536 505.162C451.257 502.641 449.493 500.398 447.345 498.56C445.198 496.722 442.709 495.326 440.021 494.451C437.333 493.577 434.499 493.24 431.681 493.462C428.863 493.684 426.117 494.459 423.599 495.744Z"/></svg>