<svg xmlns="http://www.w3.org/2000/svg" width="48" height="48" fill="none" viewBox="0 0 48 48"><circle cx="24" cy="24" r="24" fill="#212121"/><path fill="#A16552" d="M12.2826 19.261C12.0253 20.1887 11.893 21.1459 11.8893 22.1077C11.8893 22.1753 11.8893 22.2414 11.8893 22.3074C11.8975 23.4699 11.7654 24.6292 11.496 25.7609C10.9532 25.5705 10.3947 25.1852 9.8614 24.5178C8.45807 22.7619 8.92454 19.9463 10.6551 19.2835C11.3096 19.0334 11.857 19.0862 12.285 19.2501C12.2838 19.2537 12.283 19.2573 12.2826 19.261Z"/><path fill="#F5DCB4" d="M12.2826 19.261C12.0253 20.1887 11.893 21.1459 11.8893 22.1077C11.8893 22.1753 11.8893 22.2414 11.8893 22.3074C11.8975 23.4699 11.7654 24.6292 11.496 25.7609C10.9532 25.5705 10.3947 25.1852 9.8614 24.5178C8.45807 22.7619 8.92454 19.9463 10.6551 19.2835C11.3096 19.0334 11.857 19.0862 12.285 19.2501C12.2838 19.2537 12.283 19.2573 12.2826 19.261Z"/><path fill="#A16552" d="M38.1395 24.5186C37.607 25.1844 37.0477 25.5698 36.5049 25.7617C36.2358 24.6302 36.1038 23.4712 36.1116 22.309C36.1116 22.2429 36.1116 22.1769 36.1116 22.1093C36.108 21.1436 35.9744 20.1826 35.7144 19.2517C36.1423 19.0878 36.6898 19.0349 37.3442 19.2851C39.0748 19.9463 39.542 22.7619 38.1395 24.5186Z"/><path fill="#F5DCB4" d="M38.1395 24.5186C37.607 25.1844 37.0477 25.5698 36.5049 25.7617C36.2358 24.6302 36.1038 23.4712 36.1116 22.309C36.1116 22.2429 36.1116 22.1769 36.1116 22.1093C36.108 21.1436 35.9744 20.1826 35.7144 19.2517C36.1423 19.0878 36.6898 19.0349 37.3442 19.2851C39.0748 19.9463 39.542 22.7619 38.1395 24.5186Z"/><path fill="#A16552" d="M32.7473 25.7967C32.2307 26.5845 32.104 27.5612 32.4027 28.4522C32.6332 29.122 32.8393 29.8803 32.8393 30.4443C32.8377 34.5714 28.8818 37.9123 24.0001 37.9123C19.1183 37.9123 15.1601 34.5714 15.1601 30.4443C15.1601 29.8803 15.3661 29.1235 15.5966 28.4522C15.8957 27.5616 15.7692 26.5851 15.2529 25.7974C14.7555 25.0284 14.4902 24.1352 14.4883 23.2227C14.4883 20.4839 16.8481 18.2627 19.7626 18.2627C20.7034 18.2604 21.6288 18.4986 22.4489 18.9541C23.4106 19.4946 24.5895 19.4946 25.5513 18.9541C26.371 18.4987 27.2963 18.2607 28.2368 18.2634C31.1473 18.2634 33.5119 20.4847 33.5119 23.2234C33.5126 23.9076 33.3631 24.5838 33.0737 25.2054C32.9791 25.4098 32.87 25.6074 32.7473 25.7967Z"/><path fill="#F5DCB4" d="M32.7473 25.7967C32.2307 26.5845 32.104 27.5612 32.4027 28.4522C32.6332 29.122 32.8393 29.8803 32.8393 30.4443C32.8377 34.5714 28.8818 37.9123 24.0001 37.9123C19.1183 37.9123 15.1601 34.5714 15.1601 30.4443C15.1601 29.8803 15.3661 29.1235 15.5966 28.4522C15.8957 27.5616 15.7692 26.5851 15.2529 25.7974C14.7555 25.0284 14.4902 24.1352 14.4883 23.2227C14.4883 20.4839 16.8481 18.2627 19.7626 18.2627C20.7034 18.2604 21.6288 18.4986 22.4489 18.9541C23.4106 19.4946 24.5895 19.4946 25.5513 18.9541C26.371 18.4987 27.2963 18.2607 28.2368 18.2634C31.1473 18.2634 33.5119 20.4847 33.5119 23.2234C33.5126 23.9076 33.3631 24.5838 33.0737 25.2054C32.9791 25.4098 32.87 25.6074 32.7473 25.7967Z"/><path fill="#4E3F3F" d="M19.4978 31.3673C19.3515 31.367 19.2122 31.429 19.1156 31.5375C19.019 31.646 18.9745 31.7904 18.9936 31.9337C19.3082 34.1441 21.4321 35.8534 24.0004 35.8534C26.5687 35.8534 28.6942 34.1441 29.0072 31.9337C29.0263 31.7906 28.9819 31.6463 28.8855 31.5378C28.789 31.4293 28.6499 31.3672 28.5038 31.3673H19.4978Z"/><path fill="#E6646E" d="M21.0923 35.0306C22.872 36.1276 25.1289 36.1276 26.9085 35.0306C26.5436 33.7828 25.377 34.0703 23.9981 34.0703C22.6191 34.0703 21.4573 33.7828 21.0923 35.0306Z"/><path fill="#A16552" fill-rule="evenodd" d="M35.4833 18.5035C36.0669 18.1717 36.8968 17.9604 37.943 18.3613C40.1408 19.2027 40.7347 22.7821 38.9522 25.0127C38.2262 25.921 37.4616 26.4182 36.7245 26.6396C36.7316 26.6675 36.7379 26.6957 36.7442 26.724L36.7529 26.7624C36.8855 27.3624 36.9522 27.9748 36.9519 28.589C36.9519 34.3383 31.1537 39 24.001 39H23.861C23.271 38.9962 22.6817 38.9598 22.0958 38.8912C20.9672 38.7596 19.8573 38.5023 18.7873 38.1244C14.2296 36.5138 11.0485 32.8489 11.0485 28.589C11.0483 27.9753 11.115 27.3634 11.2475 26.7639C11.2562 26.7228 11.2656 26.6816 11.2751 26.6412C10.5419 26.4198 9.7742 25.9225 9.04737 25.015C7.26568 22.7821 7.85879 19.2035 10.0574 18.3613C11.0588 17.9783 11.8627 18.1554 12.4416 18.4623L12.5164 18.5035C12.6596 18.0892 12.8239 17.6823 13.0088 17.2845C13.1436 16.9928 13.2896 16.7056 13.4469 16.4228C15.0477 13.5318 17.7348 11.1303 20.8262 10.1156C20.9709 9.8297 21.8968 8.16005 23.7571 8.01088C23.8523 8 23.9499 8 24.0498 8L24.1355 8.35895L24.4273 9.60206C24.5768 9.60827 24.7231 9.61837 24.871 9.63158L25.1117 9.65799L27.1113 8.47238L27.1742 10.1148C30.2609 11.1295 32.9527 13.5303 34.5535 16.4228C34.7103 16.7062 34.8563 16.9934 34.9916 17.2845C35.1767 17.6821 35.3408 18.089 35.4833 18.5035ZM11.8894 22.1077C11.8931 21.1459 12.0254 20.1887 12.2827 19.261C12.2832 19.2573 12.2839 19.2537 12.2851 19.2501C11.8572 19.0862 11.3097 19.0334 10.6552 19.2835C8.92466 19.9463 8.45819 22.7619 9.86152 24.5178C10.3948 25.1852 10.9533 25.5706 11.4961 25.7609C11.7655 24.6292 11.8976 23.4699 11.8894 22.3074V22.1077ZM33.0738 25.2054C32.9792 25.4098 32.8701 25.6074 32.7474 25.7966C32.2309 26.5845 32.1041 27.5612 32.4029 28.4522C32.6333 29.122 32.8394 29.8803 32.8394 30.4443C32.8379 34.5714 28.882 37.9123 24.0002 37.9123C19.1184 37.9123 15.1602 34.5714 15.1602 30.4443C15.1602 29.8803 15.3663 29.1235 15.5968 28.4522C15.8958 27.5616 15.7694 26.585 15.253 25.7974C14.7556 25.0284 14.4904 24.1352 14.4884 23.2226C14.4884 20.4839 16.8483 18.2626 19.7627 18.2626C20.7035 18.2603 21.629 18.4985 22.449 18.9541C23.4108 19.4945 24.5896 19.4945 25.5514 18.9541C26.3712 18.4987 27.2964 18.2607 28.2369 18.2634C31.1474 18.2634 33.512 20.4847 33.512 23.2234C33.5128 23.9076 33.3633 24.5838 33.0738 25.2054ZM36.5051 25.7617C37.0478 25.5698 37.6071 25.1844 38.1397 24.5186C39.5422 22.7619 39.075 19.9463 37.3444 19.2851C36.6899 19.0349 36.1424 19.0877 35.7145 19.2517C35.9746 20.1826 36.1082 21.1436 36.1118 22.1093V22.3089C36.1039 23.4712 36.236 24.6302 36.5051 25.7617Z" clip-rule="evenodd"/><path fill="#4E3F3F" d="M22.0098 28.2026C21.7968 28.1065 21.703 27.8551 21.8011 27.6429C21.8979 27.4335 22.1454 27.3413 22.3556 27.4361L23.3435 27.8819C23.5566 27.978 23.6504 28.2294 23.5522 28.4416C23.4554 28.6509 23.208 28.7432 22.9977 28.6483L22.0098 28.2026Z"/><path fill="#4E3F3F" d="M25.0026 28.6496C24.7924 28.7444 24.545 28.6522 24.4481 28.4428C24.35 28.2306 24.4438 27.9792 24.6568 27.8831L25.6448 27.4374C25.855 27.3425 26.1024 27.4348 26.1993 27.6441C26.2974 27.8563 26.2036 28.1077 25.9906 28.2038L25.0026 28.6496Z"/><path fill="#4E3F3F" d="M19.4581 25.2038C18.6219 25.2038 17.9438 24.5698 17.9438 23.7867V23.3143C17.9438 22.5319 18.6219 21.8972 19.4581 21.8972C20.2943 21.8972 20.9715 22.5319 20.9715 23.3143V23.7867C20.9715 24.5698 20.2943 25.2038 19.4581 25.2038Z"/><path fill="#5D5360" d="M19.4585 21.8972V23.5505C19.4769 23.95 19.8103 24.2646 20.2152 24.2646C20.6202 24.2646 20.9535 23.95 20.9719 23.5505V23.3174C20.9719 22.5288 20.2947 21.8972 19.4585 21.8972Z"/><ellipse cx="19.458" cy="22.842" fill="#fff" rx=".505" ry=".472"/><path fill="#4E3F3F" d="M28.5423 25.2038C27.7061 25.2038 27.0288 24.5698 27.0288 23.7867V23.3143C27.0288 22.5319 27.7061 21.8972 28.5423 21.8972C29.3784 21.8972 30.0565 22.5319 30.0565 23.3143V23.7867C30.0565 24.5698 29.3769 25.2038 28.5423 25.2038Z"/><path fill="#5D5360" d="M28.542 21.8972V23.5505C28.5644 23.9473 28.8967 24.2577 29.2991 24.2577C29.7015 24.2577 30.0338 23.9473 30.0562 23.5505V23.3174C30.0562 22.5288 29.3766 21.8972 28.542 21.8972Z"/><ellipse cx="28.542" cy="22.842" fill="#fff" rx=".505" ry=".472"/></svg>