<svg xmlns="http://www.w3.org/2000/svg" width="640" height="640" fill="none" viewBox="0 0 640 640"><path fill="#E84142" d="M320 640C496.731 640 640 496.731 640 320C640 143.269 496.731 0 320 0C143.269 0 0 143.269 0 320C0 496.731 143.269 640 320 640Z"/><path fill="#fff" d="M212.674 462.304H171.277C153.165 462.304 144.058 462.304 138.573 458.785C135.595 456.964 133.1 454.451 131.298 451.461C129.497 448.47 128.442 445.09 128.224 441.606C128.224 435.086 132.363 427.22 141.367 411.386L289.362 151.929C298.469 135.888 303.023 127.815 308.819 124.917C311.921 123.311 315.364 122.473 318.858 122.473C322.351 122.473 325.794 123.311 328.896 124.917C334.692 127.919 339.246 135.888 348.456 151.929L369.776 189.29C377.102 200.242 382.883 212.153 386.956 224.685C389.42 234.887 389.42 245.53 386.956 255.732C382.886 268.247 377.142 280.153 369.88 291.127L301.367 410.868C295.528 422.897 288.077 434.073 279.22 444.089C271.675 451.284 262.521 456.571 252.519 459.51C239.432 462.295 226.021 463.236 212.674 462.304Z"/><path fill="#fff" d="M480.203 462.304H409.518C391.2 462.304 381.989 462.304 376.607 458.785C373.642 456.899 371.161 454.343 369.363 451.324C367.566 448.304 366.502 444.904 366.258 441.399C366.258 434.879 370.604 427.013 379.815 411.179L415.106 350.532C424.214 334.904 428.768 327.039 434.563 324.141C437.637 322.561 441.043 321.737 444.498 321.737C447.954 321.737 451.36 322.561 454.434 324.141C460.229 327.039 464.783 334.49 473.89 350.532L509.285 411.075C518.599 426.91 523.257 434.879 522.946 441.399C522.71 444.892 521.649 448.281 519.85 451.285C518.051 454.289 515.565 456.824 512.597 458.682C507.836 462.304 498.625 462.304 480.203 462.304Z"/></svg>