<svg xmlns="http://www.w3.org/2000/svg" width="48" height="48" fill="none" viewBox="0 0 48 48"><circle cx="24" cy="24" r="24" fill="url(#paint0_linear_92_4263)"/><path fill="#633001" fill-rule="evenodd" d="M23.9288 39.9374C19.258 39.9339 15.4955 38.8131 12.8667 36.7999C10.2063 34.7626 8.79492 31.8714 8.79492 28.6C8.79492 25.4478 10.2032 23.1748 11.7966 21.6384C13.0453 20.4344 14.4233 19.6632 15.3828 19.2197C15.1659 18.5538 14.8951 17.682 14.6529 16.7816C14.3289 15.5767 14.0109 14.163 14.0109 13.1271C14.0109 11.901 14.2783 10.6696 14.9991 9.71273C15.7606 8.70183 16.9071 8.16028 18.2863 8.16028C19.3642 8.16028 20.2794 8.56008 20.9959 9.24988C21.6807 9.90918 22.1365 10.7848 22.4512 11.6976C23.0042 13.3014 23.2196 15.3165 23.28 17.3274H24.6011C24.6615 15.3165 24.8768 13.3014 25.4298 11.6976C25.7445 10.7848 26.2003 9.90918 26.8852 9.24988C27.6016 8.56008 28.5168 8.16028 29.5947 8.16028C30.974 8.16028 32.1204 8.70183 32.882 9.71273C33.6028 10.6696 33.8701 11.901 33.8701 13.1271C33.8701 14.163 33.5522 15.5767 33.2281 16.7816C32.9859 17.682 32.7152 18.5538 32.4982 19.2197C33.4577 19.6632 34.8357 20.4344 36.0844 21.6384C37.6779 23.1748 39.0861 25.4478 39.0861 28.6C39.0861 31.8714 37.6748 34.7626 35.0144 36.7999C32.3855 38.8131 28.6231 39.9339 23.9522 39.9374H23.9288Z" clip-rule="evenodd"/><path fill="#D1884F" d="M18.2861 9.32635C16.266 9.32635 15.3361 10.8488 15.3361 12.9544C15.3361 14.6279 16.4166 17.9797 16.8599 19.2845C16.9596 19.5779 16.8029 19.8995 16.5172 20.0133C14.8981 20.6582 10.1201 23.0195 10.1201 28.4273C10.1201 34.1238 14.9756 38.419 23.9296 38.4258C23.9332 38.4258 23.9367 38.4258 23.9403 38.4258C23.9439 38.4258 23.9474 38.4258 23.951 38.4258C32.905 38.419 37.7605 34.1238 37.7605 28.4273C37.7605 23.0195 32.9825 20.6582 31.3635 20.0133C31.0777 19.8995 30.9211 19.5779 31.0208 19.2845C31.4641 17.9797 32.5445 14.6279 32.5445 12.9544C32.5445 10.8488 31.6146 9.32635 29.5945 9.32635C26.6866 9.32635 25.9618 13.4875 25.9101 17.9535C25.9066 18.2516 25.668 18.4935 25.3729 18.4935H22.5078C22.2126 18.4935 21.974 18.2516 21.9706 17.9535C21.9189 13.4875 21.194 9.32635 18.2861 9.32635Z"/><path fill="#FEDC90" d="M23.951 36.6009C17.3721 36.6009 10.1315 33.0433 10.1201 28.438C10.1201 28.4452 10.1201 28.4524 10.1201 28.4596C10.1201 34.1607 14.9834 38.4581 23.951 38.4581C32.9186 38.4581 37.7819 34.1607 37.7819 28.4596C37.7819 28.4524 37.7819 28.4452 37.7819 28.438C37.7705 33.0433 30.53 36.6009 23.951 36.6009Z"/><path fill="#633001" d="M20.2957 27.0236C20.2957 28.5784 19.5683 29.3882 18.671 29.3882C17.7737 29.3882 17.0464 28.5784 17.0464 27.0236C17.0464 25.4687 17.7737 24.6589 18.671 24.6589C19.5683 24.6589 20.2957 25.4687 20.2957 27.0236Z"/><path fill="#633001" d="M30.8557 27.0236C30.8557 28.5784 30.1284 29.3882 29.2311 29.3882C28.3338 29.3882 27.6064 28.5784 27.6064 27.0236C27.6064 25.4687 28.3338 24.6589 29.2311 24.6589C30.1284 24.6589 30.8557 25.4687 30.8557 27.0236Z"/><defs><linearGradient id="paint0_linear_92_4263" x1="0" x2="0" y1="0" y2="48" gradientUnits="userSpaceOnUse"><stop stop-color="#53DEE9"/><stop offset="1" stop-color="#1FC7D4"/></linearGradient></defs></svg>