<svg xmlns="http://www.w3.org/2000/svg" width="48" height="48" fill="none" viewBox="0 0 48 48"><circle cx="24" cy="24" r="24" fill="#C2A633"/><path fill="#fff" fill-rule="evenodd" d="M23.0274 8.00161L23.675 8.01869L24.2758 8.04985L24.6008 8.07313L25.1163 8.1196L25.4771 8.15926L25.8502 8.20666L26.4311 8.29377L26.8308 8.3635L27.2394 8.44335L27.6557 8.534C27.7256 8.55005 27.7959 8.56657 27.8664 8.58359L28.2924 8.69172L28.7235 8.81235L29.1586 8.94616C29.2315 8.9696 29.3044 8.99361 29.3775 9.01822L29.8168 9.17308C30.1838 9.30824 30.5522 9.45889 30.9195 9.62682L31.3595 9.83674C35.3115 11.8027 39 15.8658 39 24.2569C39 31.7065 36.0584 35.6458 32.7557 37.721L32.3656 37.9566C31.9742 38.1838 31.5791 38.3862 31.1847 38.5663L30.7906 38.7391L30.3979 38.8976L30.0075 39.0426L29.6202 39.1745L29.2371 39.2939L28.859 39.4016L28.487 39.498C28.4255 39.5131 28.3643 39.5278 28.3035 39.5421L27.9422 39.6228L27.5892 39.6936L27.0775 39.783L26.7494 39.8321L26.2795 39.8915L25.9822 39.9226L25.5627 39.9577L25.0577 39.9865L24.7237 39.997L24.3166 40L23.9784 39.9931L23.7343 39.981L12.8335 39.9792V25.7347H9V22.2453H12.8332V8L23.0274 8.00161ZM23.2494 13.911H18.9589V22.245H25.7091V25.7344H18.9589V34.068L23.6146 34.068L24.0866 34.059L24.6189 34.0277L24.9892 33.9922L25.3919 33.9403L25.6759 33.8951L25.9709 33.8404L26.2753 33.7752C26.3267 33.7634 26.3785 33.7512 26.4306 33.7384L26.7465 33.6558L27.0684 33.5605C27.2306 33.5095 27.3945 33.4534 27.5594 33.3917L27.89 33.2606L28.2216 33.1135C30.5989 32.0003 32.9476 29.59 32.9407 24.372C32.9338 19.0913 30.5981 16.4651 28.1898 15.1654L27.8535 14.9925C27.6854 14.9103 27.5174 14.8342 27.3503 14.7638L27.0176 14.6304L26.6888 14.5115C26.6344 14.4928 26.5802 14.4748 26.5262 14.4572L26.2057 14.3584C26.1528 14.343 26.1002 14.3281 26.048 14.3137L25.7388 14.2332L25.4389 14.1639L25.1496 14.105L24.8723 14.0558L24.6084 14.0153L24.3592 13.9828L24.016 13.9473L23.8095 13.9313L23.5368 13.9168L23.2494 13.911Z" clip-rule="evenodd"/></svg>