<svg xmlns="http://www.w3.org/2000/svg" width="48" height="48" fill="none" viewBox="0 0 48 48"><circle cx="24" cy="24" r="24" fill="#0066ED"/><path fill="#fff" fill-rule="evenodd" d="M23.6593 8.01614C25.3436 9.30278 27.5579 13.2539 27.5579 17.8484C27.5579 20.1375 25.8815 22.3443 24.1328 24.6461C22.0924 27.3318 19.9537 30.147 20.2649 33.3734C20.4972 35.7833 21.4935 37.5764 22.1097 38.6854C22.761 39.8575 22.9877 40.2655 21.4388 39.83C16.0516 38.3154 10.7613 30.1207 16.4499 22.6464C16.9717 21.9608 17.584 21.3125 18.2264 20.6323C20.6186 18.0997 23.4281 15.1252 23.5384 8.13215L23.5408 8.12649C23.5304 7.94276 23.6524 8.0121 23.6593 8.01614ZM30.0253 20.8855C30.059 20.8288 30.1082 20.845 30.1427 20.8688C31.2602 21.8365 34.4005 25.1676 33.9575 30.4524C33.5 35.9097 29.2743 38.305 29.0977 38.3944C27.5345 39.1862 27.4876 39.9661 27.3061 39.9988C27.2256 40.0133 27.1187 39.8808 26.8414 39.5373C25.2868 37.611 22.5221 34.0244 27.3736 26.5843C28.804 24.3909 29.9326 22.0022 30.0253 20.8855Z" clip-rule="evenodd"/></svg>