<svg xmlns="http://www.w3.org/2000/svg" width="48" height="48" fill="none" viewBox="0 0 48 48"><circle cx="24" cy="24" r="24" fill="#A5A8A9"/><path fill="#fff" d="M24.3889 24.7896L21.8925 33.2134H35.2452C35.4605 33.2139 35.663 33.3156 35.792 33.488C35.921 33.6603 35.9614 33.8833 35.9012 34.09L34.7401 38.09C34.6263 38.4826 34.2664 38.7525 33.8577 38.7518H13.4629L16.9114 27.106L13.0972 28.2671L13.939 25.5443L17.759 24.3832L22.6008 8.02323C22.7102 7.62925 23.0685 7.35632 23.4774 7.3556H28.6443C28.8593 7.35483 29.0621 7.45499 29.1922 7.62613C29.3223 7.79727 29.3645 8.01953 29.3062 8.22642L25.2423 22.061L29.0565 20.8999L28.238 23.6691L24.3889 24.7896Z"/></svg>