<svg width="48" height="48" viewBox="0 0 48 48" fill="none" xmlns="http://www.w3.org/2000/svg">
<circle cx="24" cy="24" r="24" fill="#120C18"/>
<path d="M30.6731 19.0919L32.5473 21.3836C32.7619 21.641 32.9521 21.8527 33.0291 21.9731C33.5896 22.5528 33.9039 23.3363 33.9034 24.1527C33.8508 25.1158 33.2476 25.7718 32.689 26.4734L31.3775 28.0759L30.6933 28.9062C30.6688 28.9348 30.653 28.9702 30.6478 29.008C30.6427 29.0458 30.6484 29.0842 30.6643 29.1187C30.6803 29.1531 30.7057 29.182 30.7375 29.2018C30.7692 29.2216 30.8059 29.2314 30.8431 29.2301H37.6803C38.7246 29.2301 40.0403 30.1434 39.9634 31.53C39.9612 32.1602 39.7161 32.7641 39.2816 33.2097C38.8471 33.6553 38.2584 33.9067 37.6438 33.9088H26.9367C26.2324 33.9088 24.3379 33.9878 23.8076 32.3064C23.6948 31.955 23.6794 31.5785 23.7631 31.2186C23.9172 30.6866 24.1611 30.1864 24.4836 29.7407C25.022 28.9104 25.6049 28.0801 26.1798 27.2746C26.9206 26.2201 27.6816 25.1989 28.4305 24.1236C28.4571 24.0886 28.4715 24.0455 28.4715 24.0011C28.4715 23.9568 28.4571 23.9137 28.4305 23.8787L25.7102 20.5574C25.6925 20.5334 25.6695 20.5138 25.6432 20.5004C25.6168 20.4869 25.5878 20.4799 25.5584 20.4799C25.529 20.4799 25.4999 20.4869 25.4736 20.5004C25.4473 20.5138 25.4243 20.5334 25.4066 20.5574C24.6779 21.5662 21.4881 26.0334 20.808 26.9384C20.1279 27.8434 18.452 27.8932 17.525 26.9384L13.2706 22.5585C13.2434 22.5305 13.2087 22.5114 13.171 22.5037C13.1332 22.496 13.0941 22.4999 13.0585 22.5151C13.0229 22.5302 12.9925 22.5558 12.9712 22.5887C12.9499 22.6215 12.9385 22.6601 12.9386 22.6996V31.1232C12.9486 31.7209 12.776 32.3069 12.445 32.799C12.114 33.2911 11.6411 33.6647 11.0927 33.8674C10.7423 33.9924 10.3678 34.0298 10.0004 33.9763C9.63302 33.9228 9.28347 33.78 8.98084 33.5598C8.67821 33.3396 8.43128 33.0484 8.26065 32.7105C8.09007 32.3726 8.00069 31.9978 8 31.6172V16.4723C8.02441 15.9265 8.21588 15.4025 8.54725 14.9747C8.87863 14.5469 9.33302 14.2371 9.84591 14.0893C10.2858 13.9691 10.7489 13.9703 11.1883 14.0928C11.6276 14.2152 12.0276 14.4547 12.3476 14.7867L18.8892 21.504C18.9088 21.5244 18.9325 21.5401 18.9587 21.5501C18.9849 21.56 19.0129 21.564 19.0407 21.5616C19.0685 21.5592 19.0954 21.5506 19.1197 21.5363C19.1439 21.5221 19.1647 21.5025 19.1807 21.479L23.8278 14.8822C24.0426 14.6144 24.3118 14.398 24.6167 14.2481C24.9216 14.0982 25.2547 14.0185 25.5928 14.0145H37.6803C38.0111 14.0151 38.3379 14.0881 38.639 14.2286C38.9401 14.3692 39.2084 14.5741 39.4261 14.8295C39.6438 15.085 39.8057 15.3852 39.9012 15.71C39.9966 16.0348 40.0233 16.3768 39.9795 16.7131C39.8944 17.2964 39.6058 17.8283 39.1673 18.21C38.7289 18.5917 38.1703 18.7974 37.5952 18.7889H30.8269C30.7929 18.7897 30.7598 18.7999 30.7309 18.8184C30.702 18.8368 30.6785 18.8629 30.6628 18.8938C30.6471 18.9248 30.6397 18.9595 30.6416 18.9943C30.6434 19.0292 30.6543 19.0629 30.6731 19.0919Z" fill="url(#paint0_linear_92_4315)"/>
<defs>
<linearGradient id="paint0_linear_92_4315" x1="-8" y1="19" x2="-0.882562" y2="41.7758" gradientUnits="userSpaceOnUse">
<stop stop-color="#7A00CC"/>
<stop offset="1" stop-color="#F72C87"/>
</linearGradient>
</defs>
</svg>
