<svg xmlns="http://www.w3.org/2000/svg" width="640" height="640" fill="none" viewBox="0 0 640 640"><path fill="#8247E5" d="M320.001 640.001C496.732 640.001 640 496.733 640 320C640 143.269 496.732 0 320.001 0C143.269 0 0 143.269 0 320C0 496.733 143.269 640.001 320.001 640.001Z"/><path fill="#fff" d="M442.214 238.97C433.358 233.657 421.845 233.657 412.103 238.97L343.026 279.708L296.089 306.277L227.011 347.015C218.155 352.328 206.642 352.328 196.9 347.015L141.993 315.133C133.137 309.819 126.937 300.077 126.937 289.45V226.572C126.937 215.945 132.251 206.203 141.993 200.889L196.015 169.893C204.871 164.579 216.384 164.579 226.125 169.893L280.148 200.889C289.004 206.203 295.203 215.945 295.203 226.572V267.31L342.14 239.856V199.118C342.14 188.491 336.827 178.749 327.085 173.435L227.011 114.985C218.155 109.672 206.642 109.672 196.9 114.985L95.0554 173.435C85.3137 178.749 80 188.491 80 199.118V316.904C80 327.531 85.3137 337.273 95.0554 342.587L196.9 401.037C205.756 406.351 217.269 406.351 227.011 401.037L296.089 361.184L343.026 333.731L412.103 293.878C420.959 288.565 432.472 288.565 442.214 293.878L496.236 324.875C505.092 330.188 511.291 339.93 511.291 350.557V413.435C511.291 424.063 505.978 433.804 496.236 439.118L442.214 471C433.358 476.314 421.845 476.314 412.103 471L358.081 440.004C349.225 434.69 343.026 424.948 343.026 414.321V373.583L296.089 401.037V441.775C296.089 452.402 301.402 462.144 311.144 467.458L412.989 525.908C421.845 531.221 433.358 531.221 443.1 525.908L544.945 467.458C553.801 462.144 560 452.402 560 441.775V323.989C560 313.362 554.686 303.62 544.945 298.306L442.214 238.97Z"/></svg>