<svg xmlns="http://www.w3.org/2000/svg" width="640" height="640" fill="none" viewBox="0 0 640 640"><path fill="#111" d="M320 640C496.731 640 640 496.731 640 320C640 143.269 496.731 0 320 0C143.269 0 0 143.269 0 320C0 496.731 143.269 640 320 640Z"/><path fill="#fff" d="M428.799 158.4L353.601 270C348.4 277.6 358.399 286.8 365.599 280.4L439.599 216C441.601 214.4 444.4 215.6 444.4 218.4V419.599C444.4 422.4 440.8 423.601 439.2 421.599L215.2 153.6C208 144.8 197.6 140 186 140H178C157.2 140 140 157.2 140 178.4V461.601C140 482.799 157.2 500 178.4 500C191.6 500 204 493.2 211.2 481.6L286.4 370C291.6 362.401 281.6 353.199 274.4 359.6L200.4 423.601C198.4 425.199 195.6 424 195.6 421.2V220.4C195.6 217.6 199.2 216.4 200.8 218.4L424.8 486.399C432 495.199 442.8 500 453.999 500H462C483.201 500 500.4 482.799 500.4 461.601V178.4C500 157.2 482.799 140 461.601 140C448.399 140 435.999 146.8 428.799 158.4V158.4Z"/></svg>