<svg xmlns="http://www.w3.org/2000/svg" width="48" height="48" fill="none" viewBox="0 0 48 48"><circle cx="24" cy="24" r="24" fill="#2081E2"/><path fill="#fff" d="M10.8445 25.9885L10.953 25.8174L17.494 15.5481C17.5896 15.3978 17.8143 15.4133 17.8867 15.5766C18.9794 18.0344 19.9223 21.0911 19.4806 22.994C19.292 23.777 18.7754 24.8374 18.1941 25.8174C18.1192 25.96 18.0365 26.1 17.9487 26.2348C17.9073 26.297 17.8376 26.3333 17.7627 26.3333H11.0357C10.8548 26.3333 10.7489 26.1363 10.8445 25.9885Z"/><path fill="#fff" d="M40 27.8967V29.5222C40 29.6155 39.9432 29.6985 39.8605 29.7348C39.3542 29.9526 37.6208 30.7511 36.9 31.757C35.0607 34.3263 33.6554 38 30.514 38H17.4087C12.7639 38 9 34.2097 9 29.5326V29.3822C9 29.2578 9.10073 29.1567 9.22474 29.1567H16.5304C16.6751 29.1567 16.781 29.2915 16.7681 29.4341C16.7164 29.9111 16.8043 30.3985 17.029 30.8418C17.463 31.7259 18.362 32.2782 19.3333 32.2782H22.95V29.4445H19.3747C19.1913 29.4445 19.0828 29.2318 19.1887 29.0815C19.2274 29.0218 19.2714 28.9597 19.3178 28.8897C19.6563 28.4074 20.1393 27.6582 20.6198 26.8052C20.9479 26.2297 21.2656 25.6152 21.5214 24.9982C21.5731 24.8867 21.6144 24.7726 21.6557 24.6611C21.7255 24.4641 21.7979 24.28 21.8495 24.0959C21.9012 23.9403 21.9425 23.777 21.9838 23.6241C22.1053 23.1003 22.1569 22.5455 22.1569 21.97C22.1569 21.7445 22.1466 21.5085 22.1259 21.283C22.1156 21.0367 22.0846 20.7903 22.0536 20.5441C22.0329 20.3263 21.9942 20.1111 21.9528 19.8855C21.9012 19.5563 21.8288 19.2297 21.7462 18.9003L21.7177 18.7759C21.6557 18.5503 21.6041 18.3352 21.5318 18.1097C21.3277 17.4018 21.0926 16.7122 20.8446 16.0667C20.7542 15.81 20.6508 15.5637 20.5475 15.3174C20.3951 14.9467 20.2401 14.6097 20.098 14.2907C20.0257 14.1455 19.9637 14.0133 19.9017 13.8785C19.8319 13.7255 19.7596 13.5726 19.6872 13.4274C19.6356 13.3159 19.5762 13.2122 19.5348 13.1085L19.0931 12.2893C19.0311 12.1778 19.1344 12.0455 19.2558 12.0793L22.02 12.8311H22.0278C22.0329 12.8311 22.0355 12.8337 22.0381 12.8337L22.4023 12.9348L22.8028 13.0489L22.95 13.0903V11.4415C22.95 10.6455 23.5855 10 24.3709 10C24.7635 10 25.12 10.1607 25.3758 10.4226C25.6315 10.6845 25.7917 11.0422 25.7917 11.4415V13.8889L26.0862 13.9718C26.1094 13.9797 26.1327 13.99 26.1533 14.0055C26.2257 14.06 26.329 14.1403 26.4607 14.2389C26.5641 14.3218 26.6752 14.423 26.8095 14.5267C27.0756 14.7418 27.3933 15.0193 27.7421 15.3382C27.8351 15.4185 27.9255 15.5015 28.0082 15.5845C28.4577 16.0045 28.9614 16.497 29.4419 17.0415C29.5763 17.1945 29.708 17.35 29.8423 17.5133C29.9767 17.6793 30.1188 17.8426 30.2427 18.0059C30.4055 18.2237 30.5812 18.4493 30.7336 18.6852C30.8059 18.7967 30.8886 18.9107 30.9583 19.0222C31.1547 19.3203 31.3278 19.6289 31.4931 19.9374C31.5629 20.08 31.6352 20.2355 31.6972 20.3885C31.8806 20.8007 32.0253 21.2207 32.1182 21.6407C32.1467 21.7315 32.1673 21.83 32.1777 21.9182V21.9389C32.2087 22.0633 32.219 22.1955 32.2293 22.3303C32.2707 22.7607 32.25 23.1911 32.157 23.6241C32.1182 23.8082 32.0666 23.9818 32.0046 24.1659C31.9426 24.3422 31.8806 24.5263 31.8005 24.7C31.6455 25.0603 31.4621 25.4207 31.2451 25.7578C31.1753 25.8822 31.0927 26.0145 31.01 26.1389C30.9196 26.2711 30.8266 26.3955 30.7439 26.5174C30.6303 26.673 30.5089 26.8363 30.3849 26.9815C30.2738 27.1345 30.1601 27.2874 30.0361 27.4222C29.863 27.627 29.6977 27.8215 29.5246 28.0082C29.4213 28.13 29.3102 28.2545 29.1965 28.3659C29.0855 28.4903 28.9717 28.6018 28.8684 28.7055C28.6954 28.8793 28.5507 29.0141 28.4292 29.1255L28.1451 29.3874C28.1038 29.4237 28.0495 29.4445 27.9927 29.4445H25.7917V32.2782H28.561C29.181 32.2782 29.77 32.0578 30.2454 31.6533C30.4081 31.5107 31.1185 30.8937 31.9581 29.963C31.9865 29.9318 32.0227 29.9085 32.064 29.8982L39.7133 27.6789C39.8554 27.6374 40 27.7463 40 27.8967Z"/></svg>