<svg xmlns="http://www.w3.org/2000/svg" width="48" height="48" fill="none" viewBox="0 0 48 48"><circle cx="24" cy="24" r="24" fill="#FAFAFA"/><path fill="#F4A817" fill-rule="evenodd" d="M32.4435 8.94696C32.339 9.04899 32.2345 9.15101 32.129 9.25208C32.0666 9.32182 32.0039 9.39142 31.9413 9.46102C31.6527 9.78181 31.364 10.1026 31.0898 10.4363C30.6448 10.9779 30.21 11.5269 29.8044 12.0988C29.6724 12.2849 29.6719 12.2847 29.4749 12.2098L29.4646 12.2058C28.5445 11.8556 27.5954 11.6116 26.6255 11.4496C25.5433 11.2687 24.4517 11.2181 23.3563 11.2563C22.5915 11.2829 21.8274 11.332 21.0734 11.4737C20.2017 11.6376 19.3507 11.8765 18.5298 12.2151C18.4004 12.2685 18.3239 12.251 18.2292 12.14C17.7625 11.5927 17.288 11.0518 16.8095 10.5145C16.5833 10.2604 16.3522 10.0106 16.121 9.76074C16.0075 9.63805 15.894 9.51536 15.7811 9.39215C15.7684 9.37832 15.7578 9.36268 15.7471 9.34705C15.7422 9.33993 15.7374 9.33281 15.7323 9.32586C15.6564 9.25107 15.5805 9.17632 15.5046 9.10157C15.3182 8.91802 15.1318 8.73448 14.9458 8.55045C14.2931 7.90459 13.6047 7.30078 12.8305 6.80303C12.2501 6.42989 11.6388 6.12853 10.9447 6.02075C10.5491 5.95934 10.3764 6.02322 10.1632 6.36222C9.97762 6.65712 9.86423 6.98266 9.77737 7.31582C9.6174 7.92939 9.57507 8.55979 9.5515 9.18977C9.53246 9.70113 9.53872 10.213 9.56408 10.7252C9.59005 11.2502 9.62757 11.7736 9.68185 12.2961C9.73463 12.8041 9.80376 13.3099 9.87873 13.8152C9.89583 13.9305 9.91692 14.0451 9.93801 14.1597C9.97684 14.3707 10.0157 14.5816 10.0296 14.7964C10.0572 14.9214 10.0851 15.0464 10.113 15.1714C10.1743 15.4459 10.2356 15.7204 10.2942 15.9954C10.4121 16.549 10.5567 17.0957 10.7117 17.6396C10.9149 18.3527 11.1453 19.057 11.4228 19.7452C11.4513 19.8156 11.4296 19.8786 11.3996 19.9441C11.0987 20.5979 10.8083 21.2563 10.5593 21.9319C10.517 22.0469 10.4758 22.0653 10.3947 21.9582C10.392 21.9667 10.389 21.9745 10.3865 21.9811C10.382 21.9927 10.3788 22.0008 10.3814 22.0035C10.492 22.1189 10.4479 22.236 10.4037 22.3532C10.3982 22.3677 10.3928 22.3823 10.3876 22.3968C10.1397 23.0915 9.93426 23.7982 9.76184 24.5156C9.65423 24.9635 9.55541 25.4132 9.47825 25.8663C9.38719 26.4013 9.30995 26.9389 9.26646 27.4813C9.26441 27.5068 9.26236 27.5323 9.26031 27.5578C9.22913 27.9459 9.19799 28.3334 9.19238 28.7227C9.21352 28.7192 9.23465 28.7156 9.25579 28.712C9.59816 28.6537 9.94059 28.5954 10.2871 28.5675C11.0304 28.5075 11.7702 28.5139 12.5108 28.6276C14.5013 28.9334 16.0885 29.9406 17.4164 31.4092L17.5566 31.5639C17.5943 31.4765 17.6313 31.3907 17.668 31.3059C17.7427 31.1328 17.8157 30.9639 17.8883 30.7948C18.1121 30.2744 18.3811 29.7775 18.674 29.2933C18.7251 29.2088 18.7746 29.1234 18.824 29.038C18.9842 28.7615 19.1442 28.4854 19.3595 28.24C20.1315 27.3598 21.0377 26.687 22.1649 26.3347C22.7356 26.1563 23.3206 26.0355 23.9176 26.0371C25.0694 26.04 26.1584 26.3045 27.1478 26.9143C27.7893 27.3099 28.3449 27.8076 28.8382 28.3758C28.9784 28.5373 29.0949 28.7147 29.1879 28.9066C29.2559 29.047 29.3255 29.1866 29.395 29.3262C29.6412 29.8205 29.8874 30.3148 30.0641 30.8405C30.1198 31.0062 30.1749 31.1719 30.2314 31.3417C30.255 31.4125 30.2788 31.4841 30.303 31.5567C30.3706 31.4898 30.437 31.4234 30.5029 31.3574C30.6444 31.2157 30.7835 31.0765 30.9264 30.9412C31.6993 30.2096 32.5683 29.6198 33.553 29.2121C34.31 28.8986 35.0988 28.7134 35.9175 28.6309C36.6268 28.5594 37.3287 28.5933 38.0322 28.667C38.1798 28.6825 38.3264 28.7066 38.4731 28.7307C38.5403 28.7417 38.6076 28.7528 38.6749 28.763C38.7149 28.655 38.6984 28.5475 38.682 28.4403C38.6741 28.3884 38.6661 28.3365 38.6646 28.2847C38.6525 27.8704 38.6263 27.456 38.5898 27.043C38.5476 26.5663 38.4888 26.0911 38.4134 25.618C38.29 24.8443 38.1204 24.0812 37.896 23.3307C37.7585 22.8713 37.5933 22.4212 37.4262 21.9717C37.2833 21.5872 37.0977 21.223 36.9121 20.8588C36.7923 20.6238 36.6725 20.3888 36.5642 20.1483C36.4678 19.9342 36.413 19.7428 36.4952 19.4942C36.7754 18.6461 37.015 17.7849 37.2423 16.9208C37.4354 16.1867 37.6234 15.4512 37.7827 14.7087C37.7892 14.6782 37.7988 14.6483 37.8083 14.6185C37.8127 14.6046 37.8172 14.5907 37.8213 14.5767C37.8386 14.4444 37.8674 14.3142 37.8962 14.1841C37.915 14.0987 37.9339 14.0135 37.9495 13.9276L37.9651 13.8416C38.0634 13.2999 38.1617 12.7583 38.2411 12.2132C38.3467 11.4879 38.4201 10.7596 38.4482 10.0282C38.4826 9.13283 38.4479 8.24043 38.2144 7.36651C38.101 6.94241 37.9528 6.53485 37.7192 6.15937C37.665 6.0722 37.6098 6.05537 37.5184 6.06244C36.8807 6.11184 36.281 6.30102 35.7026 6.56074C34.8136 6.96006 34.0288 7.5195 33.2928 8.15223C32.9984 8.40531 32.721 8.67614 32.4435 8.94696ZM32.3234 13.8564C32.3653 13.929 32.4292 13.9782 32.4932 14.0275C32.5314 14.057 32.5696 14.0864 32.6032 14.1209C32.7177 14.2385 32.8338 14.3547 32.9499 14.4708L32.95 14.4709L32.95 14.4709C33.2378 14.7587 33.5255 15.0465 33.79 15.3577C34.085 15.7049 34.3661 16.0619 34.6368 16.4276C34.9216 16.8124 35.1902 17.2086 35.4462 17.613C35.4571 17.6301 35.4656 17.6501 35.474 17.6699C35.4948 17.7189 35.5154 17.7673 35.5715 17.7714C35.5929 17.7729 35.6291 17.659 35.648 17.5948C35.7145 17.3703 35.7835 17.1466 35.8526 16.9229L35.8526 16.9226C35.9458 16.6206 36.039 16.3187 36.1258 16.0147C36.2975 15.414 36.4565 14.8104 36.5895 14.201C36.7351 13.5341 36.8609 12.8634 36.9375 12.1826C36.9884 11.7297 37.0172 11.2766 37.0346 10.8231C37.0486 10.4555 37.008 10.0881 36.9675 9.72192L36.9556 9.61388C36.9528 9.60551 36.9495 9.5972 36.9462 9.58889C36.9392 9.5713 36.9322 9.55372 36.9301 9.53558C36.8869 9.15735 36.7697 8.80063 36.6122 8.45668C36.5346 8.28694 36.517 8.28523 36.3378 8.35618C35.7161 8.60259 35.1288 8.91679 34.5792 9.29487C33.717 9.88804 32.9307 10.575 32.1776 11.2999C31.739 11.722 31.3207 12.164 30.9128 12.6159C30.8507 12.6847 30.8356 12.7224 30.9248 12.7877L31.0473 12.8771L31.0474 12.8771C31.3407 13.0911 31.634 13.305 31.9163 13.5343C31.9583 13.5684 31.9982 13.6056 32.0381 13.6428L32.0382 13.6428L32.0382 13.6428C32.1253 13.724 32.2127 13.8054 32.3234 13.8564ZM11.0042 8.50422C11.08 8.33393 11.0981 8.30919 11.1837 8.32094C11.4081 8.38751 11.6331 8.48601 11.8503 8.59317C12.3195 8.82474 12.7679 9.09588 13.1974 9.39523C13.6086 9.68183 13.9969 9.99788 14.3802 10.3214C14.9091 10.7676 15.4061 11.2468 15.8956 11.7341C16.0852 11.9228 16.2669 12.1195 16.4486 12.3161L16.4486 12.3161L16.4486 12.3161C16.5451 12.4207 16.6417 12.5252 16.7394 12.6285C16.7967 12.689 16.8013 12.7286 16.7242 12.7808C16.3049 13.0641 15.9072 13.3768 15.5181 13.6998C15.0991 14.0476 14.7152 14.4332 14.3369 14.824C13.8689 15.3073 13.4516 15.8328 13.0459 16.3688C12.7203 16.7989 12.4311 17.2523 12.1435 17.7073C12.1405 17.712 12.1378 17.717 12.1351 17.7221C12.1246 17.7416 12.1139 17.7616 12.0871 17.7616C12.0462 17.7616 12.0351 17.7261 12.0259 17.697L12.0257 17.6962C11.9907 17.5844 11.9554 17.4727 11.9201 17.361C11.8212 17.0485 11.7224 16.736 11.6315 16.4213C11.4825 15.9056 11.3377 15.3884 11.2068 14.8679C11.1019 14.4505 11.0095 14.03 10.9279 13.6067C10.8664 13.287 10.809 12.9668 10.7599 12.6454C10.7156 12.3556 10.6809 12.0644 10.6552 11.7718C10.6181 11.3494 10.5825 10.9268 10.6041 10.5033C10.6391 9.81825 10.7205 9.14066 11.0042 8.50422ZM17.7168 21.1824L17.7168 21.1824C17.767 21.1783 17.8173 21.1741 17.8676 21.1703C18.1428 21.1495 18.4164 21.0973 18.6772 21.0033C18.8381 20.9453 18.9871 20.8509 19.0508 20.6826C19.1677 20.373 19.1937 20.0472 19.1021 19.7314C18.9595 19.2402 18.5995 18.9089 18.2096 18.6055C17.8704 18.3416 17.4865 18.2356 17.0677 18.3063C16.3451 18.4284 15.6094 19.0684 15.5208 19.8212C15.4817 20.1524 15.463 20.4688 15.6542 20.7673C15.7828 20.9684 15.9168 21.1366 16.1817 21.1579L16.2374 21.1624C16.5179 21.1851 16.7999 21.208 17.1139 21.2045C17.2991 21.2172 17.5061 21.2 17.7168 21.1824ZM30.76 21.2091C30.8732 21.2171 31.0327 21.2038 31.2063 21.1894C31.2818 21.1831 31.36 21.1766 31.4382 21.1715C31.6668 21.1568 31.8833 21.1046 32.0225 20.8873C32.2178 20.5824 32.2983 20.2515 32.2488 19.8964C32.1622 19.2741 31.7989 18.8381 31.2728 18.5303C30.8524 18.2843 30.4034 18.2064 29.9317 18.3764C29.6572 18.4754 29.4361 18.6594 29.2285 18.8543C28.8609 19.1993 28.5798 19.5949 28.5384 20.1223C28.5002 20.6067 28.6968 20.8987 29.1557 21.0341C29.6488 21.1795 30.155 21.198 30.76 21.2091ZM33.2465 23.2674L33.2466 23.3126C33.2437 23.3681 33.24 23.4236 33.2362 23.4792C33.2276 23.6081 33.219 23.737 33.2207 23.8657C33.2228 24.008 33.1576 24.1072 33.0694 24.2046C32.7334 24.5753 32.3187 24.8362 31.8797 25.0637C31.2189 25.4059 30.5195 25.6452 29.7993 25.8208C29.2398 25.9573 28.6731 26.0605 28.0926 26.0615C27.9379 26.0618 27.7899 26.0321 27.6424 25.9965C27.4862 25.9588 27.4381 25.8737 27.4605 25.7286C27.5332 25.2597 27.821 24.9207 28.1431 24.606C28.4804 24.2764 28.8736 24.0209 29.2663 23.7656C29.348 23.7125 29.4297 23.6594 29.5109 23.6057C30.0932 23.2202 30.6864 22.8512 31.3123 22.5387C31.7531 22.3186 32.2001 22.1079 32.6995 22.0639C33.0343 22.0344 33.0349 22.0362 33.1271 22.3237L33.1412 22.3676L33.154 22.4069C33.2454 22.6851 33.2459 22.9768 33.2465 23.2674V23.2674ZM14.8534 23.2652C14.8552 23.3 14.8583 23.3414 14.8618 23.3875C14.8712 23.5138 14.8834 23.676 14.8797 23.8377C14.8749 24.0442 14.9755 24.1821 15.1121 24.3137C15.6783 24.8594 16.3731 25.1807 17.0957 25.453C17.5653 25.63 18.0465 25.7674 18.537 25.8755C19.0287 25.9839 19.5238 26.0624 20.0275 26.0764C20.2074 26.0813 20.3862 26.0613 20.559 26.003C20.7056 25.9536 20.7517 25.8826 20.728 25.7368C20.7072 25.609 20.6684 25.4874 20.6102 25.3716C20.3851 24.9237 20.0372 24.5811 19.6343 24.3026C18.5938 23.5836 17.538 22.8864 16.3709 22.3821C16.016 22.2287 15.6513 22.1031 15.2531 22.1078C15.118 22.1093 15.0592 22.1648 15.0104 22.2797C14.8989 22.5422 14.8815 22.8184 14.8598 23.165L14.8534 23.2652Z" clip-rule="evenodd"/><path fill="#F00500" d="M38.6748 28.763C38.7341 28.6028 38.6691 28.4437 38.6645 28.2847C38.6525 27.8704 38.6262 27.456 38.5896 27.043C38.5475 26.5663 38.4887 26.0911 38.4133 25.6179C38.2899 24.8443 38.1203 24.0811 37.8958 23.3307C37.7583 22.8712 37.5932 22.4212 37.4261 21.9717C37.1909 21.3391 36.8401 20.7615 36.5641 20.1482C36.4678 19.9342 36.4129 19.7428 36.4951 19.4942C36.7754 18.6461 37.0149 17.785 37.2421 16.9207C37.4352 16.1866 37.6233 15.4512 37.7825 14.7086C37.7921 14.664 37.8081 14.6206 37.8212 14.5767C38.2591 15.204 38.6377 15.8659 38.986 16.5464C39.4359 17.4253 39.8081 18.3364 40.1089 19.2755C40.3674 20.083 40.5663 20.9059 40.7129 21.7426C40.9232 22.9429 41.0168 24.1513 40.9975 25.3681C40.9828 26.2924 40.9039 27.2129 40.7512 28.1248C40.3652 30.4286 39.5901 32.5939 38.3908 34.6003C37.1713 36.6403 35.6132 38.378 33.6951 39.7895C32.633 40.5711 31.4957 41.2165 30.2809 41.7299C29.5705 42.0302 28.8436 42.2804 28.0988 42.4756C27.2901 42.6876 26.4687 42.8334 25.6358 42.9175C24.6162 43.0206 23.5957 43.026 22.5765 42.9394C21.7254 42.8671 20.8853 42.7198 20.0548 42.5121C18.9183 42.2278 17.8262 41.8262 16.7804 41.3042C14.2851 40.0587 12.2277 38.2914 10.5728 36.0515C9.70143 34.8723 8.99158 33.6024 8.42906 32.2483C8.10699 31.4731 7.83589 30.6811 7.62177 29.8706C7.39912 29.0278 7.23915 28.1724 7.13504 27.306C6.9829 26.0401 6.96201 24.7719 7.05877 23.5022C7.13731 22.4705 7.3023 21.4509 7.55559 20.4475C8.06334 18.436 8.87332 16.5548 10.0111 14.8172C10.0161 14.8096 10.0232 14.8033 10.0294 14.7964C10.1179 15.196 10.2088 15.5951 10.2941 15.9954C10.412 16.5489 10.5566 17.0956 10.7116 17.6395C10.9148 18.3527 11.1452 19.057 11.4227 19.7451C11.4511 19.8156 11.4295 19.8786 11.3994 19.944C11.0985 20.5979 10.8082 21.2563 10.5592 21.932C10.5168 22.0469 10.4757 22.0653 10.3945 21.9582C10.3873 21.9815 10.3773 21.9993 10.3813 22.0034C10.5056 22.1331 10.4344 22.2651 10.3874 22.3968C10.1396 23.0915 9.93412 23.7982 9.7617 24.5156C9.65409 24.9635 9.55527 25.4131 9.47817 25.8663C9.38706 26.4013 9.30981 26.9388 9.26632 27.4813C9.23319 27.8948 9.19822 28.3078 9.19224 28.7228C9.15884 29.2379 9.20625 29.7448 9.34156 30.2435C9.5418 30.9816 9.86512 31.6647 10.2668 32.3124C11.0752 33.6157 12.1169 34.7146 13.2696 35.7135C14.8713 37.1015 16.6398 38.232 18.5655 39.1182C18.9443 39.2927 19.3199 39.4708 19.7125 39.6162C20.0015 39.7232 20.2913 39.8235 20.5818 39.9239C20.763 39.9866 20.9467 40.0525 21.1307 40.1093C21.8126 40.3193 22.5109 40.4606 23.2197 40.5294C24.0266 40.6076 24.8315 40.5605 25.6325 40.4257C26.3493 40.305 27.0522 40.1304 27.7428 39.908C28.4548 39.6786 29.1492 39.4022 29.829 39.0887C30.7905 38.6455 31.7125 38.1327 32.5956 37.5496C33.4295 36.9988 34.2201 36.3917 34.955 35.7142C35.2687 35.425 35.5829 35.1351 35.8544 34.8035C35.8898 34.7965 35.9054 34.7696 35.9178 34.7397L35.9265 34.7391L35.9298 34.7311C35.9439 34.7193 35.9599 34.7091 35.9719 34.6954C36.4743 34.1304 36.9449 33.5423 37.3304 32.8886C37.5444 32.5259 37.7725 32.1711 37.9509 31.7889C38.2764 31.0918 38.5064 30.3648 38.6203 29.602C38.662 29.3234 38.6852 29.0446 38.6748 28.763Z"/><path fill="#F00500" d="M32.1288 9.25204C31.7783 9.64318 31.4233 10.0301 31.0895 10.4362C30.6446 10.9778 30.2097 11.5269 29.8042 12.0988C29.6698 12.2881 29.6717 12.2846 29.4643 12.2058C28.5442 11.8556 27.5951 11.6116 26.6253 11.4495C25.5429 11.2687 24.4514 11.218 23.3561 11.2562C22.5912 11.2829 21.8271 11.332 21.0732 11.4737C20.2015 11.6376 19.3504 11.8765 18.5296 12.2151C18.4 12.2685 18.3236 12.251 18.2289 12.14C17.7622 11.5926 17.2877 11.0517 16.8093 10.5145C16.4719 10.1356 16.1237 9.76621 15.7808 9.39211C15.7624 9.37198 15.7482 9.34801 15.7319 9.32588C16.732 8.73766 17.7814 8.25592 18.882 7.89006C19.8023 7.5841 20.7434 7.36483 21.7053 7.22655C22.9328 7.05008 24.1627 7.0237 25.3959 7.12262C26.2432 7.19062 27.079 7.33475 27.9051 7.53966C29.3634 7.90139 30.74 8.46393 32.0482 9.19894C32.0762 9.21467 32.102 9.23425 32.1288 9.25204Z"/><path fill="#FFFEFE" fill-rule="evenodd" d="M34.9553 35.7142C35.2689 35.425 35.5831 35.1351 35.8545 34.8035L35.8463 34.7938C35.8415 34.7917 35.8356 34.7907 35.8297 34.7896C35.8132 34.7865 35.7965 34.7835 35.8026 34.7584C35.8042 34.7516 35.8173 34.7476 35.8304 34.7437C35.836 34.742 35.8415 34.7403 35.8462 34.7384C35.8462 34.7386 35.8462 34.7387 35.8462 34.7389L35.8471 34.738C35.8468 34.7382 35.8465 34.7383 35.8462 34.7384C35.8512 34.6781 35.8909 34.6458 35.9349 34.6101C35.9479 34.5996 35.9613 34.5888 35.9742 34.5768C35.9777 34.6079 35.9627 34.6313 35.9484 34.6535C35.9327 34.6779 35.918 34.7009 35.93 34.7311C35.9346 34.7272 35.9394 34.7235 35.9442 34.7198C35.9541 34.7122 35.964 34.7046 35.9721 34.6954C36.4744 34.1303 36.945 33.5423 37.3306 32.8886C37.3781 32.808 37.4264 32.7278 37.4746 32.6476C37.6435 32.3669 37.8123 32.0862 37.9511 31.7889C38.2766 31.0918 38.5066 30.3648 38.6205 29.6021C38.6622 29.3234 38.6854 29.0446 38.675 28.7629C38.6076 28.7527 38.5403 28.7417 38.473 28.7306C38.3264 28.7065 38.1798 28.6825 38.0323 28.667C37.3288 28.5933 36.6268 28.5594 35.9175 28.6308C35.0989 28.7133 34.3101 28.8986 33.553 29.2121C32.5684 29.6198 31.6993 30.2095 30.9265 30.9412C30.7838 31.0763 30.6449 31.2153 30.5036 31.3568C30.4375 31.4229 30.3709 31.4896 30.3031 31.5567C30.2741 31.4697 30.2457 31.3842 30.2175 31.2996C30.1659 31.1445 30.1152 30.9924 30.0642 30.8404C29.8875 30.3147 29.6412 29.8203 29.3949 29.3259C29.3254 29.1864 29.2559 29.0469 29.188 28.9066C29.0949 28.7146 28.9785 28.5372 28.8383 28.3757C28.3449 27.8076 27.7895 27.3099 27.1478 26.9143C26.1586 26.3045 25.0695 26.0399 23.9177 26.037C23.3207 26.0355 22.7357 26.1562 22.165 26.3346C21.0378 26.687 20.1316 27.3597 19.3595 28.2399C19.1442 28.4854 18.9842 28.7615 18.8239 29.0381C18.7745 29.1234 18.7251 29.2088 18.674 29.2933C18.3812 29.7775 18.1123 30.2744 17.8884 30.7948C17.8154 30.9645 17.7422 31.1341 17.6671 31.308C17.6308 31.3921 17.594 31.4772 17.5566 31.5638C17.5396 31.545 17.5236 31.5274 17.5084 31.5106C17.4753 31.4742 17.4459 31.4417 17.4165 31.4091C16.0885 29.9405 14.5014 28.9333 12.5109 28.6276C11.7702 28.5138 11.0305 28.5075 10.2872 28.5675C9.94 28.5955 9.59693 28.6539 9.25393 28.7123C9.23343 28.7158 9.21292 28.7193 9.19242 28.7228C9.15902 29.2378 9.20643 29.7447 9.34174 30.2435C9.54199 30.9816 9.86523 31.6647 10.267 32.3124C11.0754 33.6157 12.1171 34.7146 13.2697 35.7135C14.8715 37.1015 16.64 38.232 18.5656 39.1182C18.6093 39.1384 18.653 39.1585 18.6967 39.1787C19.0314 39.3334 19.3654 39.4877 19.7127 39.6162C20.0017 39.7232 20.2915 39.8235 20.582 39.9239C20.6192 39.9367 20.6565 39.9497 20.6938 39.9628C20.8386 40.0133 20.9847 40.0642 21.1309 40.1093C21.8127 40.3193 22.5111 40.4606 23.2199 40.5294C24.0268 40.6076 24.8317 40.5605 25.6326 40.4257C26.3494 40.305 27.0524 40.1304 27.743 39.908C28.4549 39.6786 29.1493 39.4022 29.8292 39.0887C30.7907 38.6455 31.7127 38.1327 32.5957 37.5496C33.4297 36.9989 34.2203 36.3917 34.9553 35.7142ZM27.9492 33.8228L28.2447 33.8228L28.1679 34.1405C28.0981 34.4287 28.0295 34.7126 27.962 34.9968C27.9435 35.0744 27.8919 35.0746 27.8281 35.0743C27.6057 35.0735 27.6049 35.0756 27.5253 35.2836L27.524 35.287C27.4336 35.523 27.3429 35.7588 27.2496 36.0013L27.2489 36.0031L27.0903 36.4159C27.0627 36.364 27.0309 36.3166 26.9997 36.2702C26.9252 36.1591 26.8546 36.0539 26.8569 35.9094C26.8601 35.711 26.8615 35.5125 26.8629 35.314V35.314V35.3139C26.8646 35.0689 26.8663 34.8238 26.8714 34.5788C26.8735 34.4781 26.8562 34.4555 26.751 34.4738C25.8207 34.6363 24.8829 34.7164 23.9387 34.6806C23.3533 34.6583 22.7685 34.6156 22.1924 34.4974C22.146 34.4879 22.0986 34.4836 22.0531 34.4795L22.0531 34.4795L22.0531 34.4795C22.0326 34.4777 22.0126 34.4759 21.9932 34.4736C21.9932 34.602 21.9923 34.7301 21.9914 34.8581V34.8581V34.8581C21.9891 35.1652 21.9869 35.4714 21.9975 35.7771C22.0056 36.0115 21.9888 36.2257 21.8103 36.4081C21.6563 36.2013 21.5601 35.9601 21.4768 35.7145L21.4728 35.7026L21.4728 35.7026C21.4123 35.5242 21.3513 35.3442 21.3314 35.1554C21.3166 35.0138 21.2191 35.0259 21.1332 35.0522C21.0027 35.0923 20.9631 35.0529 20.9372 34.9219C20.9058 34.7635 20.8779 34.6046 20.8671 34.4448C20.8592 34.3298 20.8232 34.2446 20.7337 34.1732C20.6848 34.1342 20.6404 34.0896 20.5959 34.045L20.5959 34.0449C20.575 34.024 20.5542 34.0031 20.5329 33.9828C20.4944 33.9459 20.5019 33.8991 20.5088 33.8554L20.5093 33.8526C20.5152 33.8147 20.5432 33.8187 20.5682 33.8223C20.5753 33.8234 20.582 33.8243 20.588 33.8243C20.7943 33.8249 21.0006 33.8263 21.2069 33.8276H21.2069H21.207C21.3797 33.8288 21.5524 33.8299 21.7251 33.8306C21.7958 33.8309 21.8539 33.8418 21.8554 33.9299C21.8563 33.9859 21.8923 33.9876 21.9325 33.9895L21.9413 33.99C22.435 34.0168 22.9291 34.0175 23.4233 34.0183H23.4233L23.577 34.0186C23.6352 34.0187 23.6696 34.0008 23.6979 33.9501C23.7279 33.8961 23.7601 33.8433 23.7923 33.7904L23.7923 33.7904C23.8269 33.7336 23.8614 33.6769 23.8933 33.6187L23.8935 33.6184C23.9479 33.5192 23.9988 33.4264 24.1394 33.4609C24.2031 33.4765 24.215 33.4338 24.2147 33.3792L24.2146 33.3514C24.2132 33.0096 24.2118 32.6677 24.2152 32.326C24.2159 32.2587 24.1783 32.2436 24.1345 32.2261C24.1281 32.2235 24.1216 32.2209 24.1151 32.2181C23.585 31.9884 23.0848 31.7107 22.6784 31.2906C22.3426 30.9434 22.1361 30.5437 22.1661 30.042C22.1761 29.8756 22.1734 29.7084 22.1708 29.5412C22.1695 29.4633 22.1683 29.3854 22.1683 29.3075C22.1687 28.7864 22.5127 28.4419 23.0338 28.4416C23.889 28.4412 24.7442 28.4411 25.5993 28.4417C26.0601 28.4419 26.5268 28.9135 26.5111 29.3742C26.5071 29.4946 26.5079 29.6153 26.5088 29.736C26.5106 29.9985 26.5124 30.261 26.4641 30.5211C26.3616 31.0739 26.0544 31.4964 25.6148 31.8299C25.3906 32 25.1479 32.1402 24.8791 32.2288C24.8192 32.2486 24.8038 32.2778 24.8042 32.3372C24.8068 32.6838 24.8077 33.0303 24.8038 33.3769C24.803 33.4521 24.828 33.4777 24.8981 33.4658C25.0096 33.4468 25.0688 33.497 25.1194 33.5969C25.1327 33.623 25.1457 33.6504 25.1589 33.6781C25.2178 33.8019 25.2803 33.9331 25.3805 33.9917C25.4638 34.0402 25.5813 34.0307 25.6983 34.0213C25.7472 34.0173 25.796 34.0134 25.8422 34.0137C25.9442 34.0143 26.0463 34.0143 26.1484 34.0142C26.3514 34.0141 26.5544 34.0139 26.7573 34.0196C26.8616 34.0225 26.9323 34.0015 26.9718 33.8993C26.9882 33.857 27.018 33.822 27.0747 33.8221C27.3652 33.8231 27.6557 33.823 27.949 33.8228H27.9491H27.9492ZM24.2365 35.0191V35.0143L23.8438 35.0143L23.0584 35.0143H23.0576C22.941 35.0142 22.883 35.0142 22.8553 35.0431C22.828 35.0716 22.83 35.1283 22.8341 35.241V35.241L22.8345 35.251C22.8368 35.3132 22.8665 35.3413 22.9099 35.3698C22.9942 35.4252 23.0869 35.4623 23.1796 35.4994C23.2144 35.5133 23.2493 35.5273 23.2837 35.5422C23.3715 35.5803 23.4189 35.572 23.4541 35.4675C23.5209 35.2696 23.5298 35.2702 23.727 35.2832L23.7461 35.2844C23.8169 35.289 23.8549 35.3211 23.8867 35.374C23.9175 35.4252 23.9481 35.4765 23.9787 35.5278L23.9788 35.5279L23.9788 35.528L23.9789 35.5281C24.0209 35.5986 24.0629 35.6691 24.1055 35.7392C24.2198 35.9275 24.4037 35.9388 24.5475 35.7676C24.5818 35.7267 24.6164 35.6859 24.6509 35.6451L24.7341 35.5467L24.7342 35.5466L24.7342 35.5466L24.7342 35.5466C24.8369 35.4248 24.8884 35.3638 24.9445 35.3591C25.0009 35.3544 25.0619 35.4065 25.1842 35.5108L25.1843 35.5109C25.1914 35.517 25.1981 35.5238 25.2048 35.5306C25.2295 35.5556 25.254 35.5804 25.2998 35.5696C25.4997 35.522 25.6485 35.3311 25.6545 35.1344C25.6578 35.0291 25.6149 35.0165 25.5257 35.0173C25.2088 35.0203 24.8919 35.0198 24.575 35.0194H24.5747H24.5747C24.462 35.0193 24.3493 35.0191 24.2365 35.0191ZM26.1076 40.2362H25.981C26.0296 40.2665 26.0668 40.2562 26.1076 40.2362ZM25.9323 40.2665C25.8578 40.3037 25.7933 40.3276 25.6934 40.2969C25.7261 40.2929 25.7547 40.2843 25.7819 40.2762C25.8317 40.2614 25.8766 40.248 25.9323 40.2665ZM35.7371 34.8512L35.7593 34.8238L35.7445 34.8131L35.7422 34.8198L35.7329 34.8473L35.7075 34.8769C35.6686 34.875 35.6512 34.8946 35.6519 34.9324L35.6177 34.941L35.6271 34.9554L35.6524 34.9329C35.6797 34.9231 35.6982 34.9045 35.708 34.8773L35.7371 34.8512Z" clip-rule="evenodd"/><path fill="#F28F1F" d="M11.1839 8.32088C11.4083 8.38751 11.6332 8.48602 11.8504 8.59319C12.3197 8.82468 12.768 9.09581 13.1976 9.39518C13.6088 9.68177 13.997 9.99789 14.3804 10.3214C14.9092 10.7675 15.4062 11.2468 15.8958 11.734C16.1861 12.0231 16.4578 12.3306 16.7396 12.6285C16.7968 12.689 16.8014 12.7287 16.7243 12.7807C16.305 13.0641 15.9073 13.3768 15.5182 13.6998C15.0992 14.0476 14.7153 14.4332 14.3371 14.824C13.8691 15.3073 13.4517 15.8327 13.046 16.3687C12.7205 16.7989 12.4312 17.2523 12.1436 17.7073C12.1292 17.73 12.121 17.7615 12.0872 17.7615C12.046 17.7615 12.035 17.7254 12.0259 17.6962C11.893 17.2716 11.7551 16.8485 11.6316 16.4213C11.4826 15.9056 11.3378 15.3883 11.207 14.8678C11.102 14.4505 11.0096 14.03 10.9281 13.6067C10.8665 13.287 10.8091 12.9668 10.76 12.6453C10.7158 12.3556 10.681 12.0643 10.6553 11.7718C10.6183 11.3494 10.5826 10.9268 10.6042 10.5033C10.6392 9.81826 10.7206 9.14067 11.0043 8.50415C11.0802 8.33393 11.0982 8.30914 11.1839 8.32088Z"/><path fill="#F28B20" d="M36.9554 9.61383C36.9993 10.0158 37.0498 10.4193 37.0344 10.823C37.017 11.2766 36.9882 11.7296 36.9373 12.1825C36.8607 12.8633 36.7349 13.534 36.5893 14.201C36.4563 14.8103 36.2973 15.414 36.1257 16.0146C35.9744 16.544 35.804 17.0672 35.6478 17.5948C35.6289 17.6589 35.5927 17.7729 35.5713 17.7713C35.4925 17.7656 35.4838 17.6726 35.446 17.613C35.19 17.2085 34.9215 16.8124 34.6366 16.4276C34.3659 16.0619 34.0848 15.7049 33.7898 15.3577C33.4186 14.9208 33.0015 14.5302 32.6029 14.121C32.5132 14.0287 32.3901 13.9723 32.3232 13.8563C32.3481 13.8236 32.3794 13.7939 32.3967 13.7575C32.5714 13.3881 32.7694 13.0315 32.9801 12.6817C33.2987 12.1529 33.6516 11.6478 34.0655 11.1899C34.4997 10.7093 34.9902 10.2936 35.5739 9.99995C36.0089 9.78117 36.4636 9.63066 36.9554 9.61383Z"/><path fill="#1F1712" d="M14.8535 23.2651C14.8792 22.8707 14.8884 22.567 15.0104 22.2798C15.0593 22.1648 15.1181 22.1093 15.2533 22.1077C15.6514 22.103 16.016 22.2287 16.371 22.3821C17.5381 22.8863 18.5938 23.5835 19.6344 24.3026C20.0373 24.5811 20.3852 24.9237 20.6103 25.3716C20.6685 25.4874 20.7073 25.609 20.7281 25.7369C20.7518 25.8826 20.7057 25.9536 20.5591 26.003C20.3863 26.0614 20.2075 26.0813 20.0275 26.0764C19.5239 26.0623 19.0288 25.9838 18.537 25.8754C18.0466 25.7673 17.5654 25.63 17.0958 25.4531C16.3732 25.1807 15.6784 24.8595 15.1122 24.3137C14.9757 24.182 14.875 24.0442 14.8798 23.8378C14.8848 23.6168 14.8603 23.3952 14.8535 23.2651Z"/><path fill="#1F1713" d="M33.2464 23.3126C33.2367 23.497 33.218 23.6815 33.2206 23.8657C33.2226 24.008 33.1573 24.1072 33.0692 24.2046C32.7332 24.5753 32.3185 24.8362 31.8794 25.0637C31.2187 25.4059 30.5192 25.6452 29.7991 25.8209C29.2395 25.9573 28.6729 26.0605 28.0924 26.0615C27.9378 26.0618 27.7897 26.0321 27.6423 25.9965C27.4859 25.9588 27.4378 25.8737 27.4603 25.7286C27.533 25.2597 27.8208 24.9207 28.1429 24.606C28.5503 24.2078 29.0395 23.9177 29.5106 23.6058C30.093 23.2202 30.6862 22.8513 31.3121 22.5387C31.7529 22.3186 32.1998 22.1079 32.6992 22.0639C33.0637 22.0318 33.0322 22.0367 33.1537 22.4069C33.2499 22.6996 33.2456 23.0071 33.2464 23.3126Z"/><path fill="#F2991D" d="M36.9554 9.61383C36.4636 9.63066 36.0089 9.78117 35.5739 9.99995C34.9901 10.2936 34.4996 10.7093 34.0654 11.1899C33.6516 11.6478 33.2986 12.1529 32.9801 12.6817C32.7693 13.0315 32.5714 13.3882 32.3967 13.7575C32.3794 13.7939 32.348 13.8236 32.3232 13.8563C32.1618 13.7821 32.0498 13.6429 31.916 13.5342C31.5944 13.273 31.2585 13.0317 30.9246 12.7877C30.8353 12.7223 30.8505 12.6847 30.9126 12.6159C31.3205 12.164 31.7389 11.722 32.1774 11.2998C32.9304 10.5749 33.7168 9.88805 34.579 9.29488C35.1286 8.91673 35.7158 8.60252 36.3375 8.35619C36.5168 8.28516 36.5344 8.28695 36.612 8.45662C36.7695 8.80064 36.8868 9.15729 36.9299 9.53552C36.9329 9.56224 36.9467 9.58772 36.9554 9.61383Z"/><path fill="#FFFEFE" d="M30.76 21.209C30.155 21.1981 29.6488 21.1796 29.1558 21.0342C28.6968 20.8988 28.5002 20.6067 28.5383 20.1223C28.5799 19.5949 28.8608 19.1994 29.2285 18.8543C29.4362 18.6594 29.6572 18.4754 29.9317 18.3764C30.4034 18.2064 30.8525 18.2844 31.2728 18.5303C31.7988 18.8381 32.1622 19.274 32.2489 19.8964C32.2983 20.2515 32.2178 20.5824 32.0224 20.8873C31.8832 21.1045 31.6668 21.1568 31.4382 21.1716C31.1803 21.1882 30.9226 21.2207 30.76 21.209Z"/><path fill="#FFFEFE" d="M17.1136 21.2046C16.7789 21.2082 16.4805 21.1819 16.1815 21.1578C15.9166 21.1365 15.7826 20.9683 15.6539 20.7673C15.4627 20.4688 15.4815 20.1524 15.5205 19.8212C15.6092 19.0684 16.3449 18.4284 17.0675 18.3063C17.4863 18.2356 17.8702 18.3416 18.2094 18.6055C18.5993 18.9089 18.9592 19.2402 19.1018 19.7313C19.1935 20.0472 19.1675 20.3729 19.0505 20.6826C18.9869 20.8509 18.8379 20.9452 18.6769 21.0033C18.4162 21.0973 18.1426 21.1495 17.8674 21.1703C17.6056 21.19 17.343 21.2202 17.1136 21.2046Z"/><path fill="#F6D9A7" d="M35.8458 34.7389C35.8521 34.6604 35.9169 34.6294 35.9739 34.5768C35.9811 34.6422 35.9068 34.6736 35.9297 34.7311C35.9297 34.7311 35.9264 34.7392 35.9264 34.7392L35.9177 34.7397C35.8937 34.7394 35.8698 34.7392 35.8458 34.7389Z"/><path fill="#FFFEFE" d="M35.8459 34.739C35.8698 34.7392 35.8938 34.7395 35.9177 34.7398C35.9053 34.7697 35.8897 34.7965 35.8543 34.8036C35.8543 34.8036 35.8461 34.7938 35.8461 34.7938C35.8463 34.7752 35.8465 34.7566 35.8468 34.7381L35.8459 34.739Z"/><path fill="#1D1919" d="M28.2443 33.8228C28.1482 34.2213 28.0538 34.6088 27.9617 34.9969C27.9433 35.0744 27.8916 35.0746 27.8279 35.0743C27.6043 35.0735 27.6047 35.0757 27.5237 35.287C27.3827 35.6549 27.2411 36.0226 27.09 36.4158C26.9966 36.2401 26.8534 36.1143 26.8567 35.9094C26.8638 35.4659 26.8619 35.0223 26.8711 34.5788C26.8733 34.478 26.8559 34.4555 26.7508 34.4739C25.8205 34.6362 24.8826 34.7164 23.9384 34.6805C23.3531 34.6582 22.7682 34.6155 22.1921 34.4974C22.1249 34.4836 22.0555 34.4808 21.993 34.4736C21.993 34.9099 21.9823 35.3439 21.9973 35.7771C22.0054 36.0114 21.9885 36.2257 21.8101 36.4081C21.6561 36.2013 21.5598 35.9601 21.4766 35.7144C21.4148 35.5322 21.3515 35.3484 21.3312 35.1553C21.3163 35.0138 21.2188 35.0259 21.133 35.0523C21.0024 35.0923 20.9628 35.0528 20.9369 34.922C20.9056 34.7635 20.8776 34.6047 20.8668 34.4448C20.8589 34.3298 20.8229 34.2447 20.7335 34.1732C20.6617 34.1158 20.5994 34.0465 20.5327 33.9828C20.4933 33.9452 20.5019 33.8971 20.5089 33.8526C20.5166 33.8041 20.5603 33.8242 20.5878 33.8243C20.9667 33.8254 21.3458 33.829 21.7248 33.8306C21.7956 33.8309 21.8537 33.8418 21.8551 33.9299C21.8561 33.9898 21.8973 33.9876 21.941 33.9899C22.4859 34.0196 23.0313 34.0175 23.5767 34.0185C23.6348 34.0187 23.6693 34.0009 23.6976 33.9501C23.7599 33.8381 23.8315 33.7312 23.893 33.6187C23.9475 33.5194 23.9984 33.4263 24.1391 33.4609C24.2028 33.4765 24.2147 33.4338 24.2145 33.3792C24.2131 33.0282 24.2115 32.677 24.215 32.326C24.2158 32.2489 24.1663 32.2404 24.1148 32.218C23.5847 31.9884 23.0846 31.7107 22.6781 31.2905C22.3423 30.9434 22.1358 30.5436 22.1658 30.0421C22.1804 29.7981 22.1679 29.5524 22.1681 29.3075C22.1685 28.7864 22.5124 28.4419 23.0335 28.4416C23.8887 28.4412 24.7439 28.4411 25.5991 28.4416C26.0599 28.442 26.5265 28.9135 26.5109 29.3742C26.4981 29.7566 26.5343 30.1414 26.4639 30.5211C26.3614 31.074 26.0542 31.4963 25.6145 31.8299C25.3903 32 25.1476 32.1402 24.8789 32.2288C24.819 32.2486 24.8036 32.2778 24.804 32.3372C24.8066 32.6838 24.8075 33.0304 24.8036 33.3769C24.8027 33.452 24.8277 33.4777 24.8979 33.4658C25.0093 33.4468 25.0685 33.4971 25.1192 33.5969C25.1914 33.7393 25.2575 33.92 25.3803 33.9916C25.4984 34.0605 25.6853 34.0127 25.8419 34.0136C26.147 34.0156 26.4522 34.0111 26.757 34.0196C26.8613 34.0225 26.932 34.0015 26.9716 33.8993C26.9879 33.857 27.0178 33.822 27.0744 33.8222C27.4623 33.8233 27.8501 33.8228 28.2443 33.8228Z"/><path fill="#171413" d="M24.2363 35.0191C24.666 35.0191 25.0958 35.0213 25.5255 35.0174C25.6147 35.0165 25.6576 35.0292 25.6543 35.1345C25.6484 35.331 25.4995 35.5221 25.2997 35.5696C25.2415 35.5833 25.2177 35.5396 25.1841 35.511C24.9398 35.3025 24.9399 35.3025 24.7339 35.5467C24.6718 35.6205 24.6093 35.6938 24.5473 35.7676C24.4036 35.9389 24.2196 35.9275 24.1053 35.7393C24.0317 35.618 23.9597 35.4956 23.8865 35.374C23.8547 35.3211 23.8167 35.289 23.7458 35.2845C23.5301 35.2705 23.5228 35.2635 23.4539 35.4675C23.4188 35.572 23.3713 35.5802 23.2835 35.5422C23.1575 35.4876 23.0257 35.446 22.9097 35.3698C22.8663 35.3414 22.8365 35.3132 22.8343 35.251C22.8258 35.0139 22.8224 35.0142 23.0583 35.0144C23.4509 35.0145 23.8436 35.0144 24.2363 35.0144V35.0191Z"/><path fill="#F6D9A7" d="M25.6935 40.2969C25.7859 40.2856 25.8462 40.2379 25.9323 40.2665C25.8579 40.3038 25.7933 40.3276 25.6935 40.2969Z"/><path fill="#F6D9A7" d="M26.1072 40.2362C26.0664 40.2562 26.0292 40.2665 25.9806 40.2362H26.1072Z"/><path fill="#F6D9A7" d="M35.847 34.738C35.8467 34.7566 35.8465 34.7752 35.8463 34.7938C35.8278 34.7859 35.7943 34.7923 35.8026 34.7583C35.805 34.7485 35.8315 34.7446 35.847 34.738Z"/><path fill="#F6D9A7" d="M35.6516 34.9324C35.6508 34.8945 35.6684 34.8751 35.7072 34.8769L35.7077 34.8773C35.6979 34.9045 35.6794 34.923 35.6521 34.9329L35.6516 34.9324Z"/><path fill="#F7DDB0" d="M35.6526 34.9329C35.6441 34.9405 35.6357 34.9479 35.6273 34.9556C35.6241 34.9508 35.621 34.9458 35.6178 34.941C35.6292 34.9381 35.6406 34.9353 35.652 34.9324L35.6526 34.9329Z"/><path fill="#F7DDB0" d="M35.2461 35.3292C35.2458 35.3327 35.2467 35.3379 35.2448 35.3393C35.2417 35.3418 35.2358 35.3437 35.2328 35.3422C35.2198 35.3363 35.2205 35.3295 35.2343 35.3255C35.2377 35.3246 35.2422 35.3278 35.2461 35.3292Z"/><path fill="#F6D9A7" d="M35.7328 34.8472C35.7366 34.8358 35.7405 34.8244 35.7443 34.813C35.7493 34.8167 35.7543 34.8202 35.7593 34.8239C35.7518 34.833 35.7443 34.8421 35.7368 34.8511L35.7328 34.8472Z"/><path fill="#F6D9A7" d="M35.7074 34.8769C35.7162 34.8667 35.7249 34.8565 35.7336 34.8463C35.7336 34.8463 35.7377 34.8504 35.7378 34.8504C35.7278 34.8594 35.7179 34.8683 35.7079 34.8773L35.7074 34.8769Z"/><path fill="#F7DDB0" d="M35.5666 35.0135C35.5711 35.0076 35.5756 35.0015 35.5801 34.9955C35.5976 35.0111 35.5799 35.0128 35.5712 35.018L35.5666 35.0135Z"/><path fill="#F7DDB0" d="M35.5713 35.0176C35.5657 35.0214 35.5602 35.0252 35.5546 35.029C35.5587 35.0237 35.5628 35.0185 35.5668 35.0131C35.5667 35.0131 35.5713 35.0176 35.5713 35.0176Z"/><path fill="#F7DDB0" d="M35.4998 35.0784L35.5031 35.0872L35.4948 35.0864L35.4998 35.0784Z"/><path fill="#F7DDB0" d="M35.4249 35.1497C35.4308 35.1396 35.4356 35.1253 35.4489 35.1424C35.4494 35.1431 35.4387 35.1526 35.4334 35.1579L35.4249 35.1497Z"/><path fill="#F7DDB0" d="M35.4339 35.1576C35.4278 35.161 35.4217 35.1644 35.4156 35.1678C35.419 35.1617 35.4223 35.1556 35.4255 35.1494C35.4254 35.1493 35.4339 35.1576 35.4339 35.1576Z"/><path fill="#F7DDB0" d="M35.3614 35.2022L35.3585 35.1942L35.366 35.1951L35.3614 35.2022Z"/><path fill="#F7DDB0" d="M35.2773 35.2855L35.2745 35.2773L35.2821 35.2782L35.2773 35.2855Z"/></svg>