<svg xmlns="http://www.w3.org/2000/svg" width="48" height="48" fill="none" viewBox="0 0 48 48"><circle cx="24" cy="24" r="24" fill="#22A079"/><path fill="#fff" fill-rule="evenodd" d="M27.2483 16.082V20.0705L27.2526 20.0748C34.5296 20.4158 40 21.8878 40 23.6446C40 25.4058 34.5296 26.8734 27.2526 27.2144V40H20.7686V27.2144C13.4832 26.8691 8 25.4014 8 23.6403C8 21.8791 13.4789 20.4115 20.7686 20.0705V16.082H11.7996V10H36.2173V16.082H27.2483ZM27.2483 26.118V26.1223V26.1266C33.6729 25.8331 38.4691 24.6935 38.4691 23.3295C38.4691 21.9655 33.6772 20.8259 27.2483 20.5324V24.9871C27.0618 25.0043 26.061 25.0906 24.0594 25.0906C22.3928 25.0906 21.1842 25.0173 20.7644 24.9871V20.5281C14.3271 20.8173 9.51816 21.9612 9.51816 23.3252C9.51816 24.6935 14.3228 25.8331 20.7644 26.1223V26.118C21.18 26.1396 22.3546 26.187 24.0297 26.187C26.1246 26.187 27.066 26.1309 27.2483 26.118Z" clip-rule="evenodd"/></svg>