<svg width="48" height="48" viewBox="0 0 48 48" fill="none" xmlns="http://www.w3.org/2000/svg">
<circle cx="24" cy="24" r="24" fill="#3B99FC"/>
<path fill-rule="evenodd" clip-rule="evenodd" d="M33.449 17.9077C28.2305 12.6974 19.7696 12.6974 14.5511 17.9077L13.8617 18.5959C13.6008 18.8564 13.6008 19.2788 13.8617 19.5393L16.0102 21.6843C16.1406 21.8146 16.3522 21.8146 16.4826 21.6843L17.4082 20.7602C21.0488 17.1255 26.9513 17.1255 30.5918 20.7602L31.4561 21.6231C31.5866 21.7534 31.7981 21.7534 31.9286 21.6231L34.077 19.4781C34.3379 19.2176 34.3379 18.7952 34.077 18.5347L33.449 17.9077ZM39.8043 24.2529L37.8922 22.3438C37.6313 22.0833 37.2082 22.0833 36.9473 22.3438L30.828 28.4534C30.7628 28.5185 30.657 28.5185 30.5918 28.4534L24.4724 22.3437L24.4723 22.3437C24.2114 22.0832 23.7884 22.0832 23.5275 22.3437L17.4084 28.4534C17.3431 28.5185 17.2374 28.5185 17.1721 28.4534L11.0527 22.3437C10.7918 22.0832 10.3688 22.0832 10.1078 22.3437L8.19569 24.2528C7.93477 24.5133 7.93477 24.9357 8.19569 25.1962L16.8179 33.8046C17.0788 34.0651 17.5018 34.0651 17.7628 33.8046L23.8819 27.695C23.9472 27.6299 24.0529 27.6299 24.1182 27.695L30.2375 33.8046C30.4984 34.0651 30.9215 34.0651 31.1824 33.8046L39.8043 25.1963C40.0652 24.9358 40.0652 24.5134 39.8043 24.2529Z" fill="white"/>
</svg>
