<svg width="48" height="48" viewBox="0 0 48 48" fill="none" xmlns="http://www.w3.org/2000/svg">
<path d="M47.2816 29.8059C44.0758 42.663 31.0522 50.4877 18.192 47.2815C5.33716 44.076 -2.48842 31.0531 0.718922 18.1968C3.92326 5.33814 16.9469 -2.48728 29.8033 0.718189C42.6626 3.92366 50.4875 16.948 47.2816 29.8059Z" fill="#F7931A"/>
<path fill-rule="evenodd" clip-rule="evenodd" d="M34.9373 20.8646C35.4367 17.5022 32.8951 15.6946 29.4198 14.4888L30.5471 9.93391L27.7947 9.24295L26.6971 13.6778C25.9735 13.4961 25.2303 13.3248 24.4919 13.155L25.5972 8.69097L22.8463 8L21.7182 12.5533C21.1193 12.4159 20.5313 12.28 19.9606 12.1371L19.9637 12.1229L16.1678 11.1682L15.4356 14.1295C15.4356 14.1295 17.4778 14.6009 17.4347 14.6301C18.5495 14.9104 18.751 15.6535 18.7173 16.2426L17.4331 21.4316C17.51 21.4513 17.6095 21.4798 17.7193 21.524L17.626 21.5005L17.6258 21.5005C17.562 21.4844 17.4959 21.4677 17.4284 21.4513L15.6285 28.7203C15.4921 29.0614 15.1463 29.5731 14.3671 29.3789C14.3945 29.4191 12.3664 28.8758 12.3664 28.8758L11 32.0496L14.5819 32.949C14.9819 33.05 15.3772 33.1538 15.7683 33.2565C16.0287 33.3249 16.2872 33.3928 16.5441 33.4591L15.405 38.0661L18.1544 38.7571L19.2825 34.199C20.0335 34.4044 20.7626 34.5939 21.476 34.7724L20.3518 39.309L23.1043 40L24.2433 35.4017C28.9369 36.2964 32.4663 35.9355 33.9518 31.6595C35.1489 28.2165 33.8923 26.2304 31.4228 24.9354C33.2212 24.5176 34.5759 23.326 34.9373 20.8646ZM28.6484 29.7476C27.868 32.9064 22.9595 31.6005 20.7136 31.003L20.7134 31.0029C20.5114 30.9492 20.3309 30.9012 20.177 30.8627L21.6884 24.7593C21.876 24.8064 22.1051 24.8582 22.3647 24.9169L22.3647 24.9169C24.6876 25.4419 29.448 26.5179 28.6484 29.7476ZM22.8314 22.0845C24.7039 22.5878 28.7883 23.6858 29.4998 20.8148C30.2263 17.8783 26.2566 16.9931 24.3178 16.5608C24.0997 16.5121 23.9074 16.4692 23.7502 16.4298L22.3799 21.9654C22.5093 21.9979 22.6612 22.0387 22.8314 22.0845Z" fill="white"/>
</svg>
