<svg width="48" height="48" viewBox="0 0 48 48" fill="none" xmlns="http://www.w3.org/2000/svg">
<circle cx="24" cy="24" r="24" fill="#7950DD"/>
<path d="M32.1476 18.5539C31.5572 18.1987 30.7896 18.1987 30.1402 18.5539L25.535 21.2769L22.4059 23.0528L17.8007 25.7759C17.2104 26.1311 16.4428 26.1311 15.7934 25.7759L12.1328 23.6448C11.5424 23.2897 11.1291 22.6385 11.1291 21.9281V17.7252C11.1291 17.0148 11.4834 16.3636 12.1328 16.0085L15.7343 13.9366C16.3247 13.5814 17.0922 13.5814 17.7417 13.9366L21.3432 16.0085C21.9335 16.3636 22.3468 17.0148 22.3468 17.7252V20.4482L25.476 18.6131V15.8901C25.476 15.1797 25.1218 14.5285 24.4723 14.1734L17.8007 10.2664C17.2104 9.91121 16.4428 9.91121 15.7934 10.2664L9.00369 14.1734C8.35424 14.5285 8 15.1797 8 15.8901V23.7632C8 24.4735 8.35424 25.1247 9.00369 25.4799L15.7934 29.3868C16.3838 29.7421 17.1513 29.7421 17.8007 29.3868L22.4059 26.723L25.535 24.8879L30.1402 22.2241C30.7306 21.8689 31.4982 21.8689 32.1476 22.2241L35.749 24.296C36.3395 24.6512 36.7528 25.3023 36.7528 26.0127V30.2156C36.7528 30.926 36.3985 31.5771 35.749 31.9323L32.1476 34.0634C31.5572 34.4186 30.7896 34.4186 30.1402 34.0634L26.5388 31.9915C25.9483 31.6364 25.535 30.9852 25.535 30.2748V27.5518L22.4059 29.3868V32.1099C22.4059 32.8202 22.7601 33.4714 23.4096 33.8266L30.1993 37.7336C30.7896 38.0888 31.5572 38.0888 32.2066 37.7336L38.9963 33.8266C39.5867 33.4714 40 32.8202 40 32.1099V24.2368C40 23.5264 39.6457 22.8753 38.9963 22.5201L32.1476 18.5539Z" fill="white"/>
</svg>
