<svg width="48" height="48" viewBox="0 0 48 48" fill="none" xmlns="http://www.w3.org/2000/svg">
<circle cx="24" cy="24" r="24" fill="black"/>
<path fill-rule="evenodd" clip-rule="evenodd" d="M34.1433 16.0771C33.9894 16.1452 33.8234 16.1805 33.6555 16.1806H8.61377C8.49434 16.1805 8.37751 16.1452 8.2776 16.0789C8.17769 16.0126 8.09904 15.9182 8.05127 15.8072C8.00349 15.6963 7.98868 15.5737 8.00863 15.4544C8.02859 15.3351 8.08245 15.2242 8.16362 15.1354L13.4403 9.39586C13.5545 9.27119 13.6929 9.17171 13.8468 9.10363C14.0006 9.03554 14.1667 9.00031 14.3346 9.00013H39.3763C39.4967 8.99761 39.6154 9.03127 39.7171 9.09687C39.8187 9.16248 39.8992 9.2571 39.9478 9.36882C39.9967 9.48055 40.0116 9.6044 39.991 9.72477C39.9704 9.84515 39.9153 9.95668 39.8324 10.0453L34.5498 15.7849C34.4355 15.9096 34.2972 16.0091 34.1433 16.0771ZM34.5498 20.304C34.4351 20.1799 34.2967 20.0809 34.1429 20.0128C33.9891 19.9448 33.8232 19.9092 33.6555 19.9083H8.61377C8.49434 19.9084 8.37751 19.9437 8.2776 20.0101C8.17769 20.0764 8.09904 20.1708 8.05127 20.2817C8.00349 20.3926 7.98868 20.5152 8.00863 20.6346C8.02859 20.7539 8.08245 20.8648 8.16362 20.9535L13.4403 26.6961C13.5549 26.8202 13.6934 26.9193 13.8472 26.9874C14.001 27.0554 14.1668 27.0909 14.3346 27.0918H39.3763C39.4956 27.0912 39.6118 27.0554 39.7114 26.9889C39.811 26.9223 39.8891 26.8279 39.9365 26.7171C39.9839 26.6063 39.9985 26.4839 39.9782 26.3648C39.9582 26.2458 39.9046 26.1352 39.8235 26.0466L34.5498 20.304ZM39.8324 31.8647L34.5498 37.6043C34.4355 37.7289 34.2972 37.8284 34.1433 37.8965C33.9894 37.9646 33.8234 37.9998 33.6555 38H8.61377C8.49434 37.9999 8.37751 37.9646 8.2776 37.8983C8.17769 37.832 8.09904 37.7376 8.05127 37.6266C8.00349 37.5157 7.98868 37.3931 8.00863 37.2738C8.02859 37.1544 8.08245 37.0436 8.16362 36.9548L13.4403 31.2152C13.5545 31.0906 13.6929 30.9911 13.8468 30.923C14.0006 30.8549 14.1667 30.8197 14.3346 30.8195H39.3763C39.4967 30.817 39.6154 30.8507 39.7171 30.9163C39.8187 30.9819 39.8992 31.0765 39.9478 31.1882C39.9967 31.2999 40.0116 31.4238 39.991 31.5442C39.9704 31.6646 39.9153 31.7761 39.8324 31.8647Z" fill="url(#paint0_linear_92_4192)"/>
<defs>
<linearGradient id="paint0_linear_92_4192" x1="27.2505" y1="50.59" x2="50.4149" y2="18.3691" gradientUnits="userSpaceOnUse">
<stop offset="0.08" stop-color="#9945FF"/>
<stop offset="0.3" stop-color="#8752F3"/>
<stop offset="0.5" stop-color="#5497D5"/>
<stop offset="0.6" stop-color="#43B4CA"/>
<stop offset="0.72" stop-color="#28E0B9"/>
<stop offset="0.97" stop-color="#19FB9B"/>
</linearGradient>
</defs>
</svg>
