<svg width="48" height="48" viewBox="0 0 48 48" fill="none" xmlns="http://www.w3.org/2000/svg">
<circle cx="24" cy="24" r="24" fill="black"/>
<path d="M29.11 17.8438H34.0002L31.5551 8H14.4453L16.8905 17.8438H21.7745L24.2196 27.6938H21.1664L22.3889 32.6125H25.4422L26.6648 37.5375H34.0002L29.11 17.8438Z" fill="url(#paint0_linear_92_4280)"/>
<path d="M31.555 20.3062H29.718L29.1099 17.8438H34.0001L31.555 20.3062Z" fill="url(#paint1_linear_92_4280)"/>
<path d="M29.11 12.925H18.113L17.8027 11.6937H30.0284L29.11 12.925Z" fill="url(#paint2_linear_92_4280)"/>
<path d="M14.4451 20.3062L12 10.4625L14.4451 8L16.8903 17.8438L14.4451 20.3062Z" fill="url(#paint3_linear_92_4280)"/>
<path d="M25.4418 32.6125H22.3885L19.9434 35.075H22.9966L25.4418 32.6125Z" fill="url(#paint4_linear_92_4280)"/>
<path d="M19.3356 20.3062H14.4453L16.8905 17.8438H21.7745L19.3356 20.3062Z" fill="url(#paint5_linear_92_4280)"/>
<path d="M24.2195 27.6938H21.1662L19.3354 20.3062L21.7744 17.8438L24.2195 27.6938Z" fill="url(#paint6_linear_92_4280)"/>
<path d="M22.3889 32.6125L21.1664 27.6938L18.7212 30.1563L19.9438 35.0751L22.3889 32.6125Z" fill="url(#paint7_linear_92_4280)"/>
<path d="M26.6647 37.5375L25.4422 32.6125L22.9971 35.075L24.2196 40L26.6647 37.5375Z" fill="url(#paint8_linear_92_4280)"/>
<path d="M31.5547 37.5375L26.0562 15.3875L25.0757 16.3687L30.3321 37.5375L29.3516 38.525H30.5742L31.5547 37.5375Z" fill="url(#paint9_linear_92_4280)"/>
<path d="M30.9406 15.3875H29.718L29.1099 12.925L30.0283 11.6937L30.9406 15.3875Z" fill="url(#paint10_linear_92_4280)"/>
<path d="M31.5547 37.5375L30.5741 38.525H29.3516L30.3321 37.5375H26.6644L24.2192 40H31.5547L33.9998 37.5375H31.5547Z" fill="url(#paint11_linear_92_4280)"/>
<defs>
<linearGradient id="paint0_linear_92_4280" x1="14.4444" y1="37.5369" x2="33.9978" y2="37.5369" gradientUnits="userSpaceOnUse">
<stop offset="0.00188079" stop-color="#FCC33C"/>
<stop offset="1" stop-color="#FFEE50"/>
</linearGradient>
<linearGradient id="paint1_linear_92_4280" x1="33.9977" y1="17.8462" x2="29.1094" y2="17.8462" gradientUnits="userSpaceOnUse">
<stop stop-color="#FB9828"/>
<stop offset="1" stop-color="#F96C13"/>
</linearGradient>
<linearGradient id="paint2_linear_92_4280" x1="30.0275" y1="11.6922" x2="17.8051" y2="11.6922" gradientUnits="userSpaceOnUse">
<stop stop-color="#F84200"/>
<stop offset="1" stop-color="#F96C13"/>
</linearGradient>
<linearGradient id="paint3_linear_92_4280" x1="10.7075" y1="11.9696" x2="18.0002" y2="16.6212" gradientUnits="userSpaceOnUse">
<stop stop-color="#F96C13"/>
<stop offset="1" stop-color="#FB9828"/>
</linearGradient>
<linearGradient id="paint4_linear_92_4280" x1="19.9434" y1="35.0777" x2="25.4428" y2="35.0777" gradientUnits="userSpaceOnUse">
<stop stop-color="#F84200"/>
<stop offset="1" stop-color="#F96C13"/>
</linearGradient>
<linearGradient id="paint5_linear_92_4280" x1="14.4444" y1="20.3088" x2="21.7769" y2="20.3088" gradientUnits="userSpaceOnUse">
<stop stop-color="#F84200"/>
<stop offset="1" stop-color="#F96C13"/>
</linearGradient>
<linearGradient id="paint6_linear_92_4280" x1="25.2219" y1="25.5955" x2="19.0706" y2="19.4869" gradientUnits="userSpaceOnUse">
<stop stop-color="#F96C13"/>
<stop offset="1" stop-color="#FB9828"/>
</linearGradient>
<linearGradient id="paint7_linear_92_4280" x1="23.0352" y1="33.0565" x2="18.8764" y2="28.9088" gradientUnits="userSpaceOnUse">
<stop stop-color="#FB9828"/>
<stop offset="1" stop-color="#F96C13"/>
</linearGradient>
<linearGradient id="paint8_linear_92_4280" x1="27.311" y1="37.9781" x2="23.1508" y2="33.8361" gradientUnits="userSpaceOnUse">
<stop stop-color="#F96C13"/>
<stop offset="1" stop-color="#FB9828"/>
</linearGradient>
<linearGradient id="paint9_linear_92_4280" x1="33.7748" y1="28.4206" x2="22.0548" y2="24.7085" gradientUnits="userSpaceOnUse">
<stop stop-color="#F96C13"/>
<stop offset="1" stop-color="#F84200"/>
</linearGradient>
<linearGradient id="paint10_linear_92_4280" x1="31.3744" y1="14.9824" x2="29.0676" y2="12.6933" gradientUnits="userSpaceOnUse">
<stop stop-color="#F84200"/>
<stop offset="1" stop-color="#F96C13"/>
</linearGradient>
<linearGradient id="paint11_linear_92_4280" x1="25.2459" y1="39.6885" x2="32.5486" y2="39.6885" gradientUnits="userSpaceOnUse">
<stop stop-color="#F84200"/>
<stop offset="1" stop-color="#F96C13"/>
</linearGradient>
</defs>
</svg>
